<?xml version="1.0" encoding="UTF-8" standalone="no"?>
<!-- Created with Inkscape (http://www.inkscape.org/) -->

<svg
   xmlns:dc="http://purl.org/dc/elements/1.1/"
   xmlns:cc="http://creativecommons.org/ns#"
   xmlns:rdf="http://www.w3.org/1999/02/22-rdf-syntax-ns#"
   xmlns:svg="http://www.w3.org/2000/svg"
   xmlns="http://www.w3.org/2000/svg"
   xmlns:sodipodi="http://sodipodi.sourceforge.net/DTD/sodipodi-0.dtd"
   xmlns:inkscape="http://www.inkscape.org/namespaces/inkscape"
   width="210mm"
   height="297mm"
   viewBox="0 0 744.09448819 1052.3622047"
   id="svg2"
   version="1.1"
   inkscape:version="0.91 r13725"
   sodipodi:docname="khgf.svg">
  <defs
     id="defs4" />
  <sodipodi:namedview
     id="base"
     pagecolor="#ffffff"
     bordercolor="#666666"
     borderopacity="1.0"
     inkscape:pageopacity="0.0"
     inkscape:pageshadow="2"
     inkscape:zoom="0.35"
     inkscape:cx="375"
     inkscape:cy="520"
     inkscape:document-units="px"
     inkscape:current-layer="layer1"
     showgrid="false"
     inkscape:window-width="1366"
     inkscape:window-height="719"
     inkscape:window-x="0"
     inkscape:window-y="1"
     inkscape:window-maximized="1" />
  <metadata
     id="metadata7">
    <rdf:RDF>
      <cc:Work
         rdf:about="">
        <dc:format>image/svg+xml</dc:format>
        <dc:type
           rdf:resource="http://purl.org/dc/dcmitype/StillImage" />
        <dc:title></dc:title>
      </cc:Work>
    </rdf:RDF>
  </metadata>
  <g
     inkscape:label="Layer 1"
     inkscape:groupmode="layer"
     id="layer1">
    <path
       style="fill:none;fill-rule:evenodd;stroke:#000000;stroke-width:1px;stroke-linecap:butt;stroke-linejoin:miter;stroke-opacity:1"
       d="m 548.57143,455.21935 c -14.83031,-0.86508 -43.8818,2.44728 -57.14286,-2.85715 -59.17025,-23.6681 -67.19822,-36.83646 -114.28571,-80 -16.38956,-15.02376 -33.11862,-29.72861 -48.57143,-45.71428 -12.20531,-12.62618 -22.3959,-27.07629 -34.28572,-40 -10.03097,-10.90324 -20.95238,-20.95238 -31.42857,-31.42857 -4.7619,-4.76191 -9.02707,-10.0788 -14.28571,-14.28572 -12.68731,-10.14985 -11.28482,-6.79964 -22.85714,-11.42857 -8.20766,-3.28306 -2.85059,-2.85714 -8.57143,-2.85714 -2.85714,5.71429 -5.28444,11.66453 -8.57143,17.14286 -2.44998,4.0833 -6.12145,7.34527 -8.57143,11.42857 -10.67372,17.78953 -15.83818,37.8407 -22.85714,57.14285 -1.75271,4.81995 -4.93443,9.21663 -5.71429,14.28572 -1.15853,7.53045 0,15.23809 0,22.85714 0,16.19048 0,32.38095 0,48.57143 0,11.42857 0,22.85714 0,34.28571 0,11.72535 -1.15493,15.01543 2.85714,25.71429 7.14657,19.05751 27.66575,42.29251 42.85715,54.28571 9.7463,7.69446 21.01717,13.2326 31.42857,20 8.63729,5.61424 16.95521,11.72058 25.71428,17.14286 25.88167,16.02198 38.19568,23.0281 65.71429,34.28572 10.31738,4.22074 20.61407,8.72494 31.42857,11.42857 27.5295,6.88237 46.34904,5.46735 74.28572,8.57143 13.38632,1.48737 26.57419,4.64022 40,5.71428 75.82326,6.06586 -10.81114,-6.58434 60,2.85714 28.43271,3.79103 0.13598,2.85715 28.57142,2.85715 1.90477,0 3.80953,0 5.71429,0 1.90476,0 4.01061,0.85183 5.71429,0 0.85183,-0.42592 0,-1.90476 0,-2.85715 0,-4.7619 -0.78286,-9.5886 0,-14.28571 0.49511,-2.97072 2.36202,-5.60071 2.85714,-8.57143 0.46971,-2.81827 0,-5.71428 0,-8.57143 0,-6.66666 0,-13.33333 0,-20 0,-3.80952 0,-7.61904 0,-11.42857 0,-3.80952 0.42069,-7.64235 0,-11.42857 -0.53628,-4.82651 -1.67934,-9.5745 -2.85714,-14.28571 -0.72027,-2.88108 -3.49747,-11.32995 -5.71429,-14.28572 -1.61624,-2.15499 -4.22007,-3.47296 -5.71429,-5.71428 -0.52828,-0.79243 0.23099,-1.9332 0,-2.85715 -0.73044,-2.92177 -2.1267,-5.64965 -2.85714,-8.57143 -0.23098,-0.92394 0.42592,-2.0053 0,-2.85714 -1.20468,-2.40935 -4.50961,-3.30493 -5.71428,-5.71428 -0.42592,-0.85184 0.42591,-2.00531 0,-2.85715 -1.20468,-2.40935 -4.50961,-3.30493 -5.71429,-5.71428 -0.42592,-0.85184 0.42592,-2.00531 0,-2.85715 -5.94537,-11.89074 0.19724,3.05439 -5.71429,-2.85714 -0.67343,-0.67343 0.67344,-2.18371 0,-2.85714 -0.67343,-0.67344 -2.43122,0.85183 -2.85714,0 -1.7561,-3.51221 0.65507,-9.67247 -2.85714,-11.42857 -3.07134,-1.53567 -5.31379,4.6284 -8.57143,5.71428 -0.90351,0.30117 0.67344,-2.1837 0,-2.85714 -0.67344,-0.67343 -2.00531,0.42592 -2.85714,0 -1.20468,-0.60234 -1.65247,-2.2548 -2.85715,-2.85714 -0.85183,-0.42592 -1.95363,0.30117 -2.85714,0 -2.0203,-0.67344 -3.66663,-2.2721 -5.71428,-2.85715 -14.94747,-4.2707 -15.48272,-1.72782 -31.42858,-5.71428 C 480.89457,443.30013 472.12248,438.97447 460,432.3622 c -4.87521,-2.6592 -9.84308,-5.23945 -14.28571,-8.57142 -7.02442,-5.26831 -13.33334,-11.42858 -20,-17.14286 -13.75773,-11.79234 -32.96291,-28.04558 -45.71429,-40 -6.87814,-6.44826 -12.8753,-13.82526 -20,-20 -7.19704,-6.23743 -15.62613,-10.94485 -22.85714,-17.14286 C 331.00714,324.24587 325.71429,318.07649 320,312.3622 c -51.08682,-51.08682 3.20793,4.68036 -31.42857,-34.28571 -3.57925,-4.02665 -7.84933,-7.40192 -11.42857,-11.42857 -4.05144,-4.55786 -7.37714,-9.72785 -11.42857,-14.28572 -10.02374,-11.2767 -21.80293,-20.24957 -34.28572,-28.57142 -5.02492,-3.34995 -13.95805,-9.41459 -20,-11.42858 -0.90351,-0.30116 -1.90476,0 -2.85714,0 -1.90476,0 -3.80953,0 -5.71429,0 -0.95238,0 -2.1837,-0.67343 -2.85714,0 -0.11498,0.11498 0,10.37933 0,11.42858 0,0.95238 -0.67344,2.1837 0,2.85714 1.50585,1.50585 4.20844,1.3513 5.71429,2.85714 0.67343,0.67344 -0.67344,2.18371 0,2.85714 1.98529,1.9853 8.15055,-3.52894 11.42857,-5.71428"
       id="path3336"
       inkscape:connector-curvature="0" />
  </g>
</svg>
