<svg width="90%" viewBox="-10 -20 670 1000" fill="none" xmlns="http://www.w3.org/2000/svg">
<path d="M337.376 421.762C304.581 435.801 267.365 451.719 219.131 451.719C198.953 451.679 178.874 448.911 159.438 443.49L192.797 785.991C193.978 800.306 200.499 813.654 211.067 823.384C221.634 833.114 235.473 838.514 249.838 838.511C249.838 838.511 297.138 840.968 312.921 840.968C329.908 840.968 380.844 838.511 380.844 838.511C395.206 838.511 409.043 833.109 419.608 823.38C430.172 813.65 436.692 800.304 437.872 785.991L473.603 407.514C457.635 402.06 441.52 398.437 423.354 398.437C391.935 398.425 366.621 409.246 337.376 421.762Z" fill="#FFDD00"></path>
<path d="M627.869 244.025L622.846 218.686C618.338 195.951 608.107 174.469 584.77 166.251C577.289 163.623 568.802 162.493 563.066 157.052C557.33 151.611 555.635 143.16 554.309 135.324C551.852 120.941 549.543 106.546 547.025 92.1872C544.851 79.8431 543.131 65.9761 537.469 54.6515C530.1 39.4456 514.808 30.553 499.602 24.6696C491.81 21.7609 483.858 19.3004 475.786 17.3C437.796 7.27737 397.852 3.59259 358.769 1.49226C311.858 -1.09629 264.822 -0.316398 218.022 3.82595C183.189 6.99487 146.501 10.8271 113.399 22.8763C101.301 27.2858 88.8338 32.5796 79.6341 41.9267C68.3464 53.4109 64.6616 71.1716 72.9033 85.4931C78.7621 95.6632 88.6864 102.848 99.2126 107.602C112.923 113.727 127.242 118.387 141.932 121.506C182.833 130.546 225.196 134.096 266.981 135.606C313.294 137.475 359.682 135.961 405.775 131.074C417.173 129.821 428.551 128.319 439.908 126.566C453.284 124.515 461.87 107.025 457.927 94.8402C453.21 80.273 440.535 74.623 426.201 76.8216C424.088 77.1532 421.988 77.4603 419.875 77.7674L418.352 77.9885C413.496 78.6026 408.641 79.1758 403.785 79.708C393.754 80.7889 383.699 81.6733 373.619 82.3611C351.043 83.9333 328.406 84.6579 305.782 84.6948C283.55 84.6948 261.307 84.0683 239.124 82.6067C229.003 81.9435 218.907 81.1 208.835 80.0765C204.254 79.5975 199.685 79.0939 195.115 78.5289L190.767 77.9762L189.822 77.8411L185.314 77.1901C176.102 75.8022 166.89 74.2054 157.776 72.2771C156.857 72.073 156.034 71.5613 155.444 70.8266C154.855 70.0919 154.533 69.1781 154.533 68.2361C154.533 67.294 154.855 66.3802 155.444 65.6455C156.034 64.9107 156.857 64.3991 157.776 64.1951H157.948C165.846 62.5123 173.805 61.0753 181.789 59.8225C184.45 59.4048 187.119 58.9954 189.797 58.5942H189.871C194.87 58.2626 199.893 57.3659 204.868 56.7763C248.148 52.2745 291.685 50.7397 335.174 52.1827C356.288 52.7968 377.39 54.0373 398.405 56.1745C402.925 56.6413 407.421 57.1326 411.916 57.6853C413.636 57.8941 415.367 58.1397 417.099 58.3485L420.588 58.8521C430.758 60.367 440.874 62.2053 450.938 64.367C465.849 67.6097 484.998 68.6659 491.63 85.0018C493.743 90.1851 494.701 95.9457 495.868 101.387L497.354 108.327C497.393 108.451 497.422 108.578 497.44 108.707C500.953 125.084 504.47 141.461 507.991 157.838C508.249 159.048 508.255 160.298 508.009 161.51C507.762 162.722 507.269 163.871 506.559 164.884C505.849 165.897 504.938 166.753 503.882 167.398C502.827 168.043 501.65 168.464 500.425 168.634H500.326L498.177 168.929L496.052 169.212C489.321 170.088 482.582 170.907 475.835 171.668C462.545 173.183 449.235 174.493 435.904 175.599C409.415 177.801 382.872 179.246 356.276 179.934C342.724 180.295 329.176 180.462 315.633 180.438C261.724 180.395 207.862 177.262 154.312 171.054C148.515 170.366 142.718 169.629 136.92 168.88C141.416 169.457 133.653 168.438 132.081 168.217C128.396 167.701 124.711 167.164 121.027 166.608C108.658 164.753 96.3631 162.468 84.019 160.466C69.0956 158.01 54.8232 159.238 41.3246 166.608C30.2443 172.671 21.2763 181.969 15.6171 193.261C9.7951 205.298 8.06326 218.403 5.45934 231.337C2.85542 244.271 -1.19786 258.187 0.337468 271.464C3.6415 300.12 23.6745 323.408 52.4895 328.616C79.5973 333.529 106.852 337.508 134.181 340.898C241.535 354.046 349.991 355.619 457.681 345.59C466.451 344.771 475.208 343.879 483.954 342.913C486.685 342.612 489.449 342.927 492.043 343.834C494.637 344.74 496.996 346.215 498.946 348.151C500.896 350.087 502.389 352.435 503.314 355.022C504.239 357.61 504.574 360.372 504.294 363.105L501.567 389.611C496.073 443.172 490.578 496.728 485.084 550.28C479.352 606.518 473.583 662.752 467.777 718.982C466.14 734.818 464.502 750.651 462.864 766.479C461.292 782.066 461.071 798.144 458.111 813.546C453.444 837.767 437.046 852.642 413.12 858.083C391.2 863.071 368.807 865.69 346.327 865.895C321.405 866.03 296.496 864.924 271.575 865.059C244.971 865.207 212.385 862.75 191.848 842.951C173.805 825.558 171.312 798.328 168.855 774.782C165.58 743.609 162.333 712.439 159.115 681.274L141.06 507.979L129.379 395.851C129.182 393.996 128.986 392.166 128.802 390.299C127.401 376.923 117.931 363.83 103.008 364.505C90.2341 365.07 75.716 375.928 77.2145 390.299L85.8737 473.428L103.782 645.385C108.883 694.228 113.972 743.081 119.049 791.941C120.032 801.3 120.953 810.684 121.985 820.043C127.598 871.188 166.657 898.751 215.026 906.513C243.276 911.058 272.213 911.991 300.881 912.458C337.631 913.048 374.749 914.46 410.897 907.803C464.461 897.977 504.65 862.21 510.386 806.729C512.024 790.713 513.661 774.692 515.299 758.667C520.744 705.672 526.181 652.672 531.61 599.669L549.371 426.483L557.514 347.113C557.92 343.178 559.582 339.477 562.254 336.559C564.927 333.642 568.467 331.662 572.352 330.912C587.668 327.928 602.309 322.83 613.204 311.174C630.547 292.615 633.998 268.418 627.869 244.025ZM51.7034 261.147C51.9368 261.036 51.5069 263.039 51.3227 263.972C51.2858 262.56 51.3595 261.307 51.7034 261.147ZM53.1897 272.644C53.3125 272.558 53.6809 273.049 54.0617 273.638C53.4844 273.098 53.116 272.693 53.1774 272.644H53.1897ZM54.6513 274.572C55.1794 275.469 55.4619 276.034 54.6513 274.572V274.572ZM57.5868 276.955H57.6605C57.6605 277.041 57.7956 277.127 57.8447 277.213C57.7633 277.118 57.6728 277.032 57.5746 276.955H57.5868ZM571.639 273.393C566.137 278.625 557.846 281.057 549.653 282.273C457.779 295.907 364.567 302.81 271.685 299.764C205.212 297.491 139.438 290.109 73.6279 280.812C67.1795 279.903 60.1907 278.723 55.7567 273.97C47.4045 265.004 51.5069 246.948 53.6809 236.115C55.6707 226.191 59.4783 212.962 71.2819 211.55C89.7059 209.388 111.102 217.163 129.33 219.927C151.275 223.276 173.301 225.957 195.41 227.972C289.765 236.569 385.705 235.231 479.642 222.653C496.764 220.352 513.825 217.679 530.824 214.633C545.969 211.918 562.759 206.821 571.91 222.506C578.186 233.192 579.021 247.489 578.051 259.563C577.752 264.823 575.454 269.771 571.627 273.393H571.639Z" fill="#0D0C22"></path>
</svg>
