<?xml version="1.0" encoding="utf-8"?>
<!-- Generator: Adobe Illustrator 16.0.0, SVG Export Plug-In . SVG Version: 6.00 Build 0)  -->
<!DOCTYPE svg PUBLIC "-//W3C//DTD SVG 1.1//EN" "http://www.w3.org/Graphics/SVG/1.1/DTD/svg11.dtd">
<svg version="1.1" id="Layer_1" xmlns="http://www.w3.org/2000/svg" xmlns:xlink="http://www.w3.org/1999/xlink" x="0px" y="0px"
	 width="512px" height="512px" viewBox="0 0 512 512" enable-background="new 0 0 512 512" xml:space="preserve">
<g>
	<g>
		<path fill="none" d="M38.593,257.598c0-82.958,0.082-165.917-0.168-248.875c-0.018-6.054,1.676-6.999,7.233-6.992
			c141.462,0.162,282.924,0.16,424.387,0.002c5.524-0.005,7.253,0.891,7.245,6.976c-0.208,165.917-0.208,331.834,0.008,497.75
			c0.007,5.823-1.519,6.534-6.773,6.529c-141.771-0.162-283.544-0.192-425.314,0.068c-6.641,0.015-6.71-2.468-6.703-7.515
			C38.628,422.895,38.593,340.245,38.593,257.598z M260.866,285.964c10.141,4.931,21.889,4.769,31.362,9.369
			c55.073,26.755,109.601,54.642,164.422,81.923c3.939,1.962,9.771,8.266,12.629,2.803c3.292-6.293-5.454-7.562-9.529-9.635
			c-53.496-27.183-107.113-54.13-160.799-80.938c-5.166-2.58-8.48-5.646-8.953-11.612c-0.375-4.754-1.74-9.481-6.771-11.272
			c-9.022-3.215-10.759-10.833-12.824-18.813c-5.398-20.868-8.34-42.564-20.062-61.395c-10.877-17.473-17.627-36.732-24.11-56.114
			c-2.353-7.034-4.689-14.337-10.268-19.527c-4.126-3.836-4.344-6.012-0.055-10.178c10.644-10.338,20.065-21.549,12.093-38.038
			c-0.104-0.218,0.629-0.84,1.093-1.43c4.637,2.163,4.297,9.193,8.276,10.396c4.869,1.476,8.741-3.598,12.599-6.251
			c8.348-5.743-4.204-6.696-2.855-11.579c4.414-0.542,11.363,0.562,11.326-5.996c-0.03-5.799-6.821-3.517-10.505-4.68
			c-10.311-3.257-21.318-6.938-24.476-17.842C219.675,12.09,210.69,8.947,199.546,7.319c-7.324-1.069-14.637-2.711-21.993-2.959
			c-22.594-0.764-30.087,5.582-35.058,28.009c-3.763,16.979-2.633,34.917-11.561,50.971c-3.795,6.827,0.197,13.858,5.986,18.966
			c3.03,2.671,4.47,5.05,0.298,7.957c-6.725,4.688-9.327,12.107-12.479,19.163c-5.414,12.111-9.53,24.799-16.626,36.166
			c-4.587,7.351-8.118,16.063-19.29,8.707c-1.071-0.706-3.042,0.127-4.454-0.265c-7.594-2.107-15.475-0.644-23.084-1.983
			c-2.975-0.524-6.007-2.905-8.02,1.087c-2.276,4.517,2.07,5.743,4.497,6.324c13.404,3.215,16.579,15.35,17.688,25.149
			c1.883,16.627,11.911,25.241,24.223,32.696c10.664,6.457,19.359,4.023,26.346-6.237c1.903-2.794,3.749-5.8,4.766-8.982
			c1.54-4.812,4.345-4.301,7.868-2.831c7.414,3.09,8.123,8.438,0.907,15.102c-10.006,9.238-20.13,18.328-29.115,28.584
			c-15.137,17.274-29.115,35.351-37.826,56.896c-1.744,4.315-3.644,8.978-1.239,13.444c8.922,16.572,15.611,34.318,27.305,49.455
			c7.647,9.9,16.272,18.461,26.033,26.231c13.748,10.946,13.669,17.229,1.207,29.091c-8.528,8.12-17.159,16.068-27.355,22.133
			c-1.968,1.17-5.242,1.684-4.765,4.918c0.406,2.76,3.224,3.538,5.414,4.585c7.793,3.722,15.771,4.762,24.321,2.521
			c14.643-3.834,25.234-13.956,36.876-22.602c7.292-5.414,7.976-10.797,2.667-17.927c-11.06-14.855-15.388-32.099-17.443-50.194
			c-2.032-17.883-4.312-35.782-17.935-49.551c-3.942-3.982,0.142-6.232,2.449-8.187c8.016-6.782,15.831-13.803,24.713-19.559
			c5.57-3.611,11.091-3.386,17.418-3.595c21.403-0.711,34.76,11.192,46.462,26.649c4.479,5.918,9.166,11.687,13.489,17.711
			c5.21,7.267,9.511,15.33,18.859,18.366c3.063,0.994,3.654,4.043,4.463,6.668c2.362,7.667,6.87,13.833,13.112,18.711
			c15.112,11.803,30.184,23.667,45.519,35.177c7.084,5.318,10.148,11.681,9.597,20.644c-0.785,12.739-3.08,25.152-6.562,37.33
			c-3.806,13.306-0.879,18.16,12.864,19.246c5.851,0.463,11.666,0.558,17.435-1.438c15.684-5.414,16.912-8.28,10.129-23.608
			c-10.233-23.116-20.526-46.213-30.365-69.497c-8.366-19.802-10.896-42.062-25.152-59.412c-0.787-0.957-0.467-2.95-0.417-4.453
			c0.481-14.453-4.39-25.622-17.812-32.91C274.152,304.495,265.795,297.143,260.866,285.964z"/>
		<path d="M260.866,285.964c4.929,11.179,13.286,18.531,23.034,23.824c13.42,7.288,18.293,18.457,17.811,32.91
			c-0.05,1.503-0.371,3.497,0.417,4.452c14.259,17.351,16.786,39.61,25.152,59.414c9.839,23.283,20.132,46.38,30.363,69.495
			c6.785,15.329,5.557,18.195-10.128,23.609c-5.768,1.993-11.584,1.898-17.434,1.438c-13.743-1.085-16.67-5.94-12.864-19.246
			c3.482-12.178,5.777-24.592,6.562-37.33c0.554-8.963-2.515-15.323-9.599-20.644c-15.334-11.51-30.402-23.374-45.517-35.177
			c-6.242-4.878-10.75-11.044-13.112-18.711c-0.81-2.625-1.4-5.674-4.463-6.668c-9.349-3.036-13.649-11.103-18.859-18.366
			c-4.323-6.025-9.009-11.793-13.489-17.711c-11.702-15.457-25.059-27.359-46.462-26.65c-6.328,0.209-11.849-0.018-17.418,3.596
			c-8.882,5.756-16.697,12.775-24.713,19.559c-2.307,1.952-6.391,4.202-2.449,8.186c13.623,13.77,15.903,31.671,17.935,49.552
			c2.055,18.098,6.383,35.339,17.443,50.194c5.308,7.13,4.624,12.513-2.667,17.927c-11.642,8.646-22.233,18.768-36.876,22.602
			c-8.55,2.239-16.528,1.199-24.321-2.521c-2.19-1.047-5.008-1.825-5.414-4.585c-0.477-3.234,2.797-3.748,4.765-4.918
			c10.196-6.062,18.828-14.013,27.355-22.132c12.463-11.863,12.541-18.146-1.207-29.092c-9.761-7.771-18.386-16.33-26.033-26.23
			C86.989,367.6,80.3,349.855,71.377,333.282c-2.404-4.468-0.504-9.13,1.239-13.444c8.711-21.545,22.689-39.619,37.826-56.896
			c8.985-10.255,19.109-19.344,29.115-28.583c7.216-6.664,6.506-12.011-0.907-15.102c-3.522-1.47-6.328-1.981-7.868,2.831
			c-1.018,3.183-2.863,6.188-4.766,8.982c-6.986,10.26-15.682,12.693-26.346,6.237c-12.312-7.455-22.34-16.068-24.223-32.696
			c-1.109-9.799-4.284-21.934-17.688-25.149c-2.426-0.581-6.773-1.808-4.497-6.324c2.013-3.992,5.045-1.611,8.02-1.087
			c7.609,1.339,15.49-0.124,23.084,1.983c1.412,0.392,3.383-0.441,4.454,0.265c11.172,7.357,14.702-1.355,19.29-8.707
			c7.096-11.367,11.212-24.055,16.626-36.166c3.153-7.055,5.754-14.475,12.479-19.163c4.172-2.907,2.732-5.286-0.298-7.957
			c-5.79-5.108-9.782-12.14-5.986-18.966c8.928-16.054,7.798-33.992,11.561-50.971c4.97-22.427,12.464-28.773,35.058-28.009
			c7.355,0.249,14.668,1.891,21.993,2.959c11.145,1.628,20.129,4.771,23.911,17.834c3.158,10.904,14.165,14.584,24.476,17.842
			c3.684,1.163,10.474-1.12,10.507,4.68c0.035,6.558-6.915,5.453-11.328,5.996c-1.348,4.883,11.203,5.836,2.855,11.579
			c-3.858,2.653-7.73,7.727-12.599,6.251c-3.979-1.203-3.639-8.233-8.276-10.396c-0.464,0.59-1.198,1.212-1.093,1.43
			c7.973,16.489-1.449,27.7-12.093,38.038c-4.29,4.167-4.071,6.342,0.055,10.178c5.579,5.19,7.915,12.494,10.268,19.527
			c6.482,19.382,13.233,38.641,24.11,56.114c11.724,18.831,14.662,40.526,20.062,61.395c2.064,7.98,3.801,15.602,12.824,18.814
			c5.029,1.791,6.396,6.52,6.771,11.271c0.472,5.969,3.787,9.031,8.953,11.611c53.686,26.809,107.303,53.756,160.799,80.938
			c4.075,2.071,12.821,3.342,9.529,9.635c-2.857,5.465-8.688-0.841-12.63-2.803c-54.82-27.281-109.348-55.168-164.423-81.923
			C282.755,290.73,271.007,290.895,260.866,285.964z M256.984,266.303c-3.445-8.927-8.743-14.572-13.82-20.17
			c-12.271-13.533-20.843-28.774-24.774-46.785c-1.693-7.758-5.08-15.158-7.872-22.656c-0.485-1.303-1.647-2.909-2.837-3.279
			c-2.372-0.741-2.849,1.804-3.694,3.243c-6.737,11.458-5.757,26.975,3.014,37.2c11.068,12.902,21.472,26.212,29.952,40.995
			C240.88,261.699,247.231,264.947,256.984,266.303z"/>
		<path fill="none" d="M256.984,266.303c-9.753-1.354-16.104-4.604-20.032-11.452c-8.48-14.782-18.884-28.093-29.952-40.995
			c-8.771-10.225-9.751-25.742-3.014-37.2c0.846-1.439,1.323-3.983,3.694-3.243c1.19,0.37,2.352,1.976,2.837,3.279
			c2.792,7.498,6.179,14.898,7.872,22.656c3.932,18.01,12.504,33.251,24.774,46.785
			C248.241,251.731,253.539,257.376,256.984,266.303z"/>
	</g>
</g>
<g>
	<g>
		<g>
			<path fill="#B22222" d="M358.285,6.351c11.017,0,22.032,0,33.048,0c0.836,0.181,1.664,0.408,2.509,0.536
				c7.211,1.096,12.65,6.395,13.473,13.294c0.3,2.512,0.479,5.051,0.484,7.577c0.037,22.813,0.018,45.626,0.026,68.439
				c0.001,4.193,0.27,4.45,4.681,4.451c20.295,0.008,40.589,0.003,60.886,0.005c4.902,0,9.804-0.017,14.705,0.029
				c11.224,0.105,17.686,5.996,18.596,14.711c0.034,0.318,0.202,0.623,0.308,0.934c0,10.638,0,21.275,0,31.914
				c-0.142,0.471-0.369,0.935-0.415,1.413c-0.707,7.485-6.96,13.498-15.668,14.041c-1.716,0.107-3.435,0.211-5.152,0.211
				c-24.349,0.014-48.699,0.008-73.047,0.013c-4.709,0-4.894,0.182-4.896,4.746c-0.004,22.742,0.016,45.485-0.024,68.227
				c-0.005,2.609-0.171,5.237-0.53,7.821c-0.645,4.635-3.127,8.225-7.287,10.772c-3.559,2.179-7.554,2.649-11.627,2.675
				c-8.519,0.059-17.035,0.027-25.553,0.021c-14.746-0.015-20.993-5.979-20.999-20.073c-0.008-23.151,0-46.304-0.005-69.454
				c-0.001-4.555-0.185-4.735-4.904-4.736c-24.349-0.004-48.697,0.01-73.047-0.023c-2.312-0.003-4.648-0.146-6.938-0.467
				c-5.461-0.767-9.664-3.426-12.073-8.201c-1.025-2.033-1.494-4.323-2.215-6.497c0-10.802,0-21.603,0-32.404
				c0.189-0.794,0.428-1.583,0.563-2.385c1.153-6.86,6.729-12.031,13.981-12.812c2.643-0.284,5.312-0.455,7.97-0.459
				c23.992-0.034,47.985-0.017,71.979-0.024c4.408-0.001,4.68-0.259,4.681-4.451c0.009-19.297,0.003-38.594,0.006-57.892
				c0-4.661-0.017-9.321,0.031-13.983c0.109-10.67,6.306-16.816,15.473-17.68C357.637,6.612,357.958,6.451,358.285,6.351z"/>
		</g>
	</g>
</g>
</svg>
