<svg xmlns="http://www.w3.org/2000/svg" width="500" height="500" viewBox="0 0 500 500"><g fill-rule="evenodd" clip-rule="evenodd"><path fill='firebrick' d="M158.121 315.812c7.213 1.829 14.438 3.614 21.624 5.544.923.248 1.712 1.179 2.449 1.909 5.397 5.359 10.762 10.753 16.148 16.123.787.785 1.638 1.507 3.199 1.921-.823-3.748-1.382-7.579-2.52-11.229-3.073-9.862-6.41-19.642-9.61-29.464-4.505-13.83-9.691-27.513-11.287-42.083-1.754-16.021-2.648-31.992 4.74-47.204 7.743-15.941 19.643-27.071 36.678-32.18 9.408-2.822 19.201-2.606 28.926-2.057 3.792.214 7.565.729 11.351 1.066 1.957.174 3.009.853 3.637 3.058 2.393 8.398 5.158 16.689 7.911 25.424-7.278-1.167-14.267-2.288-21.256-3.408l-.377.653c.728.801 1.424 1.634 2.187 2.399 8.435 8.449 16.929 16.838 25.267 25.38 1.307 1.338 2.398 3.264 2.755 5.082 1.148 5.853 1.906 11.781 2.815 17.682l-1.081.484c-1.964-2.231-3.816-4.574-5.91-6.677-14.313-14.372-28.658-28.713-43.077-42.979-.821-.813-2.572-1.5-3.557-1.19-3.729 1.178-7.322 2.791-11.51 4.457 1.572 1.656 2.405 2.573 3.28 3.448 11.5 11.509 23.045 22.973 34.497 34.529 7.938 8.012 15.717 16.183 23.652 24.198 1.417 1.433 1.6 2.579.286 4.033-.424.47-.788.994-1.215 1.461-5.054 5.533-6.188 5.557-11.346.386-8.43-8.452-16.921-16.845-25.311-25.338-10.006-10.131-19.931-20.343-29.899-30.512-.729-.745-1.528-1.421-2.86-2.651-1.755 4.097-3.468 7.785-4.857 11.59-.283.776.388 2.237 1.066 2.967 2.731 2.939 5.658 5.694 8.475 8.554 13.327 13.531 26.643 27.074 39.958 40.618.495.504.937 1.061 1.081 2.357-5.593-1.253-11.164-2.617-16.786-3.718-3.573-.699-6.295-2.419-8.822-5.039-7.406-7.679-15.038-15.141-22.589-22.68-.802-.801-1.654-1.552-2.484-2.327l-.858.294c1.022 5.269 1.597 10.674 3.152 15.782 4.388 14.418 9.14 28.727 13.822 43.055 4.041 12.365 7.394 24.842 8.16 37.934.702 11.994-.744 23.557-5.313 34.728-3.674 8.982-8.56 17.169-15.126 24.325-4.973 5.418-12.084 6.258-17.667 2.135-5.442-4.018-6.65-11.271-2.9-17.552.859-1.438 1.799-2.83 2.868-4.504-20.694-20.979-41.476-42.045-62.682-63.542 3.658-2.05 6.892-3.974 10.25-5.647.657-.327 2.114-.004 2.665.553 8.538 8.61 16.939 17.354 25.468 25.975 10.319 10.432 20.729 20.774 31.812 31.87 1.59-4.816 3.053-8.998 4.28-13.247.177-.612-.647-1.688-1.249-2.318-2.332-2.445-4.782-4.777-7.151-7.188-11.384-11.589-22.758-23.188-34.128-34.791-.495-.505-.916-1.081-1.371-1.624l.34-.825z"/><path fill="darkgoldenrod" d="M232.053 295.376c5.683 1.245 10.929 2.913 16.288 3.446 7.605.758 15.451 2.379 22.896-.319 10.821-3.922 19.804-10.412 24.46-21.409 2.817-6.655 2.445-13.836 2.231-20.906-.518-17.034-5.166-33.229-10.02-49.394-3.904-13-8.431-25.882-11.25-39.121-4.019-18.865-2.528-37.633 5.746-55.34 2.782-5.954 6.356-11.647 10.283-16.927 4.629-6.222 12.22-6.97 17.913-2.558 5.451 4.224 6.603 12.764 2.158 18.502-10.314 13.317-12.284 28.762-11.842 44.874.332 12.041 5.338 22.911 8.729 34.166 4.986 16.547 9.863 33.115 12.233 50.278 1.767 12.798 2.786 25.791-.205 38.413-4.647 19.604-16.733 33.418-35.321 41.474-11.636 5.044-23.827 4.839-36.088 4.109-2.835-.168-5.664-.565-8.474-.999-.683-.106-1.689-.653-1.854-1.205-2.677-8.954-5.244-17.941-7.883-27.084z"/><path fill='firebrick'  d="M384.819 189.933c1.241-.94 2.08-1.557 2.899-2.199 5.873-4.594 13.611-4.004 18.187 1.392 4.585 5.409 4.111 13.781-1.269 18.588-8.922 7.969-19.426 12.951-30.953 15.883-11.924 3.033-23.989 3.302-36.153 1.906-1.705-.195-2.608-.852-3.047-2.557-2.255-8.771-4.603-17.517-6.994-26.56 3.483.763 6.862 1.504 10.241 2.245l.558-.951c-4.356-4.239-8.782-8.411-13.028-12.759-1.188-1.218-2.235-2.85-2.675-4.474-1.627-5.999-2.981-12.073-4.411-18.125-.155-.661-.132-1.364-.282-3.077 5.357 5.465 10.042 10.295 14.784 15.068 7.518 7.567 15.021 15.15 22.678 22.577 1.015.984 2.949 1.661 4.342 1.495 4.155-.494 8.252-1.478 13.024-2.396-1.169-1.286-1.807-2.048-2.506-2.749-11.422-11.431-22.886-22.819-34.264-34.292-5.931-5.98-11.731-12.09-17.528-18.202-.562-.593-1.129-1.744-.929-2.404 1.214-4 2.649-7.931 4.215-12.477 21.303 21.626 42.094 42.731 63.111 64.068z"/><path fill="darkgoldenrod" d="M173.685 302.842c-7.125-1.099-13.943-2.508-20.833-3.139-15.15-1.387-27.745 4.797-39.074 14.149-8.25 6.811-19.45 2.861-21.248-7.669-.762-4.463.858-8.597 4.016-11.5 15.922-14.642 34.6-22.209 56.462-21.018 3.365.184 6.735.458 10.067.94.888.129 2.115 1.024 2.386 1.836 2.835 8.478 5.509 17.01 8.212 25.531.089.28.012.611.012.87z"/></g></svg>
