<svg xmlns="http://www.w3.org/2000/svg" width="500" height="500" viewBox="0 0 500 500"><path fill-rule="evenodd" clip-rule="evenodd" d="M169.002 280.413c-9.089-16.566-10.176-31.525 4.713-45.363 12.431-11.554 25.143-13.787 41.001-3.515-2.657-7.752-4.883-13.705-6.745-19.769-9.059-29.518-18.497-58.935-26.686-88.694-2.084-7.576-1.083-16.445.294-24.41 1.476-8.536 7.389-14.653 15.762-17.78 8.977-3.353 17.612-2.686 23.414 5.442 7.167 10.038 14.71 20.231 19.488 31.465 11.155 26.227 20.76 53.113 30.977 79.738.908 2.367 1.703 4.777 2.985 8.389 4.011-11.266 7.121-21.576 11.306-31.43 9.14-21.524 18.533-42.953 28.473-64.116 2.869-6.109 7.628-11.456 12.079-16.675 13.435-15.751 33.8-6.352 39.218 7.793 3.304 8.629 3.59 17.536 1.057 26.131-9.173 31.123-18.811 62.109-28.29 93.141-.627 2.053-1.396 4.062-2.34 6.786 2.812.845 5.359 1.577 7.886 2.375 13.04 4.124 22.935 12.05 26.527 25.479 14.069 52.597-.272 134.889-76.765 164.201-48.335 18.524-108.439 9.374-145.096-42.483-12.374-17.504-18.238-36.866-15.879-58.484 2.136-19.579 12.853-31.544 31.641-36.648 1.309-.355 2.589-.814 4.98-1.573zm-5.116 45.143c3.735 4.796 6.798 9.11 10.258 13.076 4.516 5.177 8.824 10.765 14.215 14.87 3.989 3.038 9.465 5.202 14.454 5.607 8.75.712 13.506-6.656 9.673-14.397-8.478-17.124-20.104-31.995-34.389-44.644-6.228-5.514-12.527-5.547-18.44.425-4.283 4.325-8.017 9.81-10.191 15.47-3.681 9.587-1.719 19.49 1.867 28.855 30.365 79.289 123.488 83.207 168.329 39.33 31.881-31.196 41.302-69.396 37.407-112.357-1.383-15.252-9.346-24.812-23.694-28.92-13.221-3.786-26.484-7.984-40.026-9.938-15.71-2.266-31.736-2.737-47.645-3.082-8.018-.174-11.117 4.129-11.203 12.113-.113 10.508 5.136 18.168 14.41 21.69 9.457 3.592 19.545 6.209 29.579 7.42 12.857 1.552 25.933 1.359 38.92 1.746 7.437.222 10.722 2.011 11.496 7.45.83 5.832-4.621 6.122-7.925 7.804-5.949 3.027-12.338 5.182-18.362 8.076-32.794 15.758-46.571 47.178-35.922 81.616.639 2.066 1.417 4.125 1.73 6.248.296 2.007.063 4.093.063 7.358-22.702-8.205-20.934-27.803-23.354-44.203-5.089.311-9.846.602-14.811.904-.015.127-.274.744-.114 1.221 5.324 15.854-10.64 32.229-29.006 27.301-18.475-4.957-31.183-17.045-38.458-34.6-2.02-4.878-2.587-10.292 1.139-16.439zm94.958-110.367c-.607-2.055-1.076-3.882-1.685-5.662-3.633-10.611-7.177-21.254-10.976-31.806-7.797-21.659-15.508-43.355-23.774-64.836-2.065-5.367-5.428-10.625-9.404-14.774-5.823-6.075-14.943-3.474-17.211 4.65-1.071 3.836-1.513 8.419-.478 12.177 6.315 22.921 12.879 45.782 19.896 68.498 3.614 11.698 8.335 23.054 12.585 34.646 10.104-6.951 20.514-2.212 31.047-2.893zm59.008 8.496c.573-1.055 1.05-1.692 1.29-2.409 10.082-29.993 20.231-59.963 30.115-90.022 1.578-4.8 2.453-9.966 2.756-15.016.345-5.755-1.272-11.14-7.541-13.314-6.111-2.12-10.571 1.21-13.563 5.782-4.174 6.379-8.321 13.004-11.017 20.081-7.624 20.019-14.529 40.311-21.663 60.516-3.373 9.556-6.619 19.156-10.093 29.229l29.716 5.153zm-71.31 95.268c-.147-.774-.3-2.356-.753-3.848-6.572-21.618-15.994-41.885-29.602-59.981-3.237-4.304-7.558-8.058-12.036-11.098-5.899-4.006-10.693-3.191-16.202 1.323-9.237 7.572-11.094 13.907-6.046 24.873 9.407 20.434 22.687 38.154 39.271 53.335 2.722 2.492 5.926 4.629 9.232 6.275 7.693 3.832 15.985-1.492 16.136-10.879zm14.601-8.617c7.879-7.346 15.535-14.484 23.024-21.468-11.198-2.052-22.564-4.135-33.771-6.188 3.574 9.196 7.182 18.484 10.747 27.656z"/></svg>