<svg xmlns="http://www.w3.org/2000/svg" fill='rgb(50,50,50)' width="500" height="500" viewBox="0 0 500 500">

  <path d="M123 379v-256h256v256h-256zm147.695-163.269c-28.119 18.115-59.092 27.566-91.062 35.062 32.003 7.554 63.125 17.013 91.142 35.229-4.996-9.528-9.994-19.056-15.486-29.528h67.959v-11.687h-67.791c5.313-10.138 10.275-19.607 15.238-29.076z" fill="none"/>

  <path fill-rule="evenodd" clip-rule="evenodd" d="M270.695 215.731c-4.963 9.469-9.926 18.938-15.238 29.076h67.791v11.687h-67.959c5.492 10.473 10.49 20 15.486 29.528-28.017-18.216-59.138-27.675-91.142-35.229 31.971-7.496 62.944-16.947 91.062-35.062z"/>

</svg>
