<svg xmlns="http://www.w3.org/2000/svg" width="500" height="500" viewBox="0 0 500 500"><g fill-rule="evenodd" clip-rule="evenodd"><path fill="#F15A24" d="M344.121 332.729c-2.621 3.108-5.454 6.608-8.434 9.979-12.696 14.367-27.044 26.784-43.421 36.836-2.146 1.316-3.823 1.384-6.064.332-19.542-9.173-37.488-20.883-54.301-34.327-35.108-28.074-65.538-60.413-89.136-98.873-7.325-11.938-13.508-24.442-18.066-37.724-.698-2.036-.529-3.608.7-5.459 11.435-17.227 25.551-31.957 41.516-44.991.563-.46 1.228-.798 2.034-1.313 2.972 12.905 9.375 23.466 19.448 31.604 3.302 2.668 6.986 5.144 10.892 6.734 12.942 5.269 19.319 15.213 20.873 28.522 2.021 17.321 8.567 32.293 22.06 43.654 9.72 8.185 21.01 12.6 33.895 12.773 12.714.172 21.655 6.91 27.616 17.517 6.165 10.97 13.729 20.527 24.571 27.042 4.951 2.975 10.413 5.1 15.817 7.694z"/><path fill="#00f" d="M255.154 111.277c4.504 7.323 8.667 14.696 13.397 21.684 31.335 46.275 70.34 84.723 117.673 114.572 2.28 1.438 2.849 2.554 1.942 5.189-8.242 23.983-19.612 46.339-34.225 67.068-1.357 1.926-2.666 2.467-4.921 1.952-15.776-3.602-26.763-13.296-34.368-27.131-6.923-12.593-16.647-21.567-31.03-24.489-4.492-.913-9.276-.394-13.766-1.319-20.027-4.127-31.562-17.207-36.896-36.278-1.412-5.05-1.563-10.441-2.784-15.559-3.477-14.577-11.75-25.003-25.781-31.293-14.224-6.376-22.36-18.034-25.07-33.411-.32-1.816-.195-3.226 1.623-4.507 22.38-15.769 46.51-27.976 72.697-36.053.512-.158 1.032-.291 1.509-.425zm35.864 110.15c.061-6.147-4.874-11.112-11.057-11.125-6.03-.012-10.886 4.821-10.916 10.867-.03 6.133 4.634 10.982 10.668 11.091 6.233.112 11.244-4.69 11.305-10.833zm41.375 47.761c.01 6.05 4.834 10.928 10.843 10.966 6.106.039 11.169-4.993 11.157-11.09-.012-5.879-5.044-10.937-10.939-10.994-6.143-.06-11.073 4.895-11.061 11.118zm-99.615-100.929c6.098.017 10.95-4.676 11.087-10.722.136-6.038-4.923-11.234-10.973-11.271-6.023-.037-11.159 5.125-11.104 11.16.056 5.996 4.945 10.817 10.99 10.833z"/><path fill="#006837" d="M115.243 221.328c35.088 72.768 89.551 126.969 159.499 167.489-6.102 2.005-12.062 4.323-18.208 5.923-32.847 8.553-63.656 3.263-91.902-15.175-29.544-19.286-50.429-45.409-58.949-80.215-6.663-27.212-2.302-53.242 9.56-78.022z"/><path fill="#F7931E" d="M267.351 107.612c6.781-1.21 12.775-2.456 18.824-3.326 17.361-2.497 34.709-2.592 51.776 1.896 33.114 8.707 52.268 30.532 58.644 63.803 4.224 22.039 1.735 43.82-3.523 65.4-.102.418-.334.805-.739 1.755-51.426-33.589-93.366-75.95-124.982-129.528z"/></g></svg>