<?xml version="1.0" encoding="utf-8"?>
<!-- Generator: Adobe Illustrator 16.0.0, SVG Export Plug-In . SVG Version: 6.00 Build 0)  -->
<!DOCTYPE svg PUBLIC "-//W3C//DTD SVG 1.1//EN" "http://www.w3.org/Graphics/SVG/1.1/DTD/svg11.dtd">
<svg version="1.1" id="Layer_1" xmlns="http://www.w3.org/2000/svg" xmlns:xlink="http://www.w3.org/1999/xlink" x="0px" y="0px"
	 width="500px" height="500px" viewBox="0 0 500 500" enable-background="new 0 0 500 500" xml:space="preserve">
<g id="info-icon.psd">
	<g>
		<path fill-rule="evenodd" clip-rule="evenodd" fill="#817B49" d="M305.645,474.369c-45.625,12.048-90.657,8.794-134.125-8.311
			C76.213,428.558,20.315,340.595,25.326,238.241c5.229-106.821,92.037-199.22,198.508-211.29
			c124.683-14.135,231.6,65.087,254.12,188.562c1.816,9.963,1.822,20.255,2.671,30.394c-22.508-18.885-45.107-37.662-67.5-56.682
			c-28.835-24.495-57.478-49.217-86.318-73.708c-1.609-1.367-4.256-1.513-6.419-2.228c-1.621-2.16-3.146-4.4-4.877-6.467
			c-11.42-13.638-31.169-18.08-48.137-10.883c-16.303,6.916-25.076,21.438-23.48,38.79c1.244,13.514,10.178,21.586,20.3,28.836
			c1.467,2.543,2.374,5.76,4.492,7.521c13.005,10.817,26.398,21.165,39.449,31.929c52.746,43.506,105.414,87.107,158.112,130.672
			c-3.745,8.524-7.491,17.049-11.238,25.573c-1.611-11.133-11.603-13.24-18.97-18.784c-17.513-13.179-33.927-27.825-50.661-42.023
			c-24.209-20.539-48.229-41.302-72.511-61.754c-6.594-5.554-13.839-10.335-20.785-15.471
			c-10.187-13.991-24.557-19.371-41.226-20.216c-20.244-1.028-38.451,6.585-56.852,13.292c-8.898,3.243-12.164,11.131-9.41,21.477
			c3.985,5.899,7.479,12.214,12.061,17.607c8.542,10.052,17.717,19.565,26.627,29.304c-6.226,24.333-13.621,48.441-18.376,73.059
			c-5.722,29.62,1.93,42.606,28.67,55.446c1.52,2.493,2.505,5.655,4.65,7.368c12.637,10.094,25.781,19.561,38.284,29.812
			C286.567,456.62,295.959,465.675,305.645,474.369z"/>
		<path fill-rule="evenodd" clip-rule="evenodd" fill="#68633B" d="M292.083,221.229c6.946,5.136,14.191,9.917,20.785,15.471
			c24.282,20.452,48.302,41.215,72.511,61.754c16.734,14.198,33.148,28.845,50.661,42.023c7.367,5.544,17.358,7.651,18.97,18.784
			c-7.738,15.164-4.833,30.01,0.287,45.311c6.354,18.996,11.602,38.368,17.108,57.639c3.232,11.312-0.402,15.047-11.62,11.677
			c-22.124-6.648-44.323-13.132-66.12-20.746c-13.714-4.791-25.605-1.854-38.325,3.365c-16.555,6.793-33.769,11.979-50.697,17.858
			c-9.684-8.69-19.075-17.745-29.132-25.988c-12.503-10.251-25.647-19.718-38.284-29.812c-2.145-1.713-3.13-4.875-4.65-7.368
			c25.077,6.049,48.436-0.043,71.414-9.749c11.466-4.842,14.12-8.754,12.858-21.815c-5.913,1.418-11.781,3.17-17.775,4.202
			c-21.958,3.781-32.304-5.329-27.752-26.821c5.764-27.215,13.916-53.917,20.676-80.931
			C297.574,257.797,300.973,239.366,292.083,221.229z"/>
		<path fill-rule="evenodd" clip-rule="evenodd" fill="#68633B" d="M320.388,113.29c2.163,0.715,4.81,0.861,6.419,2.228
			c28.841,24.491,57.483,49.213,86.318,73.708c22.393,19.02,44.992,37.797,67.5,56.682c1.597,30.308-3.015,59.598-14.377,87.781
			c-52.698-43.565-105.366-87.167-158.112-130.672c-13.051-10.764-26.444-21.112-39.449-31.929
			c-2.118-1.762-3.025-4.979-4.492-7.521c17.939,7.122,34.867,6.276,49.202-7.772C325.854,143.587,326.504,128.852,320.388,113.29z"
			/>
		<path fill-rule="evenodd" clip-rule="evenodd" fill="#FCFCFB" d="M292.083,221.229c8.89,18.137,5.491,36.568,0.915,54.854
			c-6.76,27.014-14.912,53.716-20.676,80.931c-4.552,21.492,5.794,30.603,27.752,26.821c5.994-1.032,11.862-2.784,17.775-4.202
			c1.262,13.062-1.393,16.974-12.858,21.815c-22.979,9.706-46.337,15.798-71.414,9.749c-26.74-12.84-34.393-25.826-28.67-55.446
			c4.756-24.617,12.15-48.726,18.376-73.06c2.142-11.205,5.373-22.337,6.136-33.636c0.853-12.623-4.724-18.63-17.355-18.504
			c-9.172,0.092-18.314,3.372-27.469,5.23c-2.753-10.346,0.512-18.234,9.41-21.477c18.401-6.706,36.608-14.319,56.852-13.292
			C267.526,201.858,281.896,207.238,292.083,221.229z"/>
		<path fill-rule="evenodd" clip-rule="evenodd" fill="#FCFCFB" d="M320.388,113.29c6.116,15.562,5.466,30.298-6.991,42.504
			c-14.335,14.048-31.263,14.894-49.202,7.772c-10.122-7.25-19.057-15.322-20.3-28.836c-1.596-17.353,7.177-31.875,23.48-38.79
			c16.968-7.197,36.717-2.755,48.137,10.883C317.241,108.889,318.767,111.13,320.388,113.29z"/>
		<path fill-rule="evenodd" clip-rule="evenodd" fill="#68633B" d="M184.595,235.782c9.155-1.858,18.297-5.139,27.469-5.23
			c12.631-0.126,18.208,5.881,17.355,18.504c-0.764,11.299-3.995,22.431-6.136,33.636c-8.911-9.737-18.086-19.251-26.627-29.303
			C192.073,247.996,188.58,241.681,184.595,235.782z"/>
	</g>
</g>
</svg>
