<svg xmlns="http://www.w3.org/2000/svg" width="500" height="500" viewBox="0 0 500 500"><g fill-rule="evenodd" clip-rule="evenodd"><path fill="#986D54" d="M74.723 239.129c2.116-12.789 3.455-25.768 6.513-38.327 5.884-24.169 17.786-45.485 33.384-64.778 15.122-18.704 33.559-33.317 54.751-44.581 62.586-33.264 142.214-24.323 195.623 21.892 29.17 25.242 48.448 56.487 57.638 93.954l.502 1.746.185 1.314c-.058.614-.237 1.247-.149 1.84 1.121 7.506 2.761 14.971 3.325 22.516 1.03 13.783.472 27.581-2.365 41.153-2.164 10.355-4.814 20.608-7.249 30.906-.7.936-1.677 1.771-2.06 2.822-4.409 12.117-10.02 23.617-17.149 34.382-9.81 14.807-21.65 27.715-35.277 39.116-15.271 12.777-32.558 21.927-50.954 29.083-14.851 5.777-30.341 8.763-46.245 10.17-15.183 1.345-30.217.612-45.108-2.02-18.584-3.284-36.217-9.508-52.864-18.584-13.589-7.408-26.065-16.278-37.086-27.086-6.108-5.99-12.247-12.122-17.287-18.987-6.745-9.186-12.629-19.03-18.505-28.818-2.956-4.924-5.078-10.347-7.577-15.544-8.25-22.108-12.286-44.914-11.422-68.545.04-1.198-.406-2.415-.624-3.624zm66.733-111.166c-3.863 3.769-7.942 7.348-11.486 11.396-1.486 1.698-2.542 4.374-2.589 6.63-.249 12.071-.124 24.149-.109 36.225.001 1.22.123 2.44.203 3.948h14.14c4.618.003 9.235.006 13.854.01l14.177-.022h13.523v-86.574l-13.682 7.693-13.927 9.267c-4.703 3.809-9.404 7.618-14.104 11.427zm209.735 42.499c3.906-5.747 2.426-12.263 2.562-18.521.148-6.814-.264-13.653.145-20.446.342-5.674-4.217-11.05-10.635-10.837-12.359.409-24.742.112-37.115.164-7.14.03-10.627 3.571-10.644 10.747-.026 11.237-.093 22.475.063 33.709.031 2.307.969 4.601 1.489 6.901 1.91 3.048 4.748 4.272 8.253 4.269 13.211-.014 26.425.138 39.629-.154 2.184-.048 4.392-1.9 6.425-3.178.359-.223-.093-1.736-.172-2.654zm-160.204 23.589c-.24-.078-.48-.225-.721-.225-30.199.004-60.397-.001-90.596.128-.988.004-2.53 1.202-2.862 2.17-1.675 4.882-3.417 9.796-4.435 14.84-3.332 16.498-4.45 33.106-3.281 49.995 1.109 16.041 4.793 31.444 10.68 46.147 4.222 10.543 9.888 20.719 16.253 30.151 17.972 26.632 41.644 46.779 71.451 59.268 7.032 2.946 14.345 5.219 22.074 7.998v-6.887c3.442.314 7.049.081 10.306 1.038 14.021 4.12 28.438 5.022 42.776 4.163 11.315-.679 22.585-3.128 33.728-5.485 21.619-4.573 40.153-15.709 57.907-28.324.707-.502 1.507-1.426 2.169-1.349 3.794.442 5.709-2.239 7.863-4.479 3.324-3.454 6.636-6.93 9.812-10.52 15.475-17.498 25.817-37.797 32.825-59.958 4.127-13.054 5.083-26.606 5.898-40.053 1.128-18.598-.846-36.995-7.033-54.802-1.138-3.275-2.586-4.111-5.851-4.101-28.557.086-57.114-.012-85.672-.034-1.25 0-2.499.206-3.748.314-1.17-.624-2.604-.998-3.47-1.911-8.836-9.317-19.819-15.099-31.836-18.887-29.582-9.325-55.855-2.703-79.235 17.087-1.581 1.343-3.331 2.483-5.002 3.716z"/><path fill="#CEB6A3" d="M310.531 194.051c1.249-.11 2.498-.316 3.748-.316 28.558.022 57.115.12 85.672.034 3.265-.01 4.713.826 5.851 4.101 6.188 17.807 8.161 36.205 7.033 54.802-.815 13.446-1.771 26.999-5.898 40.053-7.008 22.161-17.351 42.46-32.825 59.958-3.176 3.59-6.487 7.065-9.812 10.52-2.154 2.239-4.069 4.921-7.863 4.479-.662-.077-1.462.847-2.169 1.349-17.754 12.615-36.288 23.751-57.907 28.324-11.143 2.357-22.412 4.807-33.728 5.485-14.337.859-28.755-.043-42.776-4.163-3.257-.957-6.864-.724-10.306-1.038v6.887c-7.729-2.779-15.042-5.052-22.074-7.998-29.807-12.488-53.479-32.636-71.451-59.268-6.366-9.433-12.032-19.608-16.253-30.151-5.887-14.703-9.571-30.106-10.68-46.147-1.169-16.888-.051-33.497 3.281-49.995 1.019-5.044 2.76-9.958 4.435-14.84.332-.968 1.874-2.166 2.862-2.17 30.198-.13 60.397-.124 90.596-.128.24 0 .48.146.72.224-.744 1.281-1.315 2.708-2.256 3.823-12.205 14.459-19.028 30.939-18.978 50.038.022 8.424.021 8.424 8.486 8.825l.372.066c.831 4.352 1.394 8.774 2.541 13.04 3.97 14.761 12.012 27.266 23.713 36.771 10.737 8.724 23.114 14.386 37.387 15.938 34.979 3.804 67.756-17.552 77.458-51.342 1.513-5.266 2.199-10.768 3.269-16.16l8.973-1.136c-.319-5.86-.13-11.663-1.048-17.286-1.878-11.512-5.778-22.298-13.105-31.662-2.688-3.435-4.861-7.267-7.268-10.917z"/><path fill="#07080E" d="M297.058 172.179c-.521-2.3-1.458-4.595-1.489-6.901-.156-11.235-.09-22.473-.063-33.709.017-7.176 3.504-10.716 10.644-10.747 12.373-.051 24.756.245 37.115-.164 6.418-.212 10.977 5.164 10.635 10.837-.408 6.793.004 13.632-.145 20.446-.137 6.257 1.344 12.773-2.564 18.521-3.284 2.731-7.118 3.321-11.261 3.164-14.289-.542-28.582-.974-42.872-1.447z"/><path fill="#4492FD" d="M169.484 107.269c4.333-2.437 8.667-4.874 13.682-7.693v86.574h-13.522c-.011-3.271-.025-6.542-.032-9.812l-.128-69.069z"/><path fill="#6BCDA0" d="M169.484 107.269c.042 23.023.084 46.045.128 69.068.006 3.271.021 6.542.032 9.812-4.726.007-9.452.015-14.179.023-.017-2.649-.05-5.3-.045-7.95.042-20.562.091-41.125.138-61.687 4.642-3.088 9.284-6.177 13.926-9.266z"/><path fill="#FBC839" d="M155.558 116.536c-.047 20.562-.096 41.125-.138 61.687-.005 2.65.028 5.301.045 7.95-4.616-.004-9.234-.007-13.852-.01l-.158-58.2 14.103-11.427z"/><path fill="#F83352" d="M141.456 127.963c.052 19.4.105 38.8.158 58.2-4.617-.001-9.234-.001-14.14-.001-.08-1.508-.201-2.728-.203-3.948-.014-12.075-.14-24.154.109-36.225.047-2.256 1.103-4.932 2.589-6.63 3.545-4.048 7.623-7.627 11.487-11.396z"/><path fill="#07080E" d="M178.61 256.803c-.806-14.989 1.747-29.273 9.755-42.146 15.82-25.43 38.803-38.242 68.732-35.532 30.353 2.75 50.789 19.766 61.905 48.013 3.527 8.962 4.119 18.397 3.975 27.91-1.069 5.394-1.756 10.896-3.269 16.161-9.701 33.79-42.479 55.146-77.458 51.342-14.273-1.552-26.65-7.214-37.387-15.938-11.701-9.505-19.743-22.01-23.713-36.771-1.146-4.265-1.709-8.688-2.54-13.039z"/></g></svg>