<svg xmlns="http://www.w3.org/2000/svg" width="500" height="500" viewBox="0 0 500 500"><g><path d="M502 502h-502v-501h502v501zm-245.407-4.562c9.905-1.148 24.923-2.121 39.633-4.789 19.338-3.509 38.08-9.216 56.104-17.485 29.382-13.48 55.157-31.615 77.354-55.163 12.403-13.158 23.318-27.289 32.549-42.773 10.188-17.089 18.627-34.992 23.782-54.251 3.045-11.376 5.787-22.876 7.795-34.471 1.71-9.866 2.856-19.938 3.003-29.937.158-10.701-.766-21.465-1.915-32.126-1.123-10.416-2.745-20.813-4.827-31.082-4.021-19.841-12.037-38.268-20.559-56.539-5.274-11.31-8.943-22.635-4.285-35.843 7.884-22.352 14.275-45.232 21.208-67.916 1.386-4.533 2.787-9.128 3.44-13.798.552-3.95-1.189-6.869-5.99-6.26-1.784.227-3.615.31-5.335.785-9.775 2.701-19.549 5.415-29.274 8.288-16.175 4.778-32.257 9.877-48.488 14.453-8.896 2.507-17.772 4.097-26.819-.862-8.231-4.512-17.05-7.983-25.712-11.672-17.719-7.547-36.154-12.805-55.133-15.895-11.343-1.847-22.812-3.508-34.271-3.884-10.68-.351-21.414 1.228-32.134 1.746-18.688.904-36.849 4.985-54.232 11.322-15.307 5.579-30.159 12.74-44.53 20.471-20.568 11.065-38.317 25.94-54.393 42.981-12.406 13.151-23.313 27.271-32.587 42.75-10.319 17.223-18.801 35.263-24.007 54.677-3.05 11.374-5.773 22.877-7.798 34.47-1.694 9.701-2.845 19.605-2.984 29.438-.152 10.702.546 21.502 1.947 32.118 1.885 14.281 3.863 28.67 7.472 42.578 6.465 24.917 17.576 47.965 31.977 69.311 10.247 15.188 21.531 29.6 35.591 41.521 10.295 8.728 20.364 17.875 31.475 25.456 22.604 15.424 47.172 26.754 73.941 33.395 20.721 5.138 41.608 8.11 68.002 8.986z" fill="none"/><path fill-rule="evenodd" clip-rule="evenodd" fill="#669AE9" d="M256.593 497.438c-26.394-.875-47.28-3.848-68.003-8.988-26.769-6.641-51.337-17.971-73.941-33.395-11.111-7.581-21.18-16.729-31.475-25.456-14.061-11.921-25.345-26.333-35.591-41.521-14.4-21.346-25.511-44.394-31.977-69.311-3.609-13.908-5.587-28.297-7.472-42.578-1.401-10.616-2.1-21.416-1.947-32.118.14-9.833 1.291-19.737 2.984-29.438 2.025-11.593 4.749-23.096 7.798-34.47 5.206-19.414 13.688-37.454 24.007-54.677 9.274-15.478 20.181-29.598 32.587-42.75 16.075-17.041 33.825-31.916 54.393-42.981 14.371-7.731 29.223-14.892 44.53-20.471 17.384-6.336 35.545-10.418 54.232-11.322 10.721-.519 21.455-2.097 32.134-1.746 11.458.376 22.928 2.038 34.271 3.884 18.979 3.09 37.414 8.348 55.133 15.895 8.662 3.689 17.48 7.161 25.712 11.672 9.047 4.958 17.923 3.369 26.819.862 16.231-4.575 32.313-9.674 48.488-14.453 9.726-2.873 19.499-5.586 29.274-8.288 1.72-.476 3.551-.559 5.335-.785 4.801-.609 6.542 2.31 5.99 6.26-.653 4.67-2.055 9.265-3.44 13.798-6.933 22.684-13.324 45.564-21.208 67.916-4.658 13.208-.989 24.533 4.285 35.843 8.521 18.271 16.537 36.698 20.559 56.539 2.082 10.268 3.704 20.666 4.827 31.082 1.149 10.661 2.073 21.425 1.915 32.126-.146 9.999-1.293 20.07-3.003 29.937-2.008 11.595-4.75 23.095-7.795 34.471-5.155 19.259-13.595 37.162-23.782 54.251-9.23 15.484-20.146 29.615-32.549 42.773-22.196 23.548-47.972 41.683-77.354 55.163-18.024 8.27-36.767 13.977-56.104 17.485-14.709 2.669-29.727 3.642-39.632 4.791zm-76.219-311.126l1.094.831c1.145-.599 2.349-1.106 3.426-1.809 16.581-10.815 34.833-16.452 54.542-17.121 3.851-.131 5.506-1.346 6.682-4.851 6.287-18.75 12.747-37.441 19.222-56.127 6.407-18.489 25.529-27.762 43.377-21.12 17.058 6.348 25.615 24.554 19.492 42.549-12.583 36.98-25.463 73.859-38.188 110.791-5.919 17.177-18.094 25.934-36.038 25.802-18.531-.136-28.426 8.437-30.957 26.817-1.925 13.985 4.322 23.505 17.923 26.583 5.162 1.169 10.529 1.933 15.812 1.988 36.883.387 70.981-23.559 83.441-58.944 13.708-38.931 27.598-77.818 40.236-117.101 10.809-33.596 3.562-64.157-21.168-89.44-45.412-46.429-123.702-28.12-145.334 33.654-8.576 24.489-16.868 49.078-25.299 73.618-2.737 7.966-5.508 15.92-8.263 23.88zm139.9 133.407c-2.069 1.193-3.041 1.688-3.943 2.285-16.932 11.201-35.563 17.287-55.821 17.929-4.172.132-5.673 1.626-6.889 5.284-5.499 16.55-11.216 33.028-16.992 49.485-6.234 17.762-24.66 27.333-41.514 21.708-18.348-6.123-27.607-24.677-21.272-43.272 11.947-35.066 24.078-70.069 36.152-105.091 5.561-16.129 16.972-24.538 34.008-25.167 3.321-.123 6.64-.33 9.958-.525 14.229-.841 22.509-14.817 23.091-29.325.565-14.081-5.941-21.346-21.032-24.208-39.5-7.491-81.8 17.137-95.935 56.675-13.43 37.568-26.507 75.276-38.907 113.194-15.314 46.826 12.9 97.993 60.346 110.813 45.263 12.229 91.372-12.303 106.797-56.854 8.218-23.735 16.381-47.489 24.557-71.239 2.357-6.848 4.676-13.708 7.396-21.692z"/><path fill-rule="evenodd" clip-rule="evenodd" fill="#343435" d="M180.374 186.312c2.755-7.959 5.526-15.913 8.263-23.879 8.432-24.54 16.724-49.129 25.299-73.618 21.632-61.775 99.922-80.084 145.335-33.655 24.729 25.283 31.977 55.844 21.168 89.44-12.639 39.283-26.528 78.17-40.236 117.101-12.46 35.386-46.559 59.331-83.441 58.944-5.283-.056-10.65-.819-15.812-1.988-13.601-3.078-19.848-12.598-17.923-26.583 2.531-18.381 12.426-26.953 30.957-26.817 17.944.132 30.119-8.625 36.038-25.802 12.725-36.932 25.604-73.811 38.188-110.791 6.123-17.995-2.435-36.202-19.492-42.549-17.848-6.642-36.97 2.631-43.377 21.12-6.476 18.686-12.936 37.377-19.222 56.127-1.175 3.505-2.831 4.72-6.682 4.851-19.708.668-37.961 6.306-54.542 17.121-1.077.703-2.281 1.21-3.426 1.809l-1.095-.831zM320.274 319.719c-2.721 7.984-5.039 14.845-7.396 21.691-8.176 23.75-16.339 47.504-24.557 71.239-15.425 44.552-61.534 69.084-106.797 56.854-47.446-12.82-75.66-63.987-60.346-110.813 12.4-37.918 25.477-75.626 38.907-113.194 14.135-39.539 56.435-64.166 95.935-56.675 15.091 2.862 21.598 10.127 21.032 24.208-.582 14.508-8.862 28.483-23.091 29.325-3.318.196-6.637.403-9.958.525-17.036.63-28.447 9.039-34.008 25.167-12.075 35.021-24.206 70.024-36.152 105.091-6.335 18.596 2.924 37.149 21.272 43.272 16.854 5.625 35.28-3.946 41.514-21.708 5.775-16.457 11.493-32.936 16.992-49.485 1.216-3.658 2.717-5.152 6.889-5.284 20.258-.642 38.89-6.728 55.821-17.929.902-.597 1.874-1.091 3.943-2.284z"/></g></svg>