<svg xmlns="http://www.w3.org/2000/svg" width="570" height="265" viewBox="0 0 570 265"><path d="M6.832 266h-35.99c-.003-88.297-.003-176.595-.003-264.946h599.832v264.946h-225.838l-.338-2.984v-26.969h-10.68c-2.993-.35-5.986-.7-8.98-1.051-5.24-.091-10.492-.019-15.713-.395-1.232-.088-2.356-1.684-3.53-2.587-.083-2.73.316-5.587-.36-8.161-1.026-3.901-2.061-8.215-4.508-11.186-1.729-2.098.801-7.638-4.877-6.509l-1.922 2.849.012 2.984-.018 4.016c.036 2.82-.306 5.354-4.035 5.312l-.864-4.379c.574-3.576 1.148-7.152 1.723-10.729l-1.719-.314c-.776 3.74-1.554 7.48-2.331 11.221-1.201 3.652-2.402 7.305-3.604 10.957l-2.56 6.581h-6.555l-8.544-8.667-7.312 4.969-4.278 4.041h-9.015l-1.983.006c-7.546-.102-15.092-.201-22.638-.302l-1.777-1.626.18-2.107c5.14-2.381 1.303-6.678 2.13-9.979-.216-5.367-.432-10.734-.647-16.102l-.304-2.107c2.896-6.279.128-13.636-5.958-15.84l-7.113-3.3c-3.438-2.719-6.069-.058-8.89 1.335l-3.142 2.686-3.911 8.236c-4.618-3.146-9.368-1.62-14.109-.398l-15.846-1.973-1.979-2.481c-.208-.271-.481-.403-.822-.401-.359-4.77-1.909-5.459-8.17-3.637-.129-.352-.36-.441-.693-.27l-1.679.013-.249.036 1.478-11.407 4.199.309c.647-1.101 1.987-2.37 1.77-3.26-.29-1.186-1.791-2.075-2.771-3.092l-3.174.099c-.19-.198-.412-.246-.667-.143l-4.478.379-2.083-.186-3.723.002c-.825-.02-1.801-.33-2.446.002-1.431.738-3.319 1.514-3.9 2.785-1.277 2.795 1.593 2.229 2.959 2.855 1.269.582 2.514 1.217 3.769 1.828l.584 2.069c-.655 2.802 1.77 6.706-2.89 8.075-.326-.043-.681-.19-.972-.109-1.619.449-3.223.955-4.832 1.441 1.063 1.268 2.211 2.475 3.165 3.821.798 1.129 1.369 2.419 2.041 3.637l-1.397 1.085-3.094-.553.187 2.27-.366 1.588h8.545l.492 2.895.22 2.811.315 4.206-3.078 2.707-2.092 2.208c-.936.035-2.069-.26-2.777.16-5.181 3.07-10.277 6.284-15.399 9.453l-2.081 1.188.071-.033c-5.755 2.466-11.52 4.909-17.24 7.453-.361.161-.373 1.107-.547 1.688-.152.289-.259.594-.322.914l-4.138 1.752-2.886 1.131-1.91.988c-.729-.305-1.606-1.038-2.165-.846-5.616 1.934-11.18 4.02-16.758 6.062-2.633.104-5.295-.007-7.893.353-8.042 1.113-16.06 2.405-24.087 3.627l-12.049 1.482-1.048.484-4.393 1.038.197-.081-2.083 1.366-.075.084c-.332-.066-.552.059-.66.374l-1.502.966-.291.025-.11.271-1.111.696-.339-.053-.111.334-1.015 1.09-.183.249-.087.05-.356.698-.478 2.232c-.103-.369-.318-.563-.646-.585-1.231 2.094-2.456 4.187-3.682 6.28z" fill="none"/><path fill-rule="evenodd" clip-rule="evenodd" fill="#0B0C0B" d="M305.591 232.015c1.174.903 2.298 2.499 3.53 2.587 5.221.376 10.473.304 15.713.395l.016 1.993c-.093.882-.257 1.763-.266 2.646-.065 6.686 1.536 13.437-1.62 19.967-1.401 2.9-2.156 3.12-4.277.707-.84-.956-2.866-1.564-4.144-1.305-3.451.703-6.76 2.725-10.18 2.862-15.72.632-31.458.812-47.19 1.124-3.485.068-6.987-.169-10.453.101-1.339.104-2.599 1.223-3.895 1.879l.052.104c-2.684-.026-5.366-.053-8.05-.078-1.941-.665-3.891-1.92-5.823-1.896-10.674.133-21.345.56-32.015.955-.73.026-1.439.618-2.159.947l-1.999-.001-3.653-1.887.662 1.89-.008.996h-53l.96-12.016c.859.42 2.139.608 2.513 1.292 5.124 9.357 13.502 8.296 22.466 7.237-.173-2.953-.334-5.663-.489-8.374-.157-2.748-.364-5.495-.445-8.245-.137-4.664-4.095-3.258-6.562-4.307-.962-.408-1.645-1.459-2.479-2.188-1.311-1.146-2.643-2.269-3.966-3.399h.001l.017-10.935 1.016-.571 1.958.494c-.092 1.146-.034 2.33-.302 3.435-1.403 5.793.06 7.44 5.931 6.476 1.129-.186 2.221-.597 3.331-.904l1.951 1.971 1.285-.033 4.795-.857c6.986.059 13.973.118 20.959.178l2.294.797 3.9-1.16-4.079-.914c-.303-.027-.606-.032-.91-.016l.056-3.826c8.592-.389 17.185-.777 25.777-1.167l1.795 2.005-.18 2.107 1.777 1.626c7.546.101 15.092.2 22.638.302l1.983-.006h9.015c4.564 3.66 8.077 2.658 9.388-3.19l-5.109-.851c2.867-1.947 5.733-3.896 7.312-4.969 3.209 3.256 5.479 5.559 8.544 8.667h6.555l2.56-6.581 3.723-.053v6.337h4.756l.366-5.345c2.827-3.15 5.279-3.445 8.142.283 1.118 1.455 3.636 1.84 5.516 2.714zm-101.608 2.174l.083.48h6.577l-.035-.48h-6.625zm12.11 2.448c.119-.281.392-.622.313-.826-.078-.199-.515-.26-.794-.381-.12.281-.395.623-.315.824.08.201.515.262.796.383z"/><path clip-rule="evenodd" d="M120.832 266h-100c.51-4.253 3.917-5.357 7.185-6.613 7.626-1.067 15.252-2.135 22.878-3.201 9.018-2.005 18.113-3.72 27.023-6.125 5.146-1.389 9.993-3.89 14.974-5.891l17.018-6.651 2.253-1.19.051.115 6.778-3.337-.059.06c5.271-2.223 10.543-4.445 15.814-6.667l.256 1.773c-.723 2.963-1.445 5.926-2.167 8.889-.814-.047-1.668-.278-2.434-.108-2.687.602-6.167-1.373-7.909 2.364-5.149 2.466-1.666 6.291-1.51 9.592-.048 5.663-.1 11.326-.151 16.99z" fill="none"/><path fill-rule="evenodd" clip-rule="evenodd" fill="#0F1213" d="M122.495 239.416c1.743-3.736 5.222-1.762 7.909-2.363.765-.17 1.62.062 2.434.108l.938 1.937c-.257 1.938-.838 3.897-.712 5.811.462 7.039 1.16 14.062 1.769 21.092h-12l.101-8.979 5.366-5.825-1.209-6.461-2.435 4.199-2.161-9.519zm2.312 23.731c4.369-.962 4.127-3.085 1.744-6.343l-1.744 6.343z"/><path fill-rule="evenodd" clip-rule="evenodd" fill="#713F2B" d="M10.509 259.722c.328.021.543.216.654.586.31-.993.611-1.987.913-2.981l.184-.246 2.601-.054 9.027-3.925 1.938-.081.011 4.023-.972.035-2.071 1.864-4.962 7.057h-7l-.323-6.278z"/><path fill-rule="evenodd" clip-rule="evenodd" fill="#232C33" d="M134.832 266c-.609-7.029-1.306-14.053-1.769-21.092-.126-1.913.456-3.872.713-5.811l2.867-.298 1.149 15.185-.96 12.016h-2z"/><path fill-rule="evenodd" clip-rule="evenodd" fill="#454139" d="M325.832 266h-47l.015-.903 47.035.025-.05.878z"/><path fill-rule="evenodd" clip-rule="evenodd" fill="#9A938A" d="M122.933 257.021l-.101 8.979h-2l.154-16.991 1.947 8.012z"/><path fill-rule="evenodd" clip-rule="evenodd" fill="#3F3931" d="M278.847 265.098l-.015.902h-36c-.001-.31.014-.619.045-.927l-.052-.104c12.007.044 24.015.086 36.022.129z"/><path fill-rule="evenodd" clip-rule="evenodd" fill="#533127" d="M17.832 266l4.962-7.056 2.071-1.865.972-.036 2.179 2.344c-3.268 1.256-6.675 2.36-7.185 6.613h-2.999z"/><path fill-rule="evenodd" clip-rule="evenodd" fill="#575956" d="M325.832 266l.05-.879 18.612-2.105.338 2.984h-19z"/><path fill-rule="evenodd" clip-rule="evenodd" fill="#2A2323" d="M242.877 265.073c-.031.308-.046.617-.045.927h-29c.006-.315.018-.631.034-.946l20.961-.059 8.05.078z"/><path fill-rule="evenodd" clip-rule="evenodd" fill="#1E1513" d="M213.866 265.054c-.016.315-.027.631-.034.946h-24l.008-.996 2.992-.003 1.999.001 19.035.052z"/><path fill-rule="evenodd" clip-rule="evenodd" fill="#524B42" d="M10.509 259.722l.323 6.278h-4l3.677-6.278z"/><path fill-rule="evenodd" clip-rule="evenodd" fill="#090807" d="M344.494 263.016l-18.612 2.105c-15.679-.008-31.357-.017-47.035-.024-12.007-.042-24.015-.084-36.021-.127 1.296-.656 2.556-1.775 3.895-1.879 3.466-.27 6.968-.032 10.453-.101 15.732-.312 31.471-.492 47.19-1.124 3.42-.138 6.729-2.159 10.18-2.862 1.277-.26 3.304.349 4.144 1.305 2.121 2.413 2.876 2.193 4.277-.707 3.156-6.53 1.555-13.281 1.62-19.967.009-.883.173-1.764.266-2.646 2.988-.313 5.977-.628 8.965-.942h10.68c-.002 9.098-.002 18.033-.002 26.969zm-16.409-22.381c.118-.277.389-.615.311-.815-.077-.197-.509-.256-.785-.376-.118.277-.392.615-.312.812.079.199.508.26.786.379z"/><path fill-rule="evenodd" clip-rule="evenodd" fill="#613828" d="M28.017 259.387l-2.179-2.344-.011-4.023 3.037-1.981c1.453.654 2.974 1.991 4.349 1.854 11.716-1.161 23.406-2.579 35.093-4.018.251-.031.359-1.231.533-1.887 5.229-1.357 10.499-2.58 15.655-4.17 1.275-.393 2.182-1.977 3.259-3.014l1.91-.988 2.886-1.131 4.138-1.752 3.14 2.068-1.008.999-1.988.989-4.012 3.001c-1.748.373-3.537.612-5.236 1.142-7.246 2.258-14.477 4.563-21.688 6.927-5.021 1.646-10.001 3.413-14.999 5.126-7.626 1.067-15.253 2.134-22.879 3.202z"/><path fill-rule="evenodd" clip-rule="evenodd" fill="#3F3931" d="M197.823 184.979c2.821-1.393 5.452-4.054 8.89-1.335 4.349 4.6 6.384 10.208 7.139 16.374l-1.998.014c-.665-2.48-1.329-4.961-2.132-7.96l-1.001 2.181-4.164-3.425 1.347 2.903-.072 2.268-1.249.178c-.287.156-.593.22-.918.191l-.876-1.346-1.234-.887-.796 2.871-2.917.996c-2.141.529-3.277 4.947-6.404 1.654l-.667-3.756 3.911-8.236c4.097 2.674 2.787-.98 3.141-2.685zm-.993 9.021l.405 1.184.567-1.33-1.864-2.806-2.109 1.991-1.046 2.243 3.066-1.29.981.008z"/><path fill-rule="evenodd" clip-rule="evenodd" fill="#1E1513" d="M305.591 232.015c-1.88-.874-4.397-1.259-5.517-2.716-2.862-3.729-5.314-3.434-8.143-.283l-2.101-2.996.052-4.699c3.729.041 4.071-2.492 4.035-5.312l2.57 1.022 1.118-.892-3.671-4.146-.012-2.984 1.922-2.849c5.678-1.129 3.148 4.411 4.877 6.509 2.447 2.971 3.481 7.284 4.508 11.186.678 2.573.279 5.429.362 8.16z"/><path fill-rule="evenodd" clip-rule="evenodd" fill="#91887B" d="M133.854 196.98l1.397-1.085c1.804.298 3.609.595 5.524.909v-4.729l-.825 1.286c-1.331-.778-3.026-1.284-3.873-2.423-.639-.859-.192-2.527-.229-3.834 4.66-1.369 2.235-5.273 2.891-8.075l2.018-2.537 3.268-.473c-1.515 5.178-1.183 10.11 2.121 15.989l1.076-5.221.249-.036 1.542 3.22.326.006.327-.002c.077.323.166.645.266.961-.062 2.656-.123 5.312-.184 7.967-.31.09-.626.127-.948.109l-1.129-.767.247-5.076-2.073-1.178-.794 5.942c-.074.277-.075.555-.001.832l-2.336 2.378-.909 1.856c-.291-.01-.581-.004-.87.018l-1.317.16-.492-2.895h-8.545l.366-1.588c.97-.569 1.938-1.141 2.907-1.714z"/><path fill-rule="evenodd" clip-rule="evenodd" fill="#713F2B" d="M68.839 246.988c-.174.655-.282 1.855-.533 1.887-11.687 1.438-23.377 2.856-35.093 4.018-1.375.137-2.896-1.2-4.35-1.854l7.987-2.038c8.027-1.222 16.045-2.514 24.087-3.627 2.598-.359 5.26-.248 7.893-.353l.009 1.967z"/><path fill-rule="evenodd" clip-rule="evenodd" fill="#322D22" d="M160.814 193.529c5.282.657 10.564 1.314 15.846 1.973l.164 2.496-3.006.955c-3.758-.904-7.582-2.574-10.964.933l-5.914-1.826-.143-1.037-.093-1.127.025-3.844 1.285-1.405c.34-.002.614.131.822.401l1.978 2.481z"/><path fill-rule="evenodd" clip-rule="evenodd" fill="#AA8774" d="M116.807 224.725c5.123-3.169 10.218-6.383 15.399-9.453.708-.42 1.841-.125 2.776-.161l2.025.174c-.849.694-1.613 1.558-2.568 2.045-1.38.704-3.088.87-4.321 1.741-2.605 1.842-4.813 4.285-7.515 5.943-3.757 2.306-7.817 4.118-11.747 6.142l-2 .86-4.077.127 10.017-6.264-.07.033 2.081-1.187z"/><path fill-rule="evenodd" clip-rule="evenodd" fill="#322D22" d="M213.826 186.943c6.086 2.204 8.854 9.561 5.958 15.841l-1.241-2.559c-.555.625-1.363 1.167-1.6 1.896-.286.877-.086 1.912-.096 2.879l-.933.998-.258-5.932-1.83-13.123z"/><path fill-rule="evenodd" clip-rule="evenodd" fill="#776F63" d="M176.825 197.998l-.164-2.496c4.741-1.222 9.491-2.747 14.109.398.222 1.252.444 2.504.669 3.757-.216.155-.451.274-.704.359-4.637-.672-9.274-1.345-13.91-2.018z"/><path fill-rule="evenodd" clip-rule="evenodd" fill="#251914" d="M147.224 186.789l-1.076 5.221c-3.304-5.879-3.636-10.812-2.121-15.99l.392.076.396-.059 2.94-4.086.305-2.656c.254-.104.477-.056.667.143l-.024 5.944c-.495 3.803-.987 7.604-1.479 11.407z"/><path fill-rule="evenodd" clip-rule="evenodd" fill="#3F3931" d="M289.883 221.32l-.052 4.699-3.021 2.004-3.723.053c1.201-3.652 2.402-7.305 3.604-10.957l2.327-.178.865 4.379z"/><path fill-rule="evenodd" clip-rule="evenodd" fill="#69655C" d="M135.85 187.105c.037 1.307-.41 2.975.229 3.834.846 1.139 2.542 1.645 3.873 2.423l.825-1.286v4.729c-1.916-.314-3.72-.611-5.524-.909-.671-1.218-1.242-2.508-2.041-3.637-.953-1.347-2.101-2.554-3.165-3.821 1.609-.486 3.212-.992 4.832-1.441.29-.082.645.065.971.108z"/><path fill-rule="evenodd" clip-rule="evenodd" fill="#91887B" d="M138.156 176.961c-1.255-.611-2.5-1.246-3.769-1.828-1.366-.627-4.236-.061-2.959-2.855.581-1.271 2.469-2.047 3.9-2.785.645-.332 1.621-.021 2.446-.003l2.029 4.496.359 2.595-2.006.38z"/><path fill-rule="evenodd" clip-rule="evenodd" fill="#7D523E" d="M68.839 246.988l-.009-1.968c5.578-2.042 11.142-4.128 16.758-6.062.558-.192 1.436.541 2.165.846-1.076 1.037-1.983 2.621-3.258 3.014-5.158 1.59-10.428 2.813-15.656 4.17z"/><path fill-rule="evenodd" clip-rule="evenodd" fill="#454139" d="M213.826 186.943c.61 4.375 1.22 8.749 1.832 13.123l-1.805-.049c-.755-6.166-2.791-11.774-7.14-16.374 2.371 1.101 4.742 2.201 7.113 3.3z"/><path fill-rule="evenodd" clip-rule="evenodd" fill="#322D22" d="M258.117 230.959l5.109.851c-1.311 5.849-4.823 6.851-9.388 3.19 1.428-1.347 2.853-2.693 4.279-4.041z"/><path fill-rule="evenodd" clip-rule="evenodd" fill="#524B42" d="M218.606 230.971l-1.795-2.005-.101-3.688c.69-3.408 1.38-6.814 2.069-10.221l1.958 5.936c-.828 3.3 3.009 7.597-2.131 9.978z"/><path fill-rule="evenodd" clip-rule="evenodd" fill="#4B2D1F" d="M220.736 220.992l-1.957-5.937c-.573-2.223 1.867-5.892-2.922-6.091l.058-2.967.932-.998 3.241-.109c.217 5.368.433 10.735.648 16.102z"/><path fill-rule="evenodd" clip-rule="evenodd" fill="#7D523E" d="M114.797 225.879c-3.339 2.088-6.678 4.176-10.017 6.262-2.59.959-5.181 1.919-7.771 2.879.174-.58.186-1.526.547-1.688 5.721-2.544 11.486-4.987 17.241-7.453z"/><path fill-rule="evenodd" clip-rule="evenodd" fill="#533127" d="M36.85 249l-7.987 2.038-3.037 1.981-1.939.081-6.414.189 2.083-1.363-.197.078 4.393-1.038 1.048-.484 12.05-1.482z"/><path fill-rule="evenodd" clip-rule="evenodd" fill="#2A2323" d="M158.014 190.646l-1.284 1.405-4.685-1.169 2.232-1.924c-1.448.659-2.896 1.318-4.344 1.979-.101-.316-.189-.638-.266-.961l.177-2.967c6.261-1.821 7.811-1.132 8.17 3.637z"/><path fill-rule="evenodd" clip-rule="evenodd" fill="#713F2B" d="M97.009 235.02c2.59-.96 5.181-1.92 7.771-2.879 1.358-.041 2.717-.082 4.076-.125l-.023 2.881-1.012.095-7.995 3.011-3.14-2.068c.064-.322.171-.626.323-.915z"/><path fill-rule="evenodd" clip-rule="evenodd" fill="#DDD5CF" d="M137.008 215.284l-2.025-.174 2.093-2.207 5.534-.438 3.259 1.424 1.99 1.023c-2.367.682-4.734 1.365-7.101 2.049.715-2.334.38-2.484-3.75-1.677z"/><path fill-rule="evenodd" clip-rule="evenodd" fill="#575956" d="M289.019 216.941l-2.327.178c.777-3.74 1.555-7.48 2.331-11.221l1.719.314c-.575 3.577-1.149 7.153-1.723 10.729zM140.163 176.58l-.359-2.594 1.694-4.498 2.083.186 3.222 2.359-1.99 4.005-.396.058-.392-.076-3.267.475c-.199.019-.398.048-.595.085z"/><path fill-rule="evenodd" clip-rule="evenodd" fill="#1E1513" d="M333.814 236.047c-2.988.314-5.977.629-8.965.942l-.016-1.993 8.981 1.051z"/><path fill-rule="evenodd" clip-rule="evenodd" fill="#9A938A" d="M140.936 203.02c.29-.021.58-.027.87-.018l3.985 3.484-2.789 2.583-1.115-1.931-.644.93.337 1.875-1.427.253-.315-4.206 1.098-2.97z"/><path fill-rule="evenodd" clip-rule="evenodd" fill="#524B42" d="M148.701 175.382l.024-5.944 3.174-.098-.011 1.598.433 2.867.58 1.886-4.2-.309z"/><path fill-rule="evenodd" clip-rule="evenodd" fill="#613828" d="M17.474 253.29l6.414-.189c-3.009 1.31-6.018 2.617-9.027 3.925l-.024-2.016.11-.271.292-.024 1.489.205 1.458-.085-.786-1.461.074-.084z"/><path fill-rule="evenodd" clip-rule="evenodd" fill="#9A938A" d="M141.498 169.488l-1.694 4.498-2.029-4.497 3.723-.001z"/><path fill-rule="evenodd" clip-rule="evenodd" fill="#4B4337" d="M220.089 204.891l-3.241.109c.01-.967-.189-2.002.096-2.879.237-.729 1.045-1.271 1.6-1.896l1.241 2.559.304 2.107z"/><path fill-rule="evenodd" clip-rule="evenodd" fill="#2A2323" d="M293.936 211.992l3.671 4.146-1.118.892-2.57-1.022.017-4.016z"/><path fill-rule="evenodd" clip-rule="evenodd" fill="#251914" d="M152.9 175.69l-.576-1.885-.436-2.868.011-1.598c.98 1.016 2.481 1.905 2.771 3.091.218.89-1.123 2.16-1.77 3.26z"/><path fill-rule="evenodd" clip-rule="evenodd" fill="#3D352B" d="M140.154 210.196l1.421-.251.298.072.729 2.49.008-.043-5.534.438 3.078-2.706z"/><path fill-rule="evenodd" clip-rule="evenodd" fill="#2A2323" d="M133.854 196.98l-2.907 1.717-.187-2.27 3.094.553z"/><path fill-rule="evenodd" clip-rule="evenodd" fill="#524B42" d="M197.823 184.979c-.354 1.705.956 5.359-3.142 2.686l3.142-2.686z"/><path fill-rule="evenodd" clip-rule="evenodd" fill="#9A938A" d="M146.803 172.033l-3.222-2.359 4.478-.379-.305 2.656c-.315.053-.632.08-.951.082z"/><path fill-rule="evenodd" clip-rule="evenodd" fill="#2A2323" d="M295.846 206.159l-1.922 2.849 1.922-2.849z"/><path fill-rule="evenodd" clip-rule="evenodd" fill="#9A938A" d="M140.163 176.58c.197-.037.396-.066.596-.086l-2.019 2.536-.584-2.069 2.007-.381z"/><path fill-rule="evenodd" clip-rule="evenodd" fill="#533127" d="M14.836 255.01l.024 2.016c-.866.02-1.732.038-2.601.055l1.014-1.092c.219.017.37-.077.451-.282l1.112-.697z"/><path fill-rule="evenodd" clip-rule="evenodd" fill="#3D352B" d="M149.015 189.973l-1.542-3.22 1.678-.012-.136 3.232z"/><path fill-rule="evenodd" clip-rule="evenodd" fill="#4B4337" d="M140.936 203.02l-1.097 2.971-.22-2.811 1.317-.16z"/><path fill-rule="evenodd" clip-rule="evenodd" fill="#322D22" d="M244.824 235l-1.983.006 1.983-.006z"/><path fill-rule="evenodd" clip-rule="evenodd" fill="#2A2323" d="M160.814 193.529l-1.979-2.481 1.979 2.481z"/><path fill-rule="evenodd" clip-rule="evenodd" fill="#524B42" d="M220.203 234.704l-1.777-1.626 1.777 1.626z"/><path fill-rule="evenodd" clip-rule="evenodd" fill="#533127" d="M17.399 253.374l.786 1.461-1.457.086.011-1.173c.108-.315.328-.44.66-.374z"/><path fill-rule="evenodd" clip-rule="evenodd" fill="#AA8774" d="M92.549 237.686l-2.886 1.131 2.886-1.131z"/><path fill-rule="evenodd" clip-rule="evenodd" fill="#7D523E" d="M116.807 224.725l-2.081 1.188 2.081-1.188z"/><path fill-rule="evenodd" clip-rule="evenodd" fill="#9A938A" d="M149.015 189.973l.136-3.231c.333-.173.564-.083.694.269l-.177 2.967-.327.002-.326-.007z"/><path fill-rule="evenodd" clip-rule="evenodd" fill="#533127" d="M12.076 257.326c-.301.994-.603 1.988-.913 2.981.15-.745.31-1.489.469-2.233.265-.158.384-.391.356-.698l.088-.05z"/><path fill-rule="evenodd" clip-rule="evenodd" fill="#524B42" d="M11.632 258.074l.356-.698c.028.308-.091.54-.356.698zM13.725 255.706c-.082.205-.232.299-.451.282l.112-.335.339.053zM16.739 253.748l-.011 1.173-1.49-.206 1.501-.967zM19.36 252.005l.197-.078-.197.078zM24.801 250.482l-1.048.484 1.048-.484z"/><path clip-rule="evenodd" d="M176.825 197.998l13.91 2.019.338 4.962c-.009 6.984-.019 13.97-.029 20.955l-.01 4.199-.056 3.826-1.205 1.293c-6.986-.06-13.973-.119-20.959-.178l-.305-1.154-.346-10.018c.664-2.799 2.507-5.746-1.001-8.025l2.502-4.467-4.542-8.597c.144-.278.106-.53-.113-.754.167-.285.268-.592.3-.921l8.511-2.186 3.005-.954z" fill="none"/><path fill-rule="evenodd" clip-rule="evenodd" fill="#0F1213" d="M137.792 253.984c-.383-5.061-.767-10.123-1.148-15.184 1.041-.928 2.081-1.856 3.12-2.786.879-1.266 2.151-2.421 2.538-3.822.528-1.907.38-4.002.522-6.017l6.024-1.11-.017 10.935-.229.415.228-.415c1.323 1.131 2.655 2.254 3.966 3.399.834.729 1.517 1.78 2.479 2.188 2.466 1.049 6.424-.357 6.562 4.307.081 2.75.289 5.497.445 8.245.154 2.711.316 5.421.489 8.374-8.964 1.059-17.342 2.12-22.466-7.237-.374-.683-1.654-.872-2.513-1.292zm7.833-24.291c.667-1.158 1.06-1.537 1.009-1.84-.047-.277-.618-.697-.877-.646-.299.059-.678.549-.713.883-.04.379.265.793.581 1.603z"/><path fill-rule="evenodd" clip-rule="evenodd" fill="#251914" d="M165.121 202.812l4.542 8.598-2.502 4.467c-4.685.681-2.991 4.328-3.279 7.053l-2.162 2.162-1.752-.074c-2.715-.01-5.43-.02-8.145-.029l-1.958-.494 1.088-7.494 3.426-3.262-2.329-1.608 2.675-.208 2.089-1.096-.823-9.121 8.371 1.051.373.107.386-.052z"/><path fill-rule="evenodd" clip-rule="evenodd" fill="#090807" d="M151.823 224.988c2.715.01 5.43.02 8.144.029.271 2.992.544 5.984.816 8.977-1.109.308-2.201.719-3.331.904-5.871.965-7.334-.683-5.931-6.476.268-1.104.21-2.287.302-3.434z"/><path fill-rule="evenodd" clip-rule="evenodd" fill="#776F63" d="M191.034 230.133l.01-4.199 25.665-.654.102 3.687c-8.593.388-17.185.777-25.777 1.166z"/><path fill-rule="evenodd" clip-rule="evenodd" fill="#F6EDE7" d="M150.954 217l-1.088 7.494-1.016.571-6.024 1.11-1.976-1.306-1.096-5.882 1.004-2.027c2.367-.684 4.734-1.367 7.102-2.049l3.094 2.089zm-8.244 5.332l.808 1.268 5.181-2.314-1.4-2.207-4.589 3.253z"/><path fill-rule="evenodd" clip-rule="evenodd" fill="#090807" d="M213.866 265.054l-19.036-.052c.719-.329 1.429-.921 2.159-.947 10.67-.396 21.341-.822 32.015-.955 1.933-.024 3.882 1.23 5.823 1.896-6.987.019-13.974.038-20.961.058z"/><path fill-rule="evenodd" clip-rule="evenodd" fill="#575956" d="M286.811 228.023l3.021-2.004 2.101 2.996-.365 5.345h-4.756l-.001-6.337z"/><path fill-rule="evenodd" clip-rule="evenodd" fill="#454139" d="M160.783 233.994c-.272-2.992-.545-5.984-.816-8.977l1.754.074c.55 2.885 1.099 5.77 1.681 8.828h5.106l.305 1.154-4.797.857-1.283.033-1.95-1.969z"/><path fill-rule="evenodd" clip-rule="evenodd" fill="#090807" d="M192.832 265.001l-2.992.003-.662-1.89 3.654 1.887z"/><path fill-rule="evenodd" clip-rule="evenodd" fill="#1E1513" d="M203.983 234.189h6.625l.035.48h-6.577l-.083-.48zM191.887 233.975l4.079.914c-2.27.676-3.085.918-3.902 1.16l-.177-2.074z"/><path fill-rule="evenodd" clip-rule="evenodd" fill="#454139" d="M191.887 233.975l.177 2.074-2.292-.797 1.205-1.293c.304-.017.607-.012.91.016z"/><path fill-rule="evenodd" clip-rule="evenodd" fill="#1E1513" d="M216.092 236.638c-.281-.122-.715-.183-.795-.384-.08-.201.195-.543.315-.824.279.121.716.182.794.381.079.204-.194.544-.314.827z"/><path fill-rule="evenodd" clip-rule="evenodd" fill="#090807" d="M162.734 235.965l1.283-.033-1.283.033z"/><path fill-rule="evenodd" clip-rule="evenodd" fill="#533127" d="M50.896 256.186c4.998-1.713 9.979-3.48 14.999-5.126 7.211-2.363 14.443-4.669 21.688-6.927 1.699-.529 3.488-.769 5.236-1.141l.074 1.178c-4.981 2.001-9.828 4.502-14.974 5.891-8.91 2.405-18.006 4.12-27.023 6.125z"/><path fill-rule="evenodd" clip-rule="evenodd" fill="#4B2D1F" d="M92.893 244.17l-.074-1.178c1.337-1.002 2.675-2.002 4.012-3.002l1.988-.989 1.008-.999 7.995-3.011 1.012-.095.023-2.881 2-.861c3.006-.699 6.012-1.396 9.019-2.094l-.941 4.105.058-.06c-2.535.553-6.743-2.294-6.778 3.337l-.053-.117-2.251 1.192c-5.673 2.219-11.346 4.436-17.018 6.653z"/><path fill-rule="evenodd" clip-rule="evenodd" fill="#321810" d="M118.935 233.166l.94-4.106c6.021-3.349 12.042-6.696 18.064-10.044l-.187 2.969-.909 2.879-2.095 1.636c-5.27 2.221-10.542 4.443-15.813 6.666z"/><path fill-rule="evenodd" clip-rule="evenodd" fill="#2A2323" d="M122.933 257.021l-1.947-8.012c-.156-3.301-3.64-7.126 1.51-9.592.67 2.956 1.341 5.912 2.16 9.517l2.435-4.199 1.209 6.461c-2.158 2.341-3.763 4.082-5.367 5.825z"/><path fill-rule="evenodd" clip-rule="evenodd" fill="#575956" d="M139.764 236.015c-1.039.93-2.079 1.858-3.12 2.786l-2.868.297-.938-1.937c.722-2.963 1.444-5.926 2.167-8.889l3.716-.389 1.043 8.132z"/><path fill-rule="evenodd" clip-rule="evenodd" fill="#DDD5CF" d="M138.72 227.884l-3.716.389-.255-1.773 2.095-1.636.909-2.879.187-2.969 1.814-.027 1.096 5.882c-1.637.35-3.891.263-2.13 3.013z"/><path fill-rule="evenodd" clip-rule="evenodd" fill="#321810" d="M112.215 236.443c.035-5.631 4.243-2.784 6.778-3.337l-6.778 3.337zM109.911 237.519l2.251-1.192-2.251 1.192z"/><path fill-rule="evenodd" clip-rule="evenodd" fill="#251914" d="M124.807 263.147l1.744-6.343c2.383 3.258 2.625 5.382-1.744 6.343z"/><path fill-rule="evenodd" clip-rule="evenodd" fill="#613828" d="M24.866 257.079l-2.071 1.865 2.071-1.865z"/><path fill-rule="evenodd" clip-rule="evenodd" fill="#0B0C0B" d="M328.083 240.635c-.276-.119-.705-.18-.785-.379-.079-.197.194-.535.312-.812.276.12.708.179.785.376.079.2-.192.537-.312.815z"/><path fill-rule="evenodd" clip-rule="evenodd" fill="#533127" d="M98.819 239.001l-1.988.989 1.988-.989z"/><path fill-rule="evenodd" clip-rule="evenodd" fill="#3D352B" d="M191.073 204.979l-.338-4.962c.253-.085.488-.204.704-.359 3.125 3.292 4.261-1.126 6.402-1.655l-.018 2.991-.222.432.238-.415c6.289 1.758 1.383 5.493 1.49 9.564l8.506-1.575.051-.017 1.243 6.271c-2.599.23-5.325 1.059-7.747.519-2.273-.508-4.671-2.079-6.21-3.871-2.212-2.576.098-4.818 1.662-6.903l1.049-.743-1.049.742c-1.919-.008-3.84-.014-5.761-.019z"/><path fill-rule="evenodd" clip-rule="evenodd" fill="#322D22" d="M207.835 208.999c-2.751.51-5.503 1.02-8.506 1.575-.107-4.071 4.799-7.807-1.49-9.564l-.017-.017.018-2.991 2.917-.996 2.072 1.973 1.476 1.087 2.486-.228 2.114 3.196-.16 1.945-.886 2.021-.024 1.999z"/><path fill-rule="evenodd" clip-rule="evenodd" fill="#524B42" d="M207.835 208.999l.026-1.999 4.489-.297-.016-1.226-3.587-.498.159-1.946 2.949-3.002 1.998-.014 1.806.049c.084 1.977.169 3.954.256 5.932l-.057 2.967v6.334l-7.97-6.316-.053.016z"/><path fill-rule="evenodd" clip-rule="evenodd" fill="#454139" d="M211.854 200.031l-2.949 3.002-2.113-3.195 1.564-2.756.365-2.83 1.001-2.181c.804 2.999 1.468 5.48 2.132 7.96z"/><path fill-rule="evenodd" clip-rule="evenodd" fill="#DDD5CF" d="M202.83 198.979l-2.072-1.973.796-2.871 1.234.887.876 1.346c.325.028.631-.035.918-.191l-1.752 2.802z"/><path fill-rule="evenodd" clip-rule="evenodd" fill="#524B42" d="M193.829 193.039l2.109-1.991c.622.935 1.243 1.87 1.864 2.808-.321.068-.646.116-.973.145l-.981-.008-2.019-.954z"/><path fill-rule="evenodd" clip-rule="evenodd" fill="#DDD5CF" d="M208.721 194.252l-.366 2.83-1.215-.026c.044-.328-.012-.638-.168-.929l-1.068-2.396-1.347-2.903c2.133 1.753 3.149 2.588 4.164 3.424z"/><path fill-rule="evenodd" clip-rule="evenodd" fill="#69655C" d="M206.972 196.127c.156.291.212.601.168.929l-2.834 3.01-1.476-1.087 1.753-2.803 1.249-.178 1.14.129z"/><path fill-rule="evenodd" clip-rule="evenodd" fill="#3D352B" d="M193.829 193.039l2.02.953-3.066 1.29 1.046-2.243z"/><path fill-rule="evenodd" clip-rule="evenodd" fill="#322D22" d="M196.83 194c.327-.028.651-.076.973-.145l-.567 1.328-.406-1.183z"/><path fill-rule="evenodd" clip-rule="evenodd" fill="#251914" d="M206.972 196.127l-1.14-.129.072-2.268 1.068 2.397z"/><path fill-rule="evenodd" clip-rule="evenodd" fill="#575956" d="M203.665 196.367l-.876-1.346.876 1.346z"/><path fill-rule="evenodd" clip-rule="evenodd" fill="#1E1513" d="M164.363 202.756c-3.087-.387-6.174-.774-8.371-1.051.296 3.275.56 6.198.823 9.123l-1.89.098-3-.082c-.6-2.435 2.893-6.527-2.795-6.9l-.329-4.93c.322.018.638-.02.948-.109 2.397-.281 4.794-.562 7.191-.845l5.914 1.827 2.454 1.252c-.033.329-.133.636-.3.921l-.645.696z"/><path fill-rule="evenodd" clip-rule="evenodd" fill="#DDD5CF" d="M148.801 199.014l.329 4.93-.084 6.996-2.164 1.23-4.281.338-.729-2.49 1.129-.948 2.789-2.583-3.985-3.484.909-1.857c1.479-.104 3.944.76 2.336-2.377-.074-.277-.073-.555 0-.832.315.001.63.014.945.037l1.025-.152c.185.191.401.334.65.427l1.131.765z"/><path fill-rule="evenodd" clip-rule="evenodd" fill="#524B42" d="M156.94 198.06l-7.191.845.184-7.967 4.344-1.979-2.232 1.924 4.685 1.169c-.009 1.281-.018 2.562-.025 3.845l-1.199.64 1.291.486.143 1.037z"/><path fill-rule="evenodd" clip-rule="evenodd" fill="#9A938A" d="M147.022 197.82l-1.027.152c-.051-1.992-.1-3.986-.149-5.979l2.073 1.177-.897 4.65z"/><path fill-rule="evenodd" clip-rule="evenodd" fill="#575956" d="M145.051 198.768c1.608 3.137-.856 2.273-2.336 2.377l2.336-2.377z"/><path fill-rule="evenodd" clip-rule="evenodd" fill="#524B42" d="M147.022 197.82l.897-4.65-.247 5.077c-.249-.093-.465-.235-.65-.427z"/><path fill-rule="evenodd" clip-rule="evenodd" fill="#F6EDE7" d="M145.846 191.993l.149 5.979c-.313-.023-.628-.036-.944-.037l.795-5.942z"/><path fill-rule="evenodd" clip-rule="evenodd" fill="#524B42" d="M165.308 201.139l-2.454-1.252c3.383-3.508 7.207-1.838 10.965-.934l-8.511 2.186z"/><path fill-rule="evenodd" clip-rule="evenodd" fill="#2A2323" d="M156.797 197.022l-1.291-.486 1.199-.64.092 1.126z"/><path fill-rule="evenodd" clip-rule="evenodd" fill="#713F2B" d="M139.753 218.988l-1.814.027c-6.022 3.348-12.043 6.695-18.064 10.044-3.006.698-6.012 1.396-9.018 2.095 3.931-2.022 7.991-3.835 11.748-6.141 2.702-1.658 4.91-4.102 7.515-5.943 1.232-.871 2.94-1.037 4.321-1.741.955-.487 1.719-1.351 2.568-2.045 4.129-.808 4.464-.657 3.75 1.677l-1.006 2.027z"/><path fill-rule="evenodd" clip-rule="evenodd" fill="#69655C" d="M146.803 172.033c.319-.002.636-.029.95-.082l-2.94 4.086 1.99-4.004z"/><path fill-rule="evenodd" clip-rule="evenodd" fill="#4B4337" d="M207.887 208.982l7.97 6.316v-6.334c4.789.199 2.349 3.868 2.922 6.091l-2.07 10.222c-8.556.221-17.111.438-25.666.656.01-6.985.02-13.971.029-20.955l5.763.019v.001c-1.564 2.085-3.875 4.327-1.662 6.903 1.539 1.792 3.937 3.363 6.21 3.871 2.421.54 5.148-.288 7.747-.519l-1.243-6.271z"/><path fill-rule="evenodd" clip-rule="evenodd" fill="#321810" d="M108.833 234.896l-1.012.095 1.012-.095z"/><path fill-rule="evenodd" clip-rule="evenodd" fill="#7D523E" d="M146.882 212.17l2.164-1.23 2.879-.096 2.999.083-.198.995-2.675.208 2.329 1.608c-1.144 1.088-2.285 2.174-3.426 3.262l-3.094-2.088-1.991-1.023 1.013-1.719z"/><path fill-rule="evenodd" clip-rule="evenodd" fill="#91887B" d="M146.882 212.17l-1.014 1.719-3.259-1.424-.008.043 4.281-.338z"/><path fill-rule="evenodd" clip-rule="evenodd" fill="#090807" d="M143.002 209.069l-1.129.948-.298-.072c-.106-.627-.219-1.252-.332-1.877l.644-.93 1.115 1.931z"/><path fill-rule="evenodd" clip-rule="evenodd" fill="#3D352B" d="M141.887 207.139l-.644.93.644-.93z"/><path fill-rule="evenodd" clip-rule="evenodd" fill="#69655C" d="M151.888 170.938l.436 2.868c-.147-.957-.292-1.913-.436-2.868z"/><path fill-rule="evenodd" clip-rule="evenodd" fill="#090807" d="M168.508 233.92h-5.106c-.582-3.059-1.131-5.943-1.681-8.828l2.161-2.16 4.281.971c.114 3.339.23 6.678.345 10.017z"/><path fill-rule="evenodd" clip-rule="evenodd" fill="#322D22" d="M168.162 223.902c-1.427-.323-2.854-.646-4.281-.971.289-2.727-1.405-6.374 3.28-7.055 3.508 2.28 1.665 5.228 1.001 8.026z"/><path fill-rule="evenodd" clip-rule="evenodd" fill="#524B42" d="M164.363 202.756l.645-.696c.219.224.257.476.113.754l-.385.05-.373-.108z"/><path fill-rule="evenodd" clip-rule="evenodd" fill="#0B0C0B" d="M138.72 227.884c-1.761-2.75.493-2.663 2.129-3.014l1.976 1.306c-.142 2.015.005 4.109-.522 6.017-.387 1.401-1.659 2.557-2.538 3.822l-1.045-8.131z"/><path fill-rule="evenodd" clip-rule="evenodd" fill="#91887B" d="M145.625 229.693c-.316-.811-.621-1.225-.581-1.604.035-.334.414-.824.713-.883.259-.051.83.369.877.646.051.304-.342.683-1.009 1.841z"/><path fill-rule="evenodd" clip-rule="evenodd" fill="#0B0C0B" d="M148.832 236l-.228.415.228-.415z"/><path fill-rule="evenodd" clip-rule="evenodd" fill="#3D352B" d="M154.726 211.922l.198-.995 1.891-.099-2.089 1.094z"/><path fill-rule="evenodd" clip-rule="evenodd" fill="#DDD5CF" d="M142.71 222.332l4.589-3.254 1.4 2.207-5.181 2.314-.808-1.267z"/><path fill-rule="evenodd" clip-rule="evenodd" fill="#0B0C0B" d="M137.753 221.984l-.909 2.879.909-2.879z"/><path fill-rule="evenodd" clip-rule="evenodd" fill="#322D22" d="M196.835 204.997l1.049-.742-1.049.742zM197.839 201.01l-.238.415.222-.432.016.017z"/><path fill-rule="evenodd" clip-rule="evenodd" fill="#4B4337" d="M208.747 204.979l3.587.498.016 1.226-4.489.297.886-2.021z"/><path fill-rule="evenodd" clip-rule="evenodd" fill="#F6EDE7" d="M204.306 200.065l2.834-3.01 1.215.026-1.563 2.756-2.486.228z"/><path fill-rule="evenodd" clip-rule="evenodd" fill="#3D352B" d="M151.925 210.844l-2.879.096.084-6.996c5.688.372 2.195 4.465 2.795 6.9z"/></svg>