<svg xmlns="http://www.w3.org/2000/svg" width="570" height="265" viewBox="0 0 570 265"><path d="M571 192v74h-600v-265h600v36c-7.467 3.975-14.934 7.949-22.4 11.923-8.467 4.519-16.932 9.036-25.395 13.559-3.881 2.074-7.756 4.159-11.633 6.239-6.859 3.382-13.871 6.558-18.205 13.377-5.488 2.596-7.305 8.045-9.98 12.829-3.102 2.366-6.564 4.384-9.232 7.164-7.074 7.365-13.803 15.06-20.668 22.623-2.027 2.114-3.867 4.458-6.117 6.301-9.455 7.752-16.924 17.046-22.377 27.976l-2.658 2.126-.295.146-.92.77-.072.088c-5.363 4.591-10.729 9.182-16.094 13.773l-.018.054-1.252.929c-5.715 2.907-4.764 8.115-4.516 13.081-1.076.381-2.238.615-3.211 1.176-1.496.862-2.863 1.949-4.285 2.94 1.012 1.388 1.814 3.013 3.072 4.122 5.361 4.727 10.953 9.195 16.24 14 1.467 1.332 2.912 3.424 3.092 5.291.473 4.884-1.412 10.052 2.051 14.529l-1.291.238-39.732-1.719c-6.785-.659-13.525-1.438-19.326-5.56-2.775-1.974-5.713-3.729-8.42-5.79-5.479-4.17-10.746-8.625-16.303-12.686-3.807-2.781-7.955-5.095-11.949-7.616-12.016-5.573-24.717-3.184-37.211-3.184-.294 0-.588.284-.881.436l-4.997-.775-3.761-1.27-.237-1.12c.062-.288.084-.578.064-.872 1.923-1.233 6.18.496 5.586-3.819-.486-3.537-3.66-2.789-6.216-2.971-1.51-.106-2.974-.856-4.459-1.317l.865-6.911 6.531-1.018v-7.385h-12.505l-8.496-.479v7.452l6.191 1.232-.347 1.161c-.077.297-.089.597-.036.898l-.604 5.84-1.686.582c-3.165.017-7.497-1.859-6.994 4.088l4.767 2.606-.233 1.292c-2.039.285-4.074.767-6.119.815-4.104.097-8.214-.042-12.322-.084-3.984-.134-7.967-.268-11.951-.401l-3.047 2.342c.97 1.09 1.801 2.906 2.938 3.124 2.572.492 5.295.174 7.956.224 6.569.125 13.137.353 19.705.33 1.094-.004 2.564-.789 3.196-1.684 1.314-1.859 2.183-4.034 3.235-6.078l2.989-1.077.761 1.183.124 1.001.275 1.007-.068 1.133-.345 2.056.319 2.186-3.537 1.682c.337.64.687 1.037.752 1.478.201 1.356.294 2.729.429 4.097l-.17-.529c.995.668 1.941 1.431 3 1.975.85.437 1.835.608 2.753.917l-.114.417-.138-.883 1.79-7.521c2.387-.359 4.773-.719 7.161-1.077 6.036-.191 12.155-1.198 17.44 2.901.775.96 1.697 2.758 3.168 3.604.596.342 3.482-1.429 3.457-2.177-.172-5.229 3.797-3.893 6.295-3.921 10.021-.115 17.689 5.413 25.193 11.161 7.166 5.488 14.32 10.991 21.479 16.487 3.322 1.899 6.646 3.799 9.971 5.698 5.021.555 10.045 1.109 15.066 1.663l6.949.158 2.318-.283 1.492.355 8.223.283 1.879.246c3.4.179 6.801.357 10.201.535 1.273.074 2.547.148 3.818.224l2.051-.014.453.142.449-.151 3.588 2.089c3.865 5.276 10.688 6.697 17.438 3.634l1.256-.727 2.738-2.801.049-.304c1.201-.451 3.475-1.107 3.434-1.321-.373-1.955-1.148-3.833-1.498-4.842.932-2.439 2.301-4.308 2.221-6.111-.324-7.151 1.541-12.515 8.49-16.138 6.252-3.26 11.832-7.811 17.811-11.861-1.914-4.927-6.137-4.25-9.744-4.76-3.635-.514-7.289-.904-11.348-1.4l5.83-5.284c.297.053.568-.01.812-.188l3.16-1.812c2.697-1.96 5.395-3.92 8.092-5.879l-.182.017 1.031-1.187-.098.071 1.58-1.06c1.74-1.427 3.957-2.541 5.137-4.337 4.469-6.811 11.123-10.378 18.092-14.034 4.9-2.571 8.855-6.943 13.23-10.512l2.91-1.425c.555.766 1.594 1.533 1.59 2.296-.037 7.849 2.92 14.412 8.207 20.051 6.252 7.16 14.494 9.69 23.625 10.146 1.191.438 2.363 1.195 3.576 1.265 6.482.376 11.885 3.015 16.973 6.953 2.632 2.037 6.028 3.078 9.079 4.568zm-393.262-18.524c9.408-10.309 7.866-30.386-2.707-42.729-13.036-15.219-36.061-18.226-52.973-6.919-16.2 10.832-21.225 30.225-11.834 48.089-3.405-13.123-2.65-25.495 6.663-35.945 9.453-10.607 21.626-14.289 35.286-11.561 22.446 4.483 32.372 23.454 25.565 49.065zm85.399 37.898l-.036.277-.423-.188.459-.089z" fill="none"/><path fill-rule="evenodd" clip-rule="evenodd" fill="#AE493F" d="M571 80v17c-1.35 1.342-2.672 2.715-4.057 4.02-1.781 1.676-3.35 3.949-5.477 4.811-4.994 2.022-10.287 3.29-15.41 5.009-1.92.644-3.812 1.522-5.523 2.598-2.889 1.814-7.904.465-9.543-2.645-.592-1.121-1.539-2.054-1.832-2.434-3.156 2.425-5.711 4.268-8.117 6.29-1.117.94-2.453 2.084-2.814 3.38-1.703 6.1-6.191 9.737-10.91 13.316-2.879 2.184-5.531 4.668-8.303 6.996-.699.586-1.424 1.467-2.215 1.564-5.574.684-10.742 2.025-15.029 6.098-1.271 1.207-3.641 1.723-5.516 1.742-5.83.059-15.127 6.681-15.01 12.277.129 6.198-5.535 8.519-8.111 9.368-7.055 2.325-11.775 8.036-18.445 10.492-4.578 1.686-9.152 3.386-13.729 5.08 1.613-1.362 3.129-2.864 4.865-4.045 1.453-.989 3.365-1.352 4.709-2.442 1.99-1.618 3.637-3.655 5.467-5.477 2.184-2.174 5.77-4.01 6.32-6.524 1.082-4.938 4.762-6.315 8.123-8.48 1.098-.707 2.457-1.255 3.184-2.25 4.441-6.074 8.734-12.256 13.205-18.581 1.088.573 2.039 1.237 3.094 1.604 6.154 2.143 9.24.932 11.811-5.058 1.305-3.039 3.312-4.406 6.303-5.858 4.59-2.228 10.727-3.465 11.428-9.292 4.492-3.598 8.316-6.986 12.477-9.892 3.559-2.486 5.971-5.528 6.945-9.73l2.076-2.014c2.719-.513 5.654-.548 8.107-1.652 3.6-1.622 6.326-4.901 11.164-3.465 2.574.764 5.727.071 8.518-.479 8.452-1.665 15.255-6.708 22.245-11.327z"/><path fill-rule="evenodd" clip-rule="evenodd" fill="#85332D" d="M420.959 184.962c4.576-1.693 9.15-3.394 13.729-5.079 6.67-2.456 11.391-8.167 18.445-10.492 2.576-.85 8.24-3.17 8.111-9.368-.117-5.597 9.18-12.219 15.01-12.277 1.875-.02 4.244-.535 5.516-1.742 4.287-4.072 9.455-5.414 15.029-6.098.791-.098 1.516-.979 2.215-1.564 2.771-2.327 5.424-4.812 8.303-6.996 4.719-3.579 9.207-7.216 10.91-13.316.361-1.296 1.697-2.44 2.814-3.38 2.406-2.021 4.961-3.864 8.117-6.29.293.38 1.24 1.312 1.832 2.434 1.639 3.11 6.654 4.459 9.543 2.645 1.711-1.076 3.604-1.954 5.523-2.598 5.123-1.72 10.416-2.987 15.41-5.009 2.127-.862 3.695-3.135 5.477-4.811 1.385-1.304 2.707-2.677 4.057-4.02v14c-1.326.039-2.713-.165-3.967.155-9.248 2.354-18.426 5.015-27.729 7.127-3.131.711-6.557.113-11.361.113-1.58 1.642-4.537 4.321-7.029 7.379-5.785 7.095-13.41 12.915-15.871 22.374-4.375 3.568-8.33 7.94-13.23 10.512-6.969 3.656-13.623 7.224-18.092 14.034-1.18 1.796-3.396 2.91-5.137 4.338l-1.58 1.059.098-.071-1.031 1.187.182-.018c-1.375-.488-2.715-1.235-4.127-1.404-2.197-.264-4.748-.848-6.611-.046-6.662 2.867-13.086 6.282-19.619 9.446-2.66 1.287-5.373 2.463-8.062 3.689-8.932-.238-17.865-.478-26.799-.717l9.617-1.057c3.436-1.38 6.871-2.76 10.307-4.139z"/><path fill-rule="evenodd" clip-rule="evenodd" fill="#C38371" d="M520.965 96.923l-2.076 2.014c-2.818 2.016-5.379 4.7-8.51 5.914-7.396 2.867-13.262 7.625-17.801 13.797-3.461 4.706-8.17 5.193-12.98 5.246-6.859.075-13.727-.556-20.59-.885.377-3.42 6.932-11.536 10.004-11.88 2.361-.264 5.922-1.321 4.783 3.515 1.967.411 3.982 1.351 5.812 1.074 1.98-.3 3.889-1.579 5.652-2.709 4.312-2.766 8.762-5.401 12.721-8.624 5.283-4.301 8.449-10.974 15.322-13.607 1.377-.527 2.373-2.043 3.545-3.103-1.23-.917-2.463-1.833-3.691-2.752-.391-.293-.773-.598-1.158-.897l-4.139-3.924c3.268-4.013 3.268-4.013 14.566-5.412-.107 1.797-.215 3.62-.328 5.545 4.367-6.317 8.48-12.266 12.635-18.273l3.227.999c-1.387 2.93-2.709 5.89-4.174 8.78-1.359 2.683-2.869 5.29-4.35 7.995 9.324 4.122 11.754 3.024 15.438-6.228 2.596.912 5.189 1.823 7.785 2.734 6.725-.014 9.803-10.839 18.342-6.242v5c-2.027.859-4.068 1.687-6.078 2.585-2.441 1.091-4.961 3.352-7.26 3.135-4.826-.456-5.328 2.769-6.539 5.743-6.344-2.679-18.785.007-23.277 5.026-.672-.715-1.342-1.432-1.959-2.093-1 1.797-1.748 3.304-2.652 4.711-.649 1.008-1.506 1.882-2.27 2.816z"/><path fill-rule="evenodd" clip-rule="evenodd" fill="#9F564C" d="M541.375 179.217c-9.131-.457-17.373-2.987-23.625-10.147l3.252-.072.396.229-.4-.225c1.584-1.873 3.17-3.746 4.906-5.795l3.473 1.332 1.559-6.702c1.391.617 2.9 1.19 4.318 1.939 2.018 1.065 3.854 2.708 5.984 3.247 1.551.393 4.045-.057 5.029-1.129.996-1.087.908-3.412.84-5.177-.102-2.569-.895-5.125-.881-7.685.021-3.689.971-7.423.613-11.048-.232-2.36-1.812-6.248-3.262-6.478-2.896-.46-6.354.639-9.135 2.002-2.555 1.253-4.523 3.697-6.861 5.712-3.025-1.958-5.826-4.336-9.342-1.421-.311.259-1.477-.513-2.244-.806l2.086-2.923 3-2.95 1.898-1.015c.154 4.284 3.148 2.866 5.365 2.505 1.393-.227 2.631-1.301 4.025-1.637 9.857-2.379 19.738-4.666 29.613-6.982l-1.129 2.354c1.225 3.384 2.164 5.977 3.104 8.569l-1.799 1.903-.129-1.844-3.334-5.463-3.854 9.416c-2.959 2.078-2.18 4.088.111 6.07l.123 3.959c3.646 4.515 7.291 9.029 11.59 14.351l1.633-4.104 2.699 1.794v10l-15.535 1.828-.279-1.153 4.176-3.186c-9.262.964-17.605 1.833-25.865 2.693l9.412 7.813c-.508.078-1.019.153-1.531.226z"/><path fill-rule="evenodd" clip-rule="evenodd" fill="#B56A5A" d="M537.959 62.959l-3.227-.999c-4.154 6.007-8.268 11.956-12.635 18.273.113-1.925.221-3.748.328-5.545-11.299 1.398-11.299 1.398-14.566 5.412l4.139 3.924-8.965-.941c-2.682-.084-5.363-.169-8.043-.254 5.139-7.31 12.643-10.24 22.477-11.211l-5.895-2.897c3.877-2.08 7.752-4.165 11.633-6.238 8.463-4.522 16.928-9.04 25.395-13.559 1.715-.358 3.545-.446 5.121-1.123 5.805-2.495 11.525-5.184 17.279-7.8v9l-3.07 1.918c-1.777.236-3.656.183-5.312.764-4.752 1.666-9.342 3.81-14.131 5.341-3.855 1.233-7.91 1.846-12.23 2.814l1.711 2.143c-.011.326-.015.652-.009.978z"/><path fill-rule="evenodd" clip-rule="evenodd" fill="#C68E7E" d="M537.959 62.959c-.006-.326-.002-.652.01-.978l9.658 4.798c.957-2.311 2.172-5.236 3.656-8.813l1.182 4.086c4.646-2.498 9.098-4.703 13.316-7.288 1.092-.669 1.451-2.532 2.148-3.846l3.07-1.918v21c-8.539-4.597-11.617 6.228-18.342 6.241-2.596-.912-5.189-1.823-7.785-2.734-3.684 9.252-6.113 10.349-15.438 6.228 1.48-2.706 2.99-5.312 4.35-7.995 1.466-2.891 2.788-5.851 4.175-8.781z"/><path fill-rule="evenodd" clip-rule="evenodd" fill="#490F0B" d="M522.98 130.109l-1.9 1.013-2.998 2.951-2.086 2.923-1.193 2.908-.908.88-5.941 5.939-2.91 1.425c2.461-9.459 10.086-15.278 15.871-22.374 2.492-3.058 5.449-5.737 7.029-7.379 4.805 0 8.23.598 11.361-.113 9.303-2.112 18.48-4.773 27.729-7.127 1.254-.319 2.641-.116 3.967-.155v6c-10.486 2.591-20.973 5.177-31.436 7.855-.082.021.156 1.296.137 1.143l-16.722 4.111z"/><path fill-rule="evenodd" clip-rule="evenodd" fill="#85332D" d="M542.908 178.996c-2.945-2.445-5.891-4.891-9.412-7.813l25.865-2.693-4.176 3.186.279 1.153 15.535-1.828v18c-2.248-.832-4.945-1.134-6.662-2.59-6.251-5.302-13.511-7.187-21.429-7.415z"/><path fill-rule="evenodd" clip-rule="evenodd" fill="#B56A5A" d="M520.965 96.923c.764-.934 1.621-1.808 2.27-2.816.904-1.407 1.652-2.914 2.652-4.711.617.661 1.287 1.378 1.959 2.093 4.492-5.019 16.934-7.705 23.277-5.026 1.211-2.975 1.713-6.199 6.539-5.743 2.299.217 4.818-2.044 7.26-3.135 2.01-.898 4.051-1.726 6.078-2.585v5c-6.99 4.619-13.793 9.662-22.246 11.327-2.791.55-5.943 1.243-8.518.479-4.838-1.437-7.564 1.843-11.164 3.465-2.453 1.104-5.388 1.139-8.107 1.652zM563.959 134.917c-.939-2.592-1.879-5.185-3.104-8.569l1.129-2.354 2.898-.118 3.127-1.032 1.84-.007 1.15.164v38l-2.699-1.794-1.633 4.104c-4.299-5.321-7.943-9.836-11.592-14.35 2.957 1.023 5.914 2.048 8.873 3.07 4.352.56 1.006-2.874 2.084-4.014 3.377 1.713 3.441-.809 2.773-2.636-1.313-3.598-3.198-6.987-4.846-10.464z"/><path fill-rule="evenodd" clip-rule="evenodd" fill="#85332D" d="M569.85 122.836l-1.84.009-3.127 1.03-2.898.118c-9.875 2.316-19.756 4.603-29.613 6.982-1.395.336-2.633 1.411-4.025 1.637-2.217.36-5.211 1.778-5.365-2.505 5.488-1.348 10.977-2.698 16.721-4.11.02.153-.219-1.122-.137-1.143 10.463-2.678 20.949-5.264 31.436-7.855v4l-1.152 1.837z"/><path fill-rule="evenodd" clip-rule="evenodd" fill="#6D635B" d="M542.908 178.996c7.918.228 15.178 2.113 21.43 7.414 1.717 1.456 4.414 1.758 6.662 2.59v3c-3.051-1.49-6.447-2.531-9.076-4.566-5.088-3.938-10.49-6.577-16.973-6.953-1.213-.069-2.385-.826-3.576-1.265l1.533-.22z"/><path fill-rule="evenodd" clip-rule="evenodd" fill="#9F564C" d="M571 40c-5.754 2.616-11.475 5.306-17.279 7.8-1.576.677-3.406.765-5.121 1.123 7.467-3.974 14.934-7.949 22.4-11.923v3zM569.85 122.836l1.15-1.836v2l-1.15-.164z"/><path fill-rule="evenodd" clip-rule="evenodd" fill="#171212" d="M401.033 190.157c8.934.238 17.867.478 26.801.717 4.252-.176 8.555-.003 12.74-.623 4.594-.68 9.08-2.091 13.613-3.184l-5.83 5.284c4.059.496 7.713.887 11.348 1.4 3.607.51 7.83-.167 9.744 4.76-5.979 4.051-11.559 8.602-17.811 11.861-6.949 3.623-8.814 8.986-8.49 16.138.08 1.804-1.289 3.672-2.221 6.111.35 1.009 1.125 2.887 1.498 4.842.041.214-2.232.87-3.434 1.321l-10.09-2.688-9.738-2.947-3.037-1.135c-3.463-4.478-1.578-9.646-2.051-14.529-.18-1.867-1.625-3.959-3.092-5.291-5.287-4.805-10.879-9.273-16.24-14-1.258-1.109-2.061-2.734-3.072-4.122 1.422-.991 2.789-2.078 4.285-2.94.973-.561 2.135-.795 3.209-1.176l1.868.201zm25.563 26.469c-4.375.047-4.701 2.255-.953 8.646.373-3.373.66-5.986.953-8.646z"/><path fill-rule="evenodd" clip-rule="evenodd" fill="#B56A5A" d="M514.803 139.903l1.193-2.908c.768.293 1.934 1.064 2.244.806 3.516-2.915 6.316-.537 9.342 1.421 2.338-2.015 4.307-4.459 6.861-5.712 2.781-1.363 6.238-2.462 9.135-2.002 1.449.23 3.029 4.117 3.262 6.478.357 3.625-.592 7.358-.613 11.048-.014 2.56.779 5.115.881 7.685.068 1.765.156 4.09-.84 5.177-.984 1.072-3.479 1.521-5.029 1.129-2.131-.539-3.967-2.182-5.984-3.247-1.418-.749-2.928-1.322-4.318-1.939-.652 2.807-1.105 4.755-1.559 6.702l-3.473-1.332c-1.736 2.049-3.322 3.922-4.906 5.795l.004-.005-3.252.072c-5.287-5.639-8.244-12.202-8.207-20.051.004-.763-1.035-1.53-1.59-2.296 1.98-1.98 3.961-3.96 5.941-5.938.951 6.325-2.098 13.552 4.723 19.726.848-7.616-.256-13.93-2.451-20.114-.103-.292-.894-.336-1.364-.495z"/><path fill-rule="evenodd" clip-rule="evenodd" fill="#171212" d="M177.738 173.476c6.808-25.61-3.119-44.582-25.565-49.065-13.66-2.728-25.833.954-35.286 11.561-9.313 10.45-10.068 22.822-6.663 35.945-9.39-17.864-4.366-37.258 11.834-48.089 16.912-11.307 39.938-8.3 52.973 6.919 10.573 12.343 12.115 32.42 2.707 42.729z"/><path fill-rule="evenodd" clip-rule="evenodd" fill="#C68E7E" d="M503.033 83.082l8.965.941c.385.3.768.604 1.158.897 1.229.92 2.461 1.835 3.691 2.752-1.172 1.06-2.168 2.576-3.545 3.103-6.873 2.634-10.039 9.306-15.322 13.607-3.959 3.223-8.408 5.858-12.721 8.624-1.764 1.13-3.672 2.409-5.652 2.709-1.83.277-3.846-.663-5.812-1.074 1.139-4.835-2.422-3.779-4.783-3.515-3.072.344-9.627 8.46-10.006 11.88-.314.033-.631.048-.949.046l-1.025.987c.002.315-.018.629-.059.942l-3.486-.271c6.865-7.563 13.594-15.257 20.668-22.623 2.668-2.78 6.131-4.798 9.234-7.164 4.834-.812 9.664-1.624 13.51-2.269 2.238-3.49 4.185-6.531 6.134-9.572z"/><path fill-rule="evenodd" clip-rule="evenodd" fill="#C38371" d="M453.486 124.713l3.486.271c-1.471 1.366-2.746 3.092-4.453 4.031-5.102 2.805-6.539 5.622-5.375 12.062.602-.394 1.135-.69 1.607-1.062 1.203-.944 2.381-1.922 3.568-2.886.557 1.374 1.312 2.703 1.629 4.13.965 4.341-3.32 6.62-4.23 9.663-2.375 7.928-9.008 9.69-14.727 13.059.764-1.069 1.34-2.374 2.33-3.163 2.469-1.972 4.355-4.018 3.006-7.799-12.959 4.42-19.602 15.147-26.635 25.566 2.918-1.315 5.377-3.264 7.998-4.959 1.648-1.065 3.541-1.752 5.324-2.608-3.758 7.238-18.945 15.664-25.762 14.516.902 1.436 2.033 2.957 3.484 3.377 1.834.531 3.93.167 5.912.188l-9.617 1.057-1.867-.2c-.246-4.966-1.197-10.174 4.52-13.081l1.25-.929.018-.054c1.365 3.173 3.234 4.221 5.607 1 3.582-4.861 7-9.844 10.486-14.773l.072-.088.92-.77.293-.146 2.66-2.126c5.453-10.93 12.922-20.224 22.377-27.976 2.252-1.842 4.092-4.186 6.119-6.3z"/><path fill-rule="evenodd" clip-rule="evenodd" fill="#6D635B" d="M351.053 228.038c-7.158-5.497-14.312-11-21.479-16.488-7.504-5.748-15.172-11.276-25.193-11.161-2.498.028-6.467-1.308-6.295 3.921.025.748-2.861 2.519-3.457 2.177-1.471-.847-2.393-2.645-3.168-3.604-5.285-4.1-11.404-3.093-17.44-2.901l1.995-4.621c1.665.259 3.331.518 4.996.775 5.716.626 11.435 1.233 17.15 1.882 5.857.665 11.701 1.45 17.57 1.988 1.08.1 2.246-.725 3.373-1.122 3.994 2.521 8.143 4.835 11.949 7.616 5.557 4.061 10.824 8.516 16.303 12.686 2.707 2.061 5.645 3.816 8.42 5.79 5.801 4.121 12.541 4.9 19.326 5.56-.029 1.219-.057 2.438-.082 3.657-4.338-1.073-8.676-2.146-13.014-3.218-2.878-3.864-7.362-1.735-10.954-2.937zM258.04 191.938c-1.052 2.045-1.921 4.22-3.235 6.079-.632.895-2.103 1.68-3.196 1.684-6.568.022-13.136-.205-19.705-.33-2.661-.05-5.384.269-7.956-.224-1.137-.218-1.968-2.034-2.938-3.124l3.047-2.342c-1.674 2.872-.882 4.512 2.473 4.35 2.769-.135 5.555-.526 8.247-1.168.598-.143.831-1.813 1.232-2.78 4.107.042 8.217.181 12.322.084 2.045-.049 4.08-.53 6.119-.815l.233-1.292c-1.542-.844-3.084-1.687-4.767-2.606-.503-5.947 3.829-4.071 6.993-4.088l1.131 6.572z"/><path fill-rule="evenodd" clip-rule="evenodd" fill="#490F0B" d="M454.188 187.067c-4.533 1.093-9.02 2.504-13.613 3.184-4.186.62-8.488.447-12.74.623 2.688-1.228 5.4-2.403 8.061-3.69 6.533-3.164 12.957-6.579 19.619-9.446 1.863-.802 4.414-.218 6.611.046 1.412.169 2.752.916 4.127 1.404-2.697 1.96-5.395 3.92-8.092 5.879l-3.16 1.812c-.245.179-.517.241-.813.188zM375.021 234.191c.025-1.219.053-2.438.082-3.657l39.734 1.719-.914 4.641-.449.151-.453-.142-2.051.014-3.818-.224c-3.258-2.904-6.68-2.645-10.201-.535l-1.879-.246c-2.641-3.04-5.395-2.704-8.223-.283l-1.494-.355-2.316.283c-2.316-.053-4.633-.105-6.947-.156l-1.071-1.21z"/><path fill-rule="evenodd" clip-rule="evenodd" fill="#6D635B" d="M258.594 184.782l.602-5.839.038-.899.345-1.16 2.232-.105.38.41.646 7.799 4.157-.997c1.485.461 2.949 1.211 4.459 1.317 2.556.182 5.729-.566 6.216 2.971.594 4.315-3.663 2.586-5.586 3.819-3.432-.019-6.862-.036-10.293-.054l-.761-1.182-2.435-6.08z"/><path fill-rule="evenodd" clip-rule="evenodd" fill="#C38371" d="M503.033 83.082l-6.135 9.576c-3.846.646-8.676 1.458-13.51 2.269 2.674-4.784 4.49-10.234 9.979-12.83l1.623.73c2.68.086 5.362.171 8.043.255z"/><path fill-rule="evenodd" clip-rule="evenodd" fill="#171212" d="M261.79 192.044c3.431.018 6.861.035 10.293.054.02.294-.002.584-.064.872-.072.134-.234.303-.198.395.102.259.284.486.436.726l3.761 1.27-1.995 4.621-7.161 1.076-3.459 1.63-1.306-3.261-.319-2.186.345-2.056.068-1.133-.275-1.007-.126-1.001zM319.105 198.883c-1.127.397-2.293 1.222-3.373 1.122-5.869-.538-11.713-1.323-17.57-1.988-5.715-.648-11.434-1.256-17.15-1.882.294-.151.588-.436.882-.436 12.495 0 25.196-2.389 37.211 3.184z"/><path fill-rule="evenodd" clip-rule="evenodd" fill="#6D635B" d="M261.885 168.677h12.505v7.385l-6.531 1.018-5.668.109-.379-.409.073-8.103z"/><path fill-rule="evenodd" clip-rule="evenodd" fill="#C68E7E" d="M421.047 162.119c-3.486 4.93-6.904 9.912-10.486 14.773-2.373 3.221-4.242 2.173-5.607-1 5.364-4.591 10.73-9.182 16.093-13.773zM261.885 168.677l-.073 8.103-2.233.104c-2.242-.447-4.487-.895-6.189-1.233v-7.452l8.495.478z"/><path fill-rule="evenodd" clip-rule="evenodd" fill="#9F564C" d="M494.99 82.828l-1.623-.73c4.334-6.819 11.346-9.995 18.205-13.377l5.895 2.896c-9.834.971-17.338 3.901-22.477 11.211z"/><path fill-rule="evenodd" clip-rule="evenodd" fill="#490F0B" d="M262.095 199.426l1.306 3.261 3.459-1.63-1.79 7.521.138.883.114-.417c-.918-.309-1.903-.48-2.753-.917-1.059-.544-2.005-1.307-3-1.975l.17.529c-.135-1.367-.228-2.74-.429-4.097-.065-.44-.415-.838-.752-1.478l3.537-1.68z"/><path fill-rule="evenodd" clip-rule="evenodd" fill="#6D635B" d="M428.902 236.097l10.09 2.688-.047.303-2.74 2.802-1.256.726-7.994-2.415 1.947-4.104z"/><path fill-rule="evenodd" clip-rule="evenodd" fill="#C38371" d="M426.955 240.201c2.666.805 5.33 1.608 7.994 2.414-6.75 3.064-13.572 1.644-17.439-3.634l2.352-.045c2.345.531 3.947 5.222 7.093 1.265zM375.021 234.191l1.07 1.209c-5.023-.556-10.047-1.11-15.068-1.664l.984-2.763 13.014 3.218z"/><path fill-rule="evenodd" clip-rule="evenodd" fill="#171212" d="M236.008 194.082c-.401.967-.634 2.638-1.232 2.78-2.691.642-5.478 1.033-8.247 1.168-3.355.162-4.146-1.478-2.473-4.35l11.952.402zM262.191 177.188l5.668-.109-.865 6.911-4.157.997c-.254-3.05-.45-5.425-.646-7.799z"/><path fill-rule="evenodd" clip-rule="evenodd" fill="#C68E7E" d="M362.008 230.974l-.984 2.763-9.971-5.699c3.592 1.202 8.076-.927 10.955 2.936z"/><path fill-rule="evenodd" clip-rule="evenodd" fill="#6D635B" d="M419.861 238.937l-2.352.045-3.586-2.088.914-4.641 1.289-.238 3.037 1.135.698 5.787zM386.85 235.629c2.828-2.421 5.582-2.757 8.223.283l-8.223-.283z"/><path fill-rule="evenodd" clip-rule="evenodd" fill="#C68E7E" d="M258.594 184.782l2.435 6.08-2.989 1.076-1.132-6.574 1.686-.582z"/><path fill-rule="evenodd" clip-rule="evenodd" fill="#6D635B" d="M396.951 236.158c3.521-2.109 6.943-2.369 10.201.535-3.4-.177-6.8-.356-10.201-.535z"/><path fill-rule="evenodd" clip-rule="evenodd" fill="#C38371" d="M436.205 241.89l2.74-2.802c-.916.934-1.828 1.868-2.74 2.802z"/><path fill-rule="evenodd" clip-rule="evenodd" fill="#171212" d="M455 186.879l3.16-1.812-3.16 1.812z"/><path fill-rule="evenodd" clip-rule="evenodd" fill="#C68E7E" d="M424.992 158.99l-2.66 2.126 2.66-2.126z"/><path fill-rule="evenodd" clip-rule="evenodd" fill="#6D635B" d="M383.039 235.557l2.316-.283-2.316.283zM410.971 236.917l2.051-.014-2.051.014z"/><path fill-rule="evenodd" clip-rule="evenodd" fill="#490F0B" d="M263.137 211.374l-.459.089.423.188z"/><path fill-rule="evenodd" clip-rule="evenodd" fill="#6D635B" d="M262.121 195.185l-.345 2.056.345-2.056zM272.255 194.09c-.151-.239-.334-.467-.436-.726-.036-.092.126-.261.198-.395l.238 1.121zM261.914 193.045l.275 1.007-.275-1.007z"/><path fill-rule="evenodd" clip-rule="evenodd" fill="#C68E7E" d="M422.039 161.262l-.92.77.92-.77zM404.936 175.946l-1.25.929 1.25-.929z"/><path fill-rule="evenodd" clip-rule="evenodd" fill="#490F0B" d="M466.07 179.205l1.031-1.187-1.031 1.187z"/><path fill-rule="evenodd" clip-rule="evenodd" fill="#C68E7E" d="M259.234 178.044l-.038.899c-.051-.302-.039-.602.038-.899z"/><path fill-rule="evenodd" clip-rule="evenodd" fill="#490F0B" d="M467.004 178.09l1.58-1.059-1.58 1.059z"/><path fill-rule="evenodd" clip-rule="evenodd" fill="#B56A5A" d="M410.65 189.1c-1.982-.021-4.078.343-5.912-.188-1.451-.42-2.582-1.941-3.484-3.377 6.816 1.148 22.004-7.277 25.762-14.516 2.658-2.346 5.316-4.691 7.977-7.037 5.719-3.368 12.352-5.131 14.727-13.059.91-3.043 5.195-5.322 4.23-9.663-.316-1.427-1.072-2.756-1.629-4.13-1.188.964-2.365 1.941-3.568 2.886-.473.371-1.006.668-1.607 1.062-1.164-6.439.273-9.257 5.375-12.062 1.707-.938 2.982-2.665 4.453-4.031.041-.313.061-.627.059-.943l1.025-.986c.318.002.635-.013.949-.046 6.865.329 13.732.96 20.592.885 4.811-.053 9.52-.541 12.98-5.246 4.539-6.171 10.404-10.93 17.801-13.797 3.131-1.214 5.691-3.897 8.51-5.914-.975 4.201-3.387 7.243-6.945 9.729-4.16 2.906-7.984 6.294-12.477 9.892-.701 5.827-6.838 7.065-11.428 9.292-2.99 1.452-4.998 2.819-6.303 5.858-2.57 5.989-5.656 7.2-11.811 5.058-1.055-.366-2.006-1.03-3.094-1.604-4.471 6.325-8.764 12.507-13.205 18.581-.727.995-2.086 1.543-3.184 2.25-3.361 2.165-7.041 3.543-8.123 8.48-.551 2.515-4.137 4.351-6.32 6.524-1.83 1.821-3.477 3.858-5.467 5.477-1.344 1.091-3.256 1.453-4.709 2.442-1.736 1.181-3.252 2.683-4.865 4.045-3.436 1.379-6.871 2.759-10.309 4.138z"/><path fill-rule="evenodd" clip-rule="evenodd" fill="#C38371" d="M563.949 152.031l-8.873-3.071c-.039-1.32-.08-2.64-.121-3.959l-.111-6.071c1.201-2.938 2.404-5.874 3.854-9.416 1.154 1.891 2.244 3.677 3.332 5.463-.424.925-1.346 1.943-1.191 2.76.895 4.79 2.046 9.534 3.11 14.294zM563.959 134.917c1.648 3.477 3.533 6.866 4.848 10.464.668 1.827.604 4.349-2.775 2.636-1.289-3.732-2.58-7.464-3.871-11.196l1.798-1.904z"/><path fill-rule="evenodd" clip-rule="evenodd" fill="#C68E7E" d="M562.16 136.82c1.291 3.732 2.582 7.464 3.871 11.196-1.076 1.14 2.27 4.573-2.082 4.014-1.064-4.759-2.215-9.503-3.111-14.294-.154-.816.768-1.835 1.191-2.76l.131 1.844z"/><path fill-rule="evenodd" clip-rule="evenodd" fill="#B56A5A" d="M554.844 138.93l.111 6.071c-2.291-1.983-3.07-3.993-.111-6.071z"/><path fill-rule="evenodd" clip-rule="evenodd" fill="#85332D" d="M518.082 134.072l2.998-2.951c-.998.985-1.998 1.968-2.998 2.951z"/><path fill-rule="evenodd" clip-rule="evenodd" fill="#B56A5A" d="M520.998 169.002l.4.225-.396-.229-.004.004z"/><path fill-rule="evenodd" clip-rule="evenodd" fill="#C38371" d="M567.93 50.918c-.697 1.314-1.057 3.176-2.148 3.846-4.219 2.585-8.67 4.79-13.316 7.288l-1.182-4.086c-1.484 3.577-2.699 6.503-3.656 8.813l-9.658-4.798-1.713-2.143c4.32-.968 8.375-1.582 12.23-2.814 4.789-1.531 9.379-3.675 14.131-5.341 1.655-.581 3.534-.528 5.312-.765zM514.803 139.903c.471.158 1.262.203 1.363.492 2.195 6.185 3.299 12.498 2.451 20.114-6.82-6.174-3.771-13.4-4.723-19.726l.909-.88z"/><path fill-rule="evenodd" clip-rule="evenodd" fill="#9F564C" d="M564.883 123.875l3.127-1.03-3.127 1.03z"/><path fill-rule="evenodd" clip-rule="evenodd" fill="#C68E7E" d="M419.861 238.937l-.697-5.787 9.738 2.947c-.65 1.368-1.299 2.735-1.947 4.104-3.146 3.957-4.748-.734-7.094-1.264z"/><path fill-rule="evenodd" clip-rule="evenodd" fill="#6D635B" d="M426.596 216.626c-.293 2.66-.58 5.273-.953 8.646-3.748-6.391-3.422-8.599.953-8.646z"/><path fill-rule="evenodd" clip-rule="evenodd" fill="#C38371" d="M458.057 123.055l-1.025.986 1.025-.986z"/><path fill-rule="evenodd" clip-rule="evenodd" fill="#C68E7E" d="M434.992 163.981l-7.977 7.037c-1.783.856-3.676 1.543-5.324 2.608-2.621 1.695-5.08 3.644-7.998 4.959 7.033-10.419 13.676-21.146 26.635-25.566 1.35 3.781-.537 5.827-3.006 7.799-.99.789-1.566 2.094-2.33 3.163z"/></svg>