<svg xmlns="http://www.w3.org/2000/svg" width="570" height="265" viewBox="0 0 570 265"><path d="M571 173v92.978c-199.927.008-399.853.008-599.89.008v-264.833h599.89v9.848c-14.839 8.705-29.701 17.372-44.5 26.146-3.228 1.913-6.129 4.376-9.353 6.297-7.236 4.312-14.878 8.015-21.767 12.81-3.875 2.698-6.581 7.077-9.813 10.699-.346-.033-.529.124-.55.47l-1.505.635-.591.763c-4.683 5.711-9.402 11.394-14.041 17.142-8.331 10.321-16.614 20.683-24.917 31.027-2.104 1.831-4.657 3.341-6.232 5.549-6.413 8.995-12.527 18.203-18.752 27.332-7.017 3.947-12.953 9.032-16.988 16.121-5.373 4.187-5.96 6.605-3.15 13.003.086.274.113.554.083.84l-4.939 1.251c-4.354 1.918-4.826 3.505-1.573 5.951 6.744 5.071 13.579 10.022 20.377 15.023 3.714 5.489-1.508 13.129 4.357 18.1l-1.979.182-35.358.757c-6.317-.397-12.635-.795-18.952-1.193l-5.745-2.909c-3.047-1.603-6.093-3.205-9.14-4.807l-.538-2.77-1.515 1.703c-3.854-3.026-7.708-6.054-11.562-9.081l-.001-1.147.306.027-.202 1.121-3.42-3.255.215-.039-.105.157-1.199.357c-4.044-5.548-9.868-8.201-16.366-8.37-11.896-.308-23.811.12-35.718.242-.217-.268-.445-.279-.688-.033l-4.123-1.623.199-1.624c4.154.605 6.073-.636 4.349-5.294l-8.159 1.886c-2.576-2.4-3.303-10.09-.247-11.201 3.255-1.183 2.925-2.994 2.529-5.351l1.43-2.057-2.103.415-9.213-.134c-9.813-.771-10.346-.383-9.327 7.321l4.65-.285c1.669.545 3.213 2.831 5.101.371l.585 8.434c-3.137.712-6.273 1.425-9.409 2.138.592 2.168 1.186 4.336 1.771 6.507.042.154.012.328.015.493l-5.758 2.378-11.386-.571c-4.117.011-8.239.14-12.35-.011-2.567-.093-3.218.921-2.537 3.199-.649 3.299 1.548 2.948 3.582 2.784 4.89-.395 9.8-.632 14.659-1.261 2.905-.375 5.73-1.37 8.59-2.086 2.812 2.513 5.623 2.395 6.062-.308.206-1.267-.068-2.611-.125-3.921l6.81-3.233c.237 2.638.475 5.276.71 7.913-.55 1.322-1.098 2.646-1.646 3.971l-2.309 3.82 3.747 1.835.875-2.578 1.538.76-.521-1.852-.537-2.796.314-1.617 12.123-.688c1.639-.115 3.337-.002 4.911-.392 4.307-1.066 7.685-.854 7.57 5.05l2.335-1.703 7.782 2.527v-6.349c3.045.01 6.104.184 9.13-.057 1.083-.086 2.086-1.173 3.126-1.802l14.402 6.003c5.524 4.033 11.048 8.067 16.57 12.1l6.485 4.102c.168.116.228.273.181.472l.612.704 2.761 1.777c4.657 5.826 17.15 9.216 23.994 6.51l33.021-.199 3.214.228h5.642c2.396 1.723 4.276 3.073 6.155 4.423 4.799 1.535 9.56 2.469 14.045-.898l3.859-3.525 3.136-2.074-3-3.736c3.976-3.02 3.034-7.346 3.029-11.421-.001-1.163-.256-2.387.024-3.475.338-1.312.798-2.91 1.765-3.688 6.209-4.994 12.604-9.758 18.858-14.697 1.293-1.021 2.252-2.465 3.364-3.713-1.755-1.018-3.429-2.695-5.282-2.928-5.254-.659-10.581-.728-15.879-1.028 5.037-4.05 10.074-8.099 15.112-12.147 4.315-4.547 8.605-9.117 12.957-13.629 2.01-2.083 3.854-4.517 6.266-5.984 8.217-5.005 16.935-9.265 23.035-17.12.223-.287 1.134-.04 1.724-.034-.671 8.823 2.271 16.181 8.901 22.049l6.14 3.838 2.638 1.229 2.278.902c.598.263 1.172.664 1.796.768 8.645 1.434 17.296 2.825 25.946 4.229 5.776 3.282 11.553 6.567 17.329 9.852zm-450.968-6.639c-.485-15.841 4.12-25.331 15.973-28.355 21.801-5.562 32.573 4.987 33.827 27.976 4.928-12.054.754-24.586-9.212-31.347-11.106-7.534-26.308-6.203-35.842 3.14-7.881 7.72-10.176 20.165-4.746 28.586zm.396 1.65l.138-.062 1.247 2.861-.363.146-1.022-2.945zm145.134 38.516z" fill="none"/><path fill-rule="evenodd" clip-rule="evenodd" fill="#802C22" d="M505.972 130.122c-.59.002-1.501-.245-1.724.042-6.101 7.855-14.818 12.115-23.035 17.12-2.411 1.468-4.256 3.901-6.266 5.984-4.352 4.512-8.642 9.082-12.958 13.629-1.628-.468-3.543-1.737-4.837-1.273-9.367 3.354-18.625 7.021-27.877 10.691-1.545.613-2.892 1.725-4.329 2.605l-2.946.101-6.088-.225c2.135-1.562 4.136-3.367 6.433-4.639 4.725-2.617 9.723-4.749 14.389-7.46 3.911-2.271 7.594-4.969 11.222-7.687 3.69-2.765 9.421-5.242 10.29-8.812 1.625-6.669 6.768-10.741 9.232-16.551.354-.833 3.586-1.565 4.044-1.054 3.127 3.493 6.579 2.52 9.235.275 2.822-2.384 5.859-3.459 9.161-4.79 4.893-1.972 9.182-5.479 13.637-8.468 1.206-.809 2.4-1.937 3.067-3.199 4.64-8.779 9.104-17.651 13.757-26.423.325-.613 1.713-.663 2.606-.976v.004c2.729 6.335 4.01 7.359 10.346 5.892 5.212-1.208 10.413-2.893 15.254-5.149 4.366-2.036 8.333-5 12.299-7.805 3.499-2.474 6.754-5.291 10.116-7.957v13c-1.133.17-2.383.089-3.379.553-5.778 2.691-11.302 6.076-17.285 8.147-7.625 2.639-15.791 3.736-23.37 6.476-5.432 1.963-10.891 4.835-12.981 11.132l-.615 1.817c-.688 1.402-1.528 2.754-2.015 4.223-.38 1.146-.32 2.438-.456 3.664.021.295.02.591-.001.886-.285.063-.563.146-.837.248l-4.089 5.979z"/><path fill-rule="evenodd" clip-rule="evenodd" fill="#B46858" d="M510.897 123.897c.021-.295.021-.591.002-.886 3.498-1.815 6.751-4.69 11.165-2.281.602.328 1.858.287 2.342-.129 3.613-3.111 7.108-6.36 10.641-9.566l.945-.027 3.007-2.019 8.86-2.111c1.624-.096 3.363.151 4.853-.347 6.138-2.054 12.199-4.334 18.288-6.531v7l-7.682 3.134c1.801 3.768 2.956 6.611 4.517 9.212.522.871 2.08 1.121 3.165 1.654v2l-2.996-.512c.345 4.347.566 8.545 1.089 12.707.125.999 1.245 1.873 1.907 2.805v3c-2.645.093-6.324-2.896-6.72 2.258-1.039-.842-1.977-1.455-2.734-2.241-3.195-3.316-6.337-6.685-9.498-10.034 2.626.357 5.253.715 7.879 1.071l2.774.022c-.924-4.148 1.037-8.826-2.544-12.523-1.571-1.621-2.696-3.676-4.023-5.533l-2.591-3.376-1.57.244c-.424 4.865-.902 9.728-1.237 14.599-.101 1.462.201 2.952.318 4.43l-3.391-.583c-1.692 3.794-4.148 7.171-1.062 11.562 1.338 1.904.432 3.954-2.79 4.157-5.479.347-10.379-.601-14.307-5.163-2.058 2.938-3.816 5.451-5.575 7.966l-.921 3.146c-2.712.392-5.424.784-8.136 1.177-6.63-5.867-9.572-13.225-8.901-22.048 1.362-2 2.726-3.992 4.088-5.985.062 4.924-.427 9.992 3.117 14.005l1.573-.393c-1.283-4.621-2.567-9.24-3.852-13.861zm10.108 19.095l-1.069-.743-.248.382 1.304.378.72 2.66 1.109-.534-1.816-2.143z"/><path fill-rule="evenodd" clip-rule="evenodd" fill="#AF483E" d="M571 60v3c-9.251.03-12.673 2.625-15.35 11.645-1.589 5.352-8.267 9.66-13.966 8.957l-.34-2.234c-2.639 1.746-5.963 2.927-7.646 5.28-3.142 4.392-6.413 4.869-10.714 2.372v-.004l-6.979-6.812-1.184.865 1.989 6.548c-.851.609-1.735 1.079-2.411 1.757-2.416 2.424-6.314 4.646-6.806 7.443-.991 5.644-4.621 7.197-8.897 8.896-1.256.498-2.26 1.688-3.309 2.638-3.581 3.246-7.085 6.58-10.713 9.773-1.838 1.619-3.941 2.934-5.812 4.519-3.049 2.583-5.483 6.573-10.259 2.011-1.693-1.617-4.369-1.332-4.684 2.436-.2 2.393-.679 5.199-2.093 6.978-5.576 7.013-9.268 15.773-17.939 20.027-.725.355-1.503.886-1.916 1.548-5.362 8.588-13.646 12.751-22.995 15.337 1.244-1.523 2.498-4.336 3.73-4.327 3.725.028 5.248-2.067 6.873-4.702.716-1.161 1.871-2.419 3.097-2.831 4.683-1.573 6.611-4.951 7.415-9.535.27-1.538 1.292-3.184 2.444-4.285 4.222-4.035 8.876-7.377 10.87-13.525 3.201-9.87 5.09-10.746 15.799-10.763 1.747-.003 3.493-.001 5.39-.001v-9.094c7.543-2.421 14.45-5.366 18.807-12.553 2.147-3.544 5.145-7.283 8.695-9.1 5.375-2.75 8.121-7.108 10.469-11.779 1.671-.226 3.718.102 4.304-.675 5.35-7.084 14.425-5.649 21.151-9.48.385-.22 1.185.267 1.783.45 3.527 1.083 6.601 1.019 7.558-2.102 2.388-.624 4.079-.76 5.448-1.495 2.247-1.208 4.111-3.277 6.448-4.131 3.783-1.382 7.816-2.072 11.743-3.052z"/><path fill-rule="evenodd" clip-rule="evenodd" fill="#B46858" d="M571 60c-3.927.98-7.96 1.67-11.741 3.05-2.337.854-4.201 2.923-6.448 4.131-1.369.735-3.061.871-5.448 1.495-.957 3.12-4.03 3.185-7.558 2.102-.599-.184-1.398-.67-1.783-.45-6.727 3.831-15.802 2.396-21.151 9.48-.586.776-2.633.449-4.304.675-2.348 4.671-5.094 9.029-10.469 11.779-3.551 1.816-6.548 5.556-8.695 9.1-4.356 7.187-11.264 10.132-18.807 12.553v9.094c-1.896 0-3.643-.002-5.39.001-10.709.017-12.598.893-15.799 10.763-1.994 6.148-6.648 9.49-10.87 13.525-1.152 1.102-2.175 2.747-2.444 4.285-.804 4.584-2.732 7.962-7.415 9.535-1.226.412-2.381 1.67-3.097 2.831-1.625 2.635-3.148 4.73-6.873 4.702-1.232-.009-2.486 2.804-3.73 4.327l-11.01 5.088-7.031.685 2.067-4.831.485.027.485-.002 2.004-1.057 2.967-.042c2.999.431 4.223-.975 4.005-3.871 10.446-5.794 16.922-15.744 25.063-23.95.925-.268 2.207-.238 2.715-.851 3.113-3.751 6.068-7.635 9.041-11.5 2.284-2.97 1.228-7.004-2.424-8.621-1.734-.768-3.7-1.016-5.84-1.572l3.461-5.488c.929-.611 1.889-1.18 2.781-1.841 3.661-2.713 6.837-6.547 12.225-5.195 1.379.349 2.803 1.112 4.131.973 4.655-.492 9.28-1.277 13.908-2.004.619-.097 1.167-.611 1.788-.738 4.239-.866 6.135-4.16 8.417-7.391 3.632-5.141 7.842-9.873 11.807-14.777l1.965-.037c1.259-1.146 2.621-2.196 3.753-3.455 1.849-2.058 3.153-4.915 5.394-6.242 4.172-2.47 8.99-3.827 13.268-6.149 2.383-1.294 4.223-2.681 7.345-2.438 4.162.324 8.884.412 12.548-1.227 8.047-3.598 15.579-8.345 23.322-12.621 1.125-.621 2.255-1.233 3.383-1.85-.001 2.666-.001 5.332-.001 7.999z"/><path fill-rule="evenodd" clip-rule="evenodd" fill="#C3826F" d="M571 52c-1.128.616-2.258 1.229-3.383 1.85-7.743 4.276-15.275 9.023-23.322 12.621-3.664 1.639-8.386 1.551-12.548 1.227-3.122-.243-4.962 1.144-7.345 2.438-4.277 2.322-9.096 3.68-13.268 6.149-2.24 1.327-3.545 4.185-5.394 6.242-1.132 1.259-2.494 2.31-3.753 3.455-1.022-3.522.296-6.968 2.723-8.75 4.884-3.585 6.121-5.575 4.87-10.213h-7.547l-.022-2.027 2.897-1.757-1.931-2.25 3.988-4.719.869.689-.479 4.163 6.791-4.249 1.383 3.084-.91-1.032c5.87-7.753 11.74-15.506 18.138-23.955l2.24 4.062v5.407l-5.566 1.586c2.67 2.593-.733 2.864-1.558 4.155-2.211 3.466-4.353 6.976-6.582 10.564l6.119 2.904c3.028-2.532 7.931-2.441 8.568-7.341.128-.977.503-1.921 1.161-4.338l1.483 6.125 3.598-2.779 1.606 2.315c1.204-1.285 2.44-3.322 3.062-3.149 3.358.935 4.183-1.551 5.825-3.348 1.01-1.104 2.812-1.804 4.356-2.041 7.464-1.146 9.317-3.03 9.451-9.896.018-.927.628-1.843 1.005-2.875l3.472.682v2l-1.563 1.233 1.563.767c.003 3.668.003 7.334.003 11.001z"/><path fill-rule="evenodd" clip-rule="evenodd" fill="#B46858" d="M502.013 64.991l.021 2.027-7.025-.003-2.028.028-7.412-.092c3.232-3.622 5.938-8.001 9.813-10.699 6.889-4.795 14.53-8.498 21.767-12.81 3.224-1.921 6.125-4.384 9.353-6.297 14.797-8.773 29.659-17.44 44.498-26.145v12c-6.223 2.698-12.389 5.538-18.695 8.021-2.375.936-7.077.618-7.286 1.601-1.009 4.743-5.729 3.979-8.038 6.458l-1.982-.051-2.24-4.062-18.138 23.955.91 1.032-1.383-3.084-6.791 4.249.479-4.163-.869-.689-3.987 4.719-1.997 1.999-1.483 1.276 2.507.729.006.001z"/><path fill-rule="evenodd" clip-rule="evenodd" fill="#C58E7D" d="M534.998 39.028l1.982.05c1.343.259 2.937 1.106 3.98.662 2.734-1.164 5.114-3.162 7.849-4.33 3.894-1.665 7.978-2.887 12.406-4.448 1.581 2.039 3.859 2.977 4.609 1.367l5.175 2.671v2l-3.472-.682c-.377 1.032-.987 1.948-1.005 2.875-.134 6.866-1.987 8.751-9.451 9.896-1.545.237-3.347.938-4.356 2.041-1.643 1.797-2.467 4.282-5.825 3.348-.622-.173-1.858 1.864-3.062 3.149l-1.606-2.315-3.598 2.779-1.483-6.125c-.658 2.417-1.033 3.361-1.161 4.338-.638 4.899-5.54 4.809-8.568 7.341l-6.119-2.904c2.229-3.589 4.371-7.099 6.582-10.564.824-1.291 4.228-1.562 1.558-4.155l5.566-1.586-.001-5.408zm4.628 5.248c-.11-.282-.154-.716-.351-.803s-.546.176-.828.285c.11.282.153.715.351.804.194.087.545-.174.828-.286z"/><path fill-rule="evenodd" clip-rule="evenodd" fill="#9F534A" d="M552.048 130.982c3.161 3.35 6.303 6.718 9.498 10.034.758.786 1.695 1.399 2.734 2.241.396-5.154 4.075-2.165 6.72-2.258v10c-5.285.604-10.562 1.292-15.859 1.758-1.345.118-2.752-.47-4.131-.734l6.775-2.51-.463-1.221-18.274 3.612c-1.134-.968-2.155-2.556-3.425-2.787-3.846-.703-7.789-.882-11.693-1.265l5.575-7.964c3.928 4.562 8.828 5.51 14.307 5.163 3.222-.203 4.128-2.253 2.79-4.157-3.087-4.392-.631-7.769 1.062-11.562l3.39.584.994 1.066z"/><path fill-rule="evenodd" clip-rule="evenodd" fill="#9D3B36" d="M522.985 89.02c4.301 2.497 7.572 2.02 10.714-2.372 1.683-2.354 5.007-3.534 7.646-5.28l.34 2.234c5.699.703 12.377-3.605 13.966-8.957 2.676-9.02 6.098-11.615 15.349-11.645v11c-3.362 2.666-6.617 5.483-10.116 7.957-3.966 2.805-7.933 5.769-12.299 7.805-4.841 2.257-10.042 3.941-15.254 5.149-6.336 1.468-7.617.443-10.346-5.891zM551.01 152.024c1.379.264 2.786.852 4.131.733 5.297-.466 10.574-1.153 15.859-1.758v18c-2.219-.949-5.151-1.312-6.512-2.967-3.12-3.796-6.904-3.147-10.817-2.889-8.65-1.403-17.302-2.795-25.946-4.229-.624-.104-1.198-.505-1.796-.768 2.696-1.049 5.394-2.098 8.091-3.146 5.663-.99 11.327-1.983 16.99-2.976z"/><path fill-rule="evenodd" clip-rule="evenodd" fill="#302019" d="M513.983 113.311c2.092-6.3 7.551-9.172 12.982-11.135 7.579-2.739 15.745-3.837 23.37-6.476 5.983-2.071 11.507-5.456 17.285-8.147.996-.464 2.246-.383 3.379-.553v6c-4.158 1.971-8.178 4.351-12.507 5.818-6.959 2.358-14.063 4.369-21.226 6.002-2.966.676-2.931 1.969-2.353 4.119l-5.84.164-2.287 1.72-3.743.99-4.061.138-4.999 1.36z"/><path fill-rule="evenodd" clip-rule="evenodd" fill="#C3826F" d="M571 35l-5.175-2.671c-.75 1.609-3.028.672-4.609-1.367-4.429 1.562-8.513 2.783-12.406 4.448-2.734 1.168-5.114 3.166-7.849 4.33-1.044.444-2.638-.403-3.98-.662 2.309-2.479 7.029-1.714 8.038-6.457.209-.982 4.911-.665 7.286-1.601 6.306-2.482 12.472-5.322 18.695-8.02v12z"/><path fill-rule="evenodd" clip-rule="evenodd" fill="#802C22" d="M534.914 108.938c-.577-2.149-.612-3.442 2.354-4.118 7.162-1.633 14.267-3.644 21.226-6.002 4.329-1.468 8.349-3.848 12.507-5.818v3c-4.201 1.767-8.46 3.409-12.586 5.337-3.597 1.68-7.043 3.682-10.555 5.541l-8.86 2.111-2.954.137-1.132-.188z"/><path fill-rule="evenodd" clip-rule="evenodd" fill="#9F534A" d="M547.859 106.878c3.512-1.859 6.958-3.861 10.555-5.541 4.126-1.928 8.385-3.57 12.586-5.337v4c-6.089 2.197-12.15 4.478-18.288 6.531-1.489.498-3.229.251-4.853.347z"/><path fill-rule="evenodd" clip-rule="evenodd" fill="#C3826F" d="M571 121c-1.085-.533-2.643-.783-3.165-1.654-1.561-2.601-2.716-5.444-4.517-9.212l7.682-3.134v14z"/><path fill-rule="evenodd" clip-rule="evenodd" fill="#9F534A" d="M553.671 163.145c3.913-.259 7.697-.907 10.817 2.889 1.36 1.655 4.293 2.018 6.512 2.967v4c-5.776-3.286-11.553-6.571-17.329-9.856z"/><path fill-rule="evenodd" clip-rule="evenodd" fill="#AF483E" d="M571 138c-.662-.932-1.782-1.806-1.907-2.805-.522-4.162-.744-8.36-1.089-12.707l2.996.512v15z"/><path fill-rule="evenodd" clip-rule="evenodd" fill="#C58E7D" d="M571 41l-1.563-.767 1.563-1.233v2z"/><path fill-rule="evenodd" clip-rule="evenodd" fill="#110F0E" d="M422 179.021l2.946-.1 21.932.123c5.298.301 10.625.369 15.879 1.028 1.854.232 3.527 1.91 5.282 2.928-1.112 1.248-2.071 2.692-3.364 3.713-6.255 4.939-12.649 9.703-18.858 14.697-.967.778-1.427 2.377-1.765 3.688-.28 1.088-.025 2.312-.024 3.475.005 4.075.946 8.401-3.029 11.421l-12.515 1.04c-.346-6.313-.649-11.848-.971-17.711h-6.979c3.562 5.934-1.303 13.073 3.46 18.518l-2.002.011-4.847-1.693c-5.864-4.972-.643-12.611-4.356-18.101 3.321-.589 1.697-2.144.467-3.189-2.985-2.539-6.188-4.822-9.191-7.343-3.721-3.12-9.808-3.99-10.079-10.442l4.939-1.251c8.129 1.718 16.187 4.17 25.508 2.633-1.086-1.536-1.76-2.49-2.433-3.445z"/><path fill-rule="evenodd" clip-rule="evenodd" fill="#C58E7D" d="M485.567 66.952l7.413.092.799 1.526 1.229-1.555 7.025.003h7.548c1.251 4.638.014 6.628-4.87 10.213-2.427 1.782-3.745 5.228-2.723 8.75l-1.965.037c-1.459.61-3.242.881-4.314 1.899-2.841 2.698-5.059 6.119-8.098 8.528-5.955 4.718-11.063 11.306-20.5 9.074-1.923-.455-4.736 2.858-7.139 4.436-5.388-1.352-8.563 2.482-12.225 5.195-.893.661-1.853 1.229-2.781 1.841l-1.003-.004c8.303-10.345 16.586-20.706 24.917-31.027 4.639-5.748 9.358-11.431 14.041-17.142 1.868 3.759 1.962 3.791 7.443 1.925l-5.491-2.659c-.042-.24.006-.461.143-.662.022-.346.206-.503.551-.47zm-1.963 8.493l.008.997h4.76l-.009-.997h-4.759z"/><path fill-rule="evenodd" clip-rule="evenodd" fill="#110F0E" d="M120.032 166.361c-5.43-8.421-3.135-20.866 4.745-28.587 9.534-9.343 24.736-10.674 35.842-3.14 9.967 6.761 14.141 19.293 9.212 31.347-1.254-22.988-12.026-33.538-33.827-27.976-11.852 3.025-16.457 12.516-15.972 28.356z"/><path fill-rule="evenodd" clip-rule="evenodd" fill="#C58E7D" d="M438.014 145.024c-8.142 8.206-14.617 18.156-25.062 23.95-1.335 1.291-2.67 2.581-4.006 3.871l-2.967.043-2.004 1.056-.485.002-.485-.026-1.013-7.93c4.035-7.089 9.972-12.174 16.989-16.121-.271 2.425 1.355 3.4 2.741 1.872 3.403-3.756 6.056-8.188 9.411-11.993 1.407-1.596 3.83-2.296 5.792-3.402.68 1.621 1.651 3.193 1.938 4.882.201 1.182-.533 2.525-.849 3.796z"/><path fill-rule="evenodd" clip-rule="evenodd" fill="#C3826F" d="M438.014 145.024c.316-1.271 1.051-2.614.85-3.797-.287-1.688-1.259-3.261-1.938-4.882-1.962 1.106-4.385 1.807-5.792 3.402-3.355 3.806-6.008 8.237-9.411 11.993-1.386 1.528-3.012.553-2.741-1.872 6.224-9.129 12.338-18.337 18.751-27.332 1.575-2.208 4.129-3.718 6.232-5.549l1.003.004-3.461 5.488c2.14.557 4.105.805 5.84 1.572 3.651 1.617 4.708 5.651 2.424 8.621-2.973 3.865-5.928 7.749-9.041 11.5-.509.614-1.792.585-2.716.852z"/><path fill-rule="evenodd" clip-rule="evenodd" fill="#302019" d="M275.068 196.836c-4.042.229-8.083.458-12.124.688l-1.46-1.543-.711-7.913.075-6.109c-.195-2.812-.39-5.623-.584-8.434l-.463-6.622c.084-.258.097-.52.038-.785 3.071.045 6.142.089 9.212.133l.674 1.643c.396 2.356.726 4.168-2.529 5.351-3.056 1.111-2.329 8.801.247 11.201l8.159-1.886c1.725 4.658-.194 5.899-4.349 5.294l-.199 1.624 4.12 1.622-.106 5.736zM446.878 179.045l-21.932-.123c1.438-.882 2.784-1.993 4.329-2.606 9.252-3.67 18.51-7.337 27.877-10.691 1.294-.464 3.209.806 4.837 1.273-5.037 4.048-10.074 8.097-15.111 12.147zM324.323 200.114c-4.801-2.001-9.602-4.002-14.401-6.004-1.726-.287-3.458-.845-5.18-.814-8.544.153-17.086.44-25.627.73-2.09.071-3.716-.184-3.25-2.893 11.907-.122 23.822-.55 35.718-.242 6.498.169 12.322 2.822 16.366 8.368l-3.626.855zM423.993 221.842c-4.763-5.444.102-12.584-3.46-18.518h6.979l.971 17.711 12.515-1.04 3 3.736-3.134 2.074-9.88-1.706-2.03.127-2.864-.689-2.097-1.695z"/><path fill-rule="evenodd" clip-rule="evenodd" fill="#9F534A" d="M360.855 219.903c6.317.398 12.635.796 18.955 1.193.691 1.035 1.351 2.944 2.071 2.968 5.995.193 12.006-.12 18.002.062 2.699.082 5.376.943 8.063 1.452l-33.021.199c-4.089-1.458-8.191-2.882-12.256-4.409-.689-.259-1.212-.965-1.814-1.465z"/><path fill-rule="evenodd" clip-rule="evenodd" fill="#302019" d="M393.984 181.084c.271 6.452 6.358 7.322 10.079 10.442 3.003 2.521 6.206 4.804 9.191 7.343 1.23 1.046 2.854 2.601-.467 3.189-6.798-5.001-13.633-9.952-20.377-15.023-3.252-2.446-2.779-4.033 1.574-5.951z"/><path fill-rule="evenodd" clip-rule="evenodd" fill="#C3826F" d="M275.865 191.134c-.466 2.709 1.16 2.964 3.25 2.893 8.541-.29 17.083-.577 25.627-.73 1.722-.03 3.454.527 5.18.814-1.041.63-2.044 1.717-3.127 1.803-3.026.24-6.085.066-9.131.057-3.131.181-6.402.073-7.781 3.821l-2.335 1.703c.114-5.903-3.264-6.116-7.57-5.05-1.574.39-3.272.276-4.911.392l.108-5.736c.245-.247.473-.235.69.033z"/><path fill-rule="evenodd" clip-rule="evenodd" fill="#302019" d="M407.947 225.579c-2.688-.509-5.364-1.37-8.063-1.452-5.996-.183-12.007.131-18.002-.062-.721-.023-1.38-1.933-2.071-2.968 11.783-.252 23.569-.505 35.354-.758 1.237 3.706-2.613 3.687-4.003 5.468l-3.215-.228z"/><path fill-rule="evenodd" clip-rule="evenodd" fill="#9F534A" d="M248.026 195.528c-2.861.717-5.687 1.712-8.591 2.087-4.859.629-9.77.866-14.659 1.261-2.034.164-4.231.515-3.583-2.787 1.297.271 2.785 1.09 3.857.716 3.679-1.284 8.958 1.811 11.031-3.901 3.795.19 7.591.381 11.37.551.181.676.378 1.375.575 2.073z"/><path fill-rule="evenodd" clip-rule="evenodd" fill="#C58E7D" d="M360.855 219.903c.602.5 1.125 1.206 1.815 1.466 4.064 1.527 8.167 2.951 12.256 4.409-6.844 2.706-19.337-.684-23.995-6.51l3.081-.295.138.114-.204-.041 1.164-2.053c1.915.971 3.83 1.941 5.745 2.91z"/><path fill-rule="evenodd" clip-rule="evenodd" fill="#9F534A" d="M324.323 200.114l3.626-.854 1.199-.355-.109-.118 3.421 3.254h-.104l11.562 9.082-3.024 1.093c-5.523-4.034-11.046-8.069-16.571-12.102z"/><path fill-rule="evenodd" clip-rule="evenodd" fill="#302019" d="M422 179.021l2.432 3.444c-9.321 1.537-17.379-.915-25.508-2.633.03-.286.003-.565-.083-.84l2.096-.243 7.031-.685c2.648.243 5.297.487 7.944.731 2.029.077 4.059.151 6.088.226z"/><path fill-rule="evenodd" clip-rule="evenodd" fill="#9F534A" d="M534.02 155.003c-2.697 1.048-5.395 2.097-8.091 3.146l-2.278-.902.331-2.164-2.969.935-6.14-3.838c2.712-.394 5.424-.786 8.136-1.178l3.945.996 2.101 1.021c.311.005.621-.002.931-.02l4.034 2.004z"/><path fill-rule="evenodd" clip-rule="evenodd" fill="#C3826F" d="M400.937 178.75l-2.096.243c-2.81-6.397-2.223-8.816 3.15-13.003l1.013 7.93-2.067 4.83z"/><path fill-rule="evenodd" clip-rule="evenodd" fill="#C58E7D" d="M260.849 181.959l-.075 6.109c-2.271 1.077-4.541 2.154-6.811 3.232-.276.065-.522-.003-.738-.204-.003-.165.026-.339-.015-.493-.584-2.171-1.179-4.339-1.771-6.507l9.41-2.137z"/><path fill-rule="evenodd" clip-rule="evenodd" fill="#9F534A" d="M411.161 225.807c1.39-1.781 5.24-1.762 4.003-5.468l1.981-.181 4.847 1.695.004 2.043 1.019 2.332.792.781-.159 1.004-.688 2.217c-1.88-1.351-3.76-2.701-6.156-4.424l-5.643.001z"/><path fill-rule="evenodd" clip-rule="evenodd" fill="#802C22" d="M430.984 224.1l9.88 1.706-3.86 3.525-8.346-3.535c.008-.339.117-.639.328-.902l1.998-.794z"/><path fill-rule="evenodd" clip-rule="evenodd" fill="#B46858" d="M428.658 225.797c2.782 1.178 5.564 2.355 8.346 3.534-4.486 3.367-9.247 2.434-14.046.898l.69-2.215 3.657-1.016.674-.992.294-.25.385.041zM259.84 166.118c.059.266.046.527-.037.787-1.526.172-3.054.344-4.64.521v5.728l-4.65.285c-1.019-7.704-.487-8.092 9.327-7.321z"/><path fill-rule="evenodd" clip-rule="evenodd" fill="#110F0E" d="M236.081 192.903c-2.072 5.712-7.352 2.617-11.031 3.901-1.072.374-2.56-.445-3.857-.716-.681-2.275-.029-3.289 2.538-3.196 4.111.151 8.233.022 12.35.011z"/><path fill-rule="evenodd" clip-rule="evenodd" fill="#802C22" d="M253.225 191.097c.216.201.462.27.738.204.056 1.31.33 2.654.124 3.921-.438 2.702-3.249 2.82-6.062.308-.196-.699-.394-1.398-.574-2.075 1.935-.773 3.855-1.565 5.774-2.358z"/><path fill-rule="evenodd" clip-rule="evenodd" fill="#302019" d="M355.11 216.994l-1.164 2.053.065-.072-3.08.294-2.758-1.777-.614-.704c.047-.198-.013-.355-.181-.471l-1.408-4.129c3.048 1.601 6.093 3.204 9.14 4.806zM289.883 199.791c1.379-3.748 4.65-3.641 7.781-3.821l.001 6.349c-2.955-.961-5.368-1.744-7.782-2.528z"/><path fill-rule="evenodd" clip-rule="evenodd" fill="#C58E7D" d="M255.163 173.154v-5.728l4.64-.521.462 6.62c-1.889 2.46-3.433.174-5.102-.371zM345.971 212.188l1.408 4.129-6.485-4.103 3.025-1.092 1.514-1.704.538 2.77z"/><path fill-rule="evenodd" clip-rule="evenodd" fill="#C3826F" d="M484.874 68.085l5.491 2.659c-5.481 1.866-5.575 1.834-7.443-1.925l.59-.764 1.362.03z"/><path fill-rule="evenodd" clip-rule="evenodd" fill="#C58E7D" d="M262.149 203.028l-.875 2.578-3.747-1.835 2.309-3.821 2.151.889.378 1.198-.216.991z"/><path fill-rule="evenodd" clip-rule="evenodd" fill="#9F534A" d="M261.986 200.838l-2.15-.888 1.646-3.97 1.462 1.544-.314 1.617-.644 1.697z"/><path fill-rule="evenodd" clip-rule="evenodd" fill="#110F0E" d="M120.428 168.011l1.022 2.946.363-.146-1.247-2.861-.138.061z"/><path fill-rule="evenodd" clip-rule="evenodd" fill="#9D3B36" d="M521.013 156.017l2.969-.935-.331 2.164-2.638-1.229z"/><path fill-rule="evenodd" clip-rule="evenodd" fill="#B46858" d="M269.726 167.894l-.674-1.643 2.104-.414-1.43 2.057z"/><path fill-rule="evenodd" clip-rule="evenodd" fill="#110F0E" d="M265.562 206.527zM262.149 203.028l.216-.991.407.006.394-.106.521 1.852-1.538-.761z"/><path fill-rule="evenodd" clip-rule="evenodd" fill="#B46858" d="M484.874 68.085l-1.362-.029 1.506-.634c-.138.202-.186.423-.144.663z"/><path fill-rule="evenodd" clip-rule="evenodd" fill="#302019" d="M263.166 201.937l-.394.106-.407-.006-.378-1.198.643-1.697.536 2.795zM332.356 202.04h.104l.201-1.12-.306-.027.001 1.147z"/><path fill-rule="evenodd" clip-rule="evenodd" fill="#C58E7D" d="M347.56 216.787l.614.704-.614-.704z"/><path fill-rule="evenodd" clip-rule="evenodd" fill="#302019" d="M329.148 198.904l.106-.157-.215.039z"/><path fill-rule="evenodd" clip-rule="evenodd" fill="#9D3B36" d="M415.912 178.797c-2.647-.244-5.296-.488-7.944-.731l11.01-5.088c9.349-2.586 17.633-6.749 22.995-15.337.413-.662 1.191-1.192 1.916-1.548 8.672-4.254 12.363-13.015 17.939-20.027 1.414-1.778 1.893-4.585 2.093-6.978.314-3.768 2.99-4.053 4.684-2.436 4.775 4.562 7.21.572 10.259-2.011 1.871-1.585 3.975-2.899 5.812-4.519 3.628-3.193 7.132-6.527 10.713-9.773 1.049-.95 2.053-2.14 3.309-2.638 4.276-1.698 7.906-3.252 8.897-8.896.491-2.798 4.39-5.02 6.806-7.443.676-.678 1.561-1.147 2.411-1.757l-1.989-6.548 1.184-.865 6.979 6.812c-.894.312-2.281.362-2.606.976-4.652 8.771-9.117 17.644-13.757 26.423-.667 1.263-1.861 2.391-3.067 3.199-4.455 2.988-8.744 6.496-13.637 8.468-3.302 1.331-6.339 2.406-9.161 4.79-2.656 2.244-6.108 3.218-9.235-.275-.458-.512-3.69.221-4.044 1.054-2.465 5.81-7.607 9.882-9.232 16.551-.869 3.569-6.6 6.047-10.29 8.812-3.628 2.718-7.311 5.415-11.222 7.687-4.666 2.711-9.664 4.843-14.389 7.46-2.298 1.271-4.299 3.075-6.434 4.638z"/><path fill-rule="evenodd" clip-rule="evenodd" fill="#9F534A" d="M535.047 111.035c-3.532 3.206-7.027 6.455-10.641 9.566-.483.416-1.74.457-2.342.129-4.414-2.409-7.667.466-11.165 2.281.135-1.227.075-2.519.455-3.664.486-1.469 1.326-2.82 2.011-4.224 4.841 1.048 9.385 1.021 13.86-1.881 2.171-1.407 5.188-1.512 7.822-2.207z"/><path fill-rule="evenodd" clip-rule="evenodd" fill="#9D3B36" d="M535.047 111.035c-2.634.695-5.65.8-7.821 2.208-4.476 2.902-9.02 2.929-13.86 1.881l.619-1.816c1.666-.45 3.333-.903 5-1.356l4.061-.138c1.248-.33 2.495-.66 3.745-.988.763-.573 1.524-1.147 2.285-1.722l5.84-.164 1.129.186-.052 1.883-.946.026z"/><path fill-rule="evenodd" clip-rule="evenodd" fill="#C3826F" d="M510.897 123.897c1.284 4.62 2.568 9.239 3.853 13.859l-1.573.393c-3.544-4.013-3.056-9.081-3.117-14.005.274-.1.552-.183.837-.247zM552.048 130.982l-.995-1.065c-.116-1.479-.418-2.969-.317-4.431.335-4.871.813-9.733 1.237-14.599l1.57-.244c.864 1.125 1.728 2.251 2.589 3.376-.097 1.298-.532 2.682-.228 3.877 1.215 4.751 2.662 9.443 4.022 14.157-2.625-.356-5.252-.713-7.878-1.071z"/><path fill-rule="evenodd" clip-rule="evenodd" fill="#C58E7D" d="M559.927 132.054c-1.36-4.714-2.808-9.406-4.022-14.157-.305-1.195.131-2.579.228-3.877 1.329 1.857 2.454 3.912 4.025 5.533 3.581 3.697 1.62 8.375 2.544 12.523l-2.775-.022z"/><path fill-rule="evenodd" clip-rule="evenodd" fill="#9D3B36" d="M526.954 151.997l-3.945-.996.921-3.146c3.904.381 7.848.56 11.693 1.263 1.27.231 2.291 1.819 3.425 2.788l-9.062 1.092c-.31.018-.62.024-.932.02l-2.1-1.021z"/><path fill-rule="evenodd" clip-rule="evenodd" fill="#9F534A" d="M535.992 111.008l.052-1.883 2.955-.136-3.007 2.019zM521.005 142.992l1.815 2.143-1.109.534-.72-2.66.014-.017zM520.991 143.009l-1.304-.378.248-.382 1.069.743-.013.017z"/><path fill-rule="evenodd" clip-rule="evenodd" fill="#C3826F" d="M459.973 109.956c2.402-1.577 5.216-4.891 7.139-4.436 9.437 2.231 14.545-4.356 20.5-9.074 3.039-2.409 5.257-5.83 8.098-8.528 1.072-1.019 2.855-1.289 4.314-1.899-3.965 4.904-8.175 9.637-11.807 14.777-2.282 3.23-4.178 6.524-8.417 7.391-.621.127-1.169.642-1.788.738-4.628.727-9.253 1.512-13.908 2.004-1.329.139-2.752-.624-4.131-.973zM408.945 172.846c1.336-1.29 2.671-2.58 4.006-3.871.217 2.896-1.007 4.301-4.006 3.871zM403.975 173.944l2.004-1.056-2.004 1.056z"/><path fill-rule="evenodd" clip-rule="evenodd" fill="#C58E7D" d="M500.982 62.983l1.997-1.999 1.93 2.25-2.897 1.757-.006-.003-1.024-2.005z"/><path fill-rule="evenodd" clip-rule="evenodd" fill="#C3826F" d="M500.982 62.983l1.023 2.005-2.507-.729 1.484-1.276zM495.008 67.016l-1.229 1.555-.799-1.526 2.028-.029zM539.626 44.277c-.283.11-.634.372-.828.285-.197-.089-.24-.521-.351-.804.282-.109.632-.372.828-.285s.241.521.351.804z"/><path fill-rule="evenodd" clip-rule="evenodd" fill="#802C22" d="M529.985 152.998l9.062-1.092c6.092-1.205 12.184-2.409 18.274-3.613l.463 1.221-6.775 2.51-16.99 2.979-4.034-2.005zM523.045 111.813l-4.061.138 4.061-.138zM529.075 109.104l-2.285 1.722c.761-.576 1.522-1.149 2.285-1.722z"/><path fill-rule="evenodd" clip-rule="evenodd" fill="#C58E7D" d="M421.996 223.896l-.004-2.043 2.001-.012 2.099 1.696c-1.363.121-2.73.24-4.096.359z"/><path fill-rule="evenodd" clip-rule="evenodd" fill="#C3826F" d="M483.604 75.445h4.759l.009.997h-4.76l-.008-.997z"/><path clip-rule="evenodd" d="M421.996 223.896l4.096-.358 2.86.688c-.232.234-.221.457.034.667-.211.264-.32.563-.328.902l-.385-.039-.294.25c-1.654.073-3.31.147-4.965.222l-1.018-2.332z" fill="none"/><path fill-rule="evenodd" clip-rule="evenodd" fill="#C58E7D" d="M428.986 224.894c-.255-.21-.267-.433-.034-.667l2.032-.127-1.998.794z"/><path fill-rule="evenodd" clip-rule="evenodd" fill="#302019" d="M353.946 219.047l.204.041-.138-.114-.066.073z"/><path fill-rule="evenodd" clip-rule="evenodd" fill="#802C22" d="M526.954 151.997l2.1 1.021-2.1-1.021z"/><path fill-rule="evenodd" clip-rule="evenodd" fill="#C58E7D" d="M423.015 226.229l4.965-.222-.675.992-3.498.011-.792-.781z"/><path clip-rule="evenodd" d="M423.807 227.01l3.498-.011-3.656 1.016.158-1.005z" fill="none"/></svg>