<?xml version="1.0" encoding="utf-8"?>
<!-- Generator: Adobe Illustrator 16.0.0, SVG Export Plug-In . SVG Version: 6.00 Build 0)  -->
<!DOCTYPE svg PUBLIC "-//W3C//DTD SVG 1.1//EN" "http://www.w3.org/Graphics/SVG/1.1/DTD/svg11.dtd">
<svg version="1.1" id="Layer_1" xmlns="http://www.w3.org/2000/svg" xmlns:xlink="http://www.w3.org/1999/xlink" x="0px" y="0px"
	 width="500px" height="500px" viewBox="0 0 500 500" enable-background="new 0 0 500 500" xml:space="preserve">
<g id="tools.psd">
	<g>
		<path fill-rule="evenodd" clip-rule="evenodd" fill="#6495EC" d="M80.244,369.198c-6.089,1.356-12.235,2.502-18.242,4.158
			c-2.99,0.825-4.649,0.081-6.193-2.401c-13.069-21.004-22.184-43.647-27.893-67.658c-0.338-1.422,1.197-4.072,2.614-5.001
			c9.533-6.244,19.325-12.094,28.879-18.306c1.338-0.87,2.791-3.172,2.581-4.567c-2.463-16.364-1.786-32.729-0.225-49.074
			c0.277-2.898-0.549-4.174-2.768-5.544c-9.564-5.906-18.982-12.05-28.585-17.893c-2.812-1.711-3.296-3.644-2.541-6.611
			c5.739-22.537,14.407-43.845,26.206-63.905c2.203-3.745,4.39-5.137,9.01-3.901c10.241,2.739,20.721,4.571,31.033,7.068
			c2.708,0.656,4.271-0.023,6.096-1.866c11.406-11.523,23.011-22.851,34.281-34.504c1.35-1.396,1.839-4.525,1.419-6.583
			c-2.124-10.392-4.535-20.732-7.167-31.008c-0.89-3.472-0.147-5.465,2.906-7.313c20.604-12.47,42.573-21.536,65.998-27.142
			c3.146-0.753,4.881,0.245,6.48,2.889c5.171,8.551,10.632,16.927,15.789,25.486c2.364,3.924,4.908,5.578,10.046,5.338
			c14.468-0.677,28.992-0.486,43.482-0.147c4.156,0.097,6.68-1.011,8.788-4.469c5.284-8.664,10.931-17.107,16.157-25.805
			c1.906-3.172,3.936-4.222,7.593-3.306c23.039,5.771,44.765,14.653,65.13,26.885c2.763,1.66,3.756,3.529,2.91,6.907
			c-2.655,10.592-4.892,21.289-7.415,31.915c-0.687,2.891-0.007,4.63,2.287,6.818c11.279,10.756,22.358,21.733,33.17,32.958
			c2.561,2.659,4.579,3.302,8.031,2.415c10.43-2.679,20.979-4.884,31.426-7.498c3.072-0.768,4.873-0.196,6.49,2.644
			c11.57,20.316,20.829,41.552,26.615,64.275c1.144,4.486,0.366,7.12-3.818,9.53c-8.789,5.062-17.213,10.752-25.872,16.046
			c-2.851,1.743-3.708,3.743-3.623,7.237c0.364,14.806,0.396,29.629,0.117,44.437c-0.079,4.165,0.568,6.945,4.418,9.215
			c9.008,5.311,17.707,11.143,26.626,16.608c2.573,1.577,3.682,3.08,2.886,6.367c-5.78,23.884-15.434,46.116-27.851,67.245
			c-1.536,2.616-3.278,2.189-5.493,1.678c-10.947-2.534-21.885-5.125-32.893-7.368c-1.709-0.349-4.307,0.43-5.574,1.646
			c-12.043,11.55-23.938,23.257-35.697,35.095c-0.986,0.993-1.232,3.387-0.895,4.927c2.342,10.665,4.852,21.296,7.484,31.895
			c0.819,3.294,0.401,5.489-2.786,7.41c-20.774,12.515-43.09,21.192-66.483,27.308c-2.794,0.729-4.306-0.281-5.719-2.601
			c-5.769-9.466-11.781-18.784-17.482-28.289c-1.607-2.68-3.407-3.587-6.443-3.146c-16.016,2.33-32.055,2.409-48.069-0.009
			c-2.61-0.394-3.912,0.603-5.227,2.726c-5.834,9.424-11.907,18.701-17.768,28.108c-1.893,3.037-3.876,4.129-7.684,3.105
			c-22.289-5.989-43.594-14.237-63.423-26.177c-3.554-2.14-5.139-4.35-3.776-8.701c1.436-4.585,2.035-9.432,3-14.165
			c13.526-13.514,27.051-27.026,40.577-40.54c32.523,19.129,67.56,24.846,104.557,19.067c21.873-3.414,41.84-12.044,60.474-23.863
			c0.832,0.406,1.695,0.757,2.49,1.226c19.295,11.396,42.647,0.402,46.54-21.756c1.511-8.593-1.506-15.918-5.358-23.154
			c0.584-1.095,1.137-2.207,1.756-3.282c29.899-51.842,31.399-104.307,3.469-157.422c6.027-6.25,12.053-12.501,17.847-18.51
			c-17.829-17.781-35.428-35.333-53.282-53.141c-5.432,5.218-11.236,10.796-17.043,16.375c-3.879-2.295-7.672-4.754-11.651-6.859
			c-28.296-14.97-58.611-19.805-90.075-16.096c-12.045,1.419-23.735,5.837-35.587,8.889c-17.368-9.538-35.367-12.182-54.726-4.881
			c1.623,2.428,3.78,3.979,5.612,5.849c5.111,5.214,10.087,10.561,15.117,15.854c-0.77,0.755-1.458,1.624-2.323,2.247
			c-14.117,10.156-26.076,22.468-36.444,36.375c-7.212-6.935-14.424-13.87-22.067-21.22c-3.69,9.127-4.77,18.038-3.276,26.699
			c1.589,9.219,5.018,18.121,7.644,27.162c-0.173,0.757-0.248,1.555-0.533,2.267c-8.087,20.178-10.259,41.158-9.506,62.757
			c0.909,26.079,8.905,49.775,22.069,71.99C105.991,343.475,93.118,356.337,80.244,369.198z"/>
		<path fill-rule="evenodd" clip-rule="evenodd" fill="#DCAE20" d="M80.244,369.198c12.874-12.861,25.748-25.724,38.621-38.585
			c1.387-1.243,2.836-2.425,4.152-3.739c21.094-21.07,42.17-42.159,63.257-63.234c1.193-1.192,2.453-2.316,3.534-3.334
			c4.447,4.518,8.671,8.81,13.052,13.26c-0.201,0.247-0.636,0.889-1.171,1.428c-18.588,18.726-37.185,37.441-55.781,56.158
			c-5.271,5.304-10.544,10.605-15.813,15.908c-8.518,8.461-17.038,16.921-25.559,25.38c-2.542,2.499-5.09,4.994-7.628,7.498
			c-14.649,14.45-29.293,28.905-43.948,43.349c-2.576,2.539-4.286,5.343-1.21,8.471c3.099,3.151,5.846,1.429,8.411-1.158
			c16.896-17.041,33.822-34.053,50.738-51.074c8.456-8.45,16.913-16.9,25.368-25.352c1.384-1.251,2.824-2.446,4.143-3.764
			c22.201-22.18,44.384-44.378,66.582-66.562c1.177-1.176,2.441-2.266,3.457-3.204c4.226,4.333,8.109,8.314,12.978,13.306
			c-11.972,11.594-24.259,23.353-36.387,35.273c-12.693,12.473-25.233,25.102-37.838,37.662
			c-8.496,8.516-16.995,17.031-25.494,25.548c-17.085,16.916-34.159,33.845-51.269,50.736c-2.49,2.458-4.035,5.127-1.289,8.12
			c2.993,3.263,5.865,1.678,8.449-0.909c4.637-4.643,9.308-9.252,13.92-13.919c12.492-12.644,24.961-25.312,37.438-37.97
			c8.542-8.494,17.085-16.987,25.627-25.48c1.372-1.273,2.787-2.505,4.109-3.826c21.991-21.979,43.97-43.971,65.958-65.952
			c1.182-1.182,2.424-2.302,3.252-3.086c4.624,4.601,8.907,8.863,14.083,14.013c-13.123,12.811-26.46,25.733-39.687,38.77
			c-10.449,10.299-20.762,20.735-31.135,31.111c-13.526,13.514-27.051,27.026-40.577,40.54
			c-13.689,13.544-27.551,26.918-40.964,40.728c-4.335,4.462-9.093,6.657-15.053,6.921c-0.852-0.616-1.639-1.636-2.564-1.783
			c-4.616-0.733-5.646-3.611-5.065-7.7c0.152-1.068-0.085-2.189,0.043-3.265c0.407-3.392-1.06-5.468-4.375-5.955
			c-3.202-0.47-6.448-0.655-9.679-0.902c-3.269-0.249-5.719-1.146-5.73-5.175c-0.007-2.769-0.072-5.71-0.998-8.25
			c-0.735-2.014-2.928-5.104-4.282-5.008c-6.154,0.438-10.254-2.069-13.307-7.028c0.496-6.094,2.762-11.038,7.354-15.496
			C52.297,397.756,66.185,383.389,80.244,369.198z"/>
		<path fill-rule="evenodd" clip-rule="evenodd" fill="#9E8B4E" d="M30.612,427.162c3.053,4.959,7.153,7.466,13.307,7.028
			c1.354-0.097,3.547,2.994,4.282,5.008c0.926,2.54,0.991,5.481,0.998,8.25c0.011,4.028,2.462,4.926,5.73,5.175
			c3.231,0.247,6.477,0.433,9.679,0.902c3.315,0.487,4.782,2.563,4.375,5.955c-0.129,1.075,0.109,2.196-0.043,3.265
			c-0.581,4.089,0.449,6.967,5.065,7.7c0.926,0.147,1.713,1.167,2.564,1.783c-7.07,1.513-14.126,3.097-21.214,4.52
			c-8.489,1.705-17.003,3.285-25.515,4.875c-0.737,0.137-1.538-0.066-2.307-0.111c-2.397-2.424-4.794-4.847-7.192-7.271
			c2.458-11.76,4.882-23.526,7.392-35.276C28.581,435.006,29.647,431.095,30.612,427.162z"/>
		<path fill-rule="evenodd" clip-rule="evenodd" fill="#4F4F4F" d="M20.342,474.241c2.397,2.424,4.795,4.847,7.192,7.271
			c-2.577,0.53-5.152,1.061-8.654,1.782C19.468,479.653,19.905,476.948,20.342,474.241z"/>
		<path fill-rule="evenodd" clip-rule="evenodd" fill="#4F4F4F" d="M106.835,193.598c-2.625-9.041-6.054-17.943-7.644-27.162
			c-1.493-8.662-0.414-17.572,3.276-26.699c7.644,7.35,14.855,14.285,22.067,21.22c5.975,6.121,11.833,12.366,18.032,18.252
			c1.143,1.085,3.767,1.267,5.532,0.936c14.296-2.682,32.285-21.155,34.664-35.449c0.213-1.278,0.341-3.183-0.382-3.909
			c-6.243-6.267-12.69-12.329-19.077-18.453c-5.03-5.294-10.006-10.64-15.117-15.854c-1.833-1.87-3.989-3.421-5.612-5.849
			c19.359-7.301,37.357-4.657,54.727,4.882c21.104,14.215,31.912,33.891,30.802,59.476c-0.488,11.245,3.115,20.292,11.047,28.189
			c45.749,45.551,91.365,91.234,137.033,136.867c1.867,1.865,3.789,3.678,5.685,5.515c3.853,7.236,6.869,14.562,5.358,23.154
			c-3.893,22.158-27.245,33.151-46.54,21.756c-0.795-0.469-1.658-0.819-2.491-1.224c-0.171-0.257-0.304-0.553-0.518-0.767
			c-46.981-46.924-94.061-93.749-140.875-140.838c-8.798-8.85-18.691-12.879-31.08-12.096c-13.661,0.864-26.218-2.941-37.764-10.33
			C119.217,209.623,112.893,201.763,106.835,193.598z M355.106,364.586c6.688,0.085,12.259-5.279,12.426-11.966
			c0.165-6.572-5.319-12.268-11.979-12.443c-6.527-0.171-12.282,5.387-12.418,11.994
			C343.001,358.766,348.531,364.502,355.106,364.586z"/>
		<path fill-rule="evenodd" clip-rule="evenodd" fill="#FDFDFC" d="M106.835,193.598c6.058,8.166,12.382,16.025,21.123,21.619
			c11.545,7.388,24.103,11.193,37.764,10.33c12.388-0.783,22.281,3.246,31.08,12.096c46.814,47.089,93.894,93.914,140.875,140.838
			c0.214,0.214,0.347,0.51,0.518,0.767c-18.633,11.817-38.6,20.447-60.473,23.861c-36.997,5.778-72.034,0.062-104.557-19.067
			c10.373-10.376,20.686-20.812,31.135-31.111c13.227-13.036,26.564-25.959,39.687-38.77c-5.176-5.149-9.458-9.412-14.083-14.013
			c-0.829,0.784-2.071,1.904-3.252,3.086c-21.988,21.981-43.967,43.974-65.958,65.952c-1.323,1.321-2.738,2.553-4.107,3.826
			c-2.461-2.042-4.924-4.084-7.387-6.126c12.607-12.561,25.147-25.189,37.84-37.662c12.128-11.921,24.415-23.68,36.387-35.273
			c-4.869-4.991-8.752-8.973-12.978-13.306c-1.015,0.938-2.28,2.028-3.457,3.204c-22.197,22.184-44.381,44.382-66.582,66.562
			c-1.318,1.317-2.759,2.513-4.142,3.764c-2.059-2.372-4.118-4.742-6.177-7.113c5.272-5.303,10.545-10.604,15.816-15.908
			c18.597-18.717,37.193-37.433,55.781-56.158c0.536-0.539,0.971-1.181,1.171-1.428c-4.38-4.45-8.605-8.742-13.052-13.26
			c-1.081,1.018-2.341,2.142-3.534,3.334c-21.087,21.075-42.163,42.164-63.257,63.234c-1.316,1.314-2.766,2.496-4.152,3.739
			c-13.164-22.216-21.16-45.912-22.069-71.991c-0.753-21.599,1.419-42.579,9.506-62.757
			C106.587,195.152,106.662,194.355,106.835,193.598z"/>
		<path fill-rule="evenodd" clip-rule="evenodd" fill="#FDFDFC" d="M381.866,335.56c-1.896-1.837-3.817-3.649-5.685-5.515
			c-45.668-45.633-91.284-91.316-137.033-136.867c-7.932-7.897-11.535-16.944-11.047-28.189c1.11-25.585-9.698-45.261-30.802-59.476
			c11.851-3.053,23.542-7.47,35.586-8.89c31.463-3.709,61.779,1.126,90.075,16.096c3.979,2.105,7.772,4.564,11.651,6.859
			c-1.247,1.387-2.433,2.834-3.749,4.152c-20.879,20.89-41.778,41.762-62.662,62.647c-1.174,1.172-2.262,2.429-2.909,3.128
			c4.447,4.627,8.518,8.862,12.716,13.229c0.668-0.522,1.458-1.022,2.105-1.666c10.53-10.461,21.049-20.936,31.559-31.417
			c12.393-12.359,24.752-24.75,37.175-37.078c3.497-3.471,8.571-2.659,8.963,1.545c0.179,1.933-1.116,4.521-2.569,6.003
			c-12.802,13.052-25.792,25.922-38.724,38.847c-9.616,9.612-19.28,19.176-28.764,28.917c-0.914,0.939-1.49,3.587-0.865,4.41
			c2.914,3.832,6.306,7.302,9.776,11.181c2.271-2.139,3.643-3.365,4.942-4.663c21.67-21.647,43.326-43.308,65.001-64.949
			c1.21-1.208,2.419-2.913,3.882-3.238c1.686-0.375,4.379-0.078,5.311,1.035c1.098,1.31,1.093,3.835,0.936,5.782
			c-0.08,0.982-1.52,1.885-2.4,2.767c-21.879,21.876-43.767,43.744-65.646,65.62c-1.297,1.297-2.533,2.655-3.458,3.626
			c4.502,4.601,8.709,8.901,13.162,13.452c1.067-1,2.338-2.125,3.535-3.322c18.238-18.228,36.456-36.476,54.708-54.689
			c3.419-3.413,6.967-6.698,10.454-10.042c27.931,53.115,26.431,105.581-3.469,157.422
			C383.003,333.353,382.45,334.465,381.866,335.56z"/>
		<path fill-rule="evenodd" clip-rule="evenodd" fill="#DCAE20" d="M387.091,174.855c-3.487,3.344-7.035,6.629-10.454,10.042
			c-18.252,18.214-36.47,36.462-54.708,54.689c-1.197,1.197-2.468,2.321-3.535,3.322c-4.453-4.55-8.66-8.851-13.162-13.452
			c0.925-0.971,2.161-2.329,3.458-3.626c21.879-21.876,43.767-43.743,65.646-65.62c0.881-0.882,2.32-1.785,2.4-2.767
			c0.157-1.947,0.162-4.472-0.936-5.782c-0.932-1.113-3.625-1.41-5.311-1.035c-1.463,0.326-2.672,2.03-3.882,3.238
			c-21.675,21.641-43.331,43.302-65.001,64.949c-1.3,1.298-2.671,2.524-4.942,4.663c-3.471-3.879-6.862-7.349-9.776-11.181
			c-0.625-0.823-0.049-3.471,0.865-4.41c9.483-9.741,19.147-19.305,28.764-28.917c12.932-12.925,25.922-25.795,38.724-38.847
			c1.453-1.481,2.748-4.07,2.569-6.003c-0.392-4.204-5.466-5.017-8.963-1.545c-12.423,12.328-24.782,24.719-37.175,37.078
			c-10.51,10.481-21.028,20.956-31.559,31.417c-0.647,0.643-1.438,1.143-2.105,1.666c-4.198-4.368-8.269-8.603-12.716-13.229
			c0.647-0.699,1.735-1.956,2.909-3.128c20.884-20.885,41.783-41.757,62.662-62.647c1.316-1.317,2.502-2.765,3.749-4.152
			c5.807-5.578,11.611-11.156,17.043-16.375c17.854,17.807,35.453,35.359,53.282,53.141
			C399.144,162.354,393.118,168.604,387.091,174.855z"/>
		<path fill-rule="evenodd" clip-rule="evenodd" fill="#FDFDFC" d="M163.303,122.334c6.387,6.124,12.834,12.186,19.077,18.453
			c0.723,0.726,0.596,2.631,0.382,3.909c-2.379,14.293-20.368,32.767-34.664,35.449c-1.766,0.331-4.389,0.149-5.532-0.936
			c-6.199-5.887-12.057-12.132-18.032-18.252c10.369-13.907,22.328-26.219,36.445-36.375
			C161.845,123.958,162.533,123.089,163.303,122.334z"/>
		<path fill-rule="evenodd" clip-rule="evenodd" fill="#6495EC" d="M130.956,398.491c-2.417-2.019-4.834-4.037-7.25-6.058
			c8.5-8.518,16.999-17.033,25.495-25.549c2.461,2.042,4.924,4.084,7.385,6.126C148.041,381.504,139.499,389.997,130.956,398.491z"
			/>
		<path fill-rule="evenodd" clip-rule="evenodd" fill="#6495EC" d="M110.899,379.524c-2.121-2.362-4.242-4.726-6.363-7.087
			c8.52-8.457,17.04-16.917,25.558-25.378c2.057,2.371,4.116,4.741,6.174,7.113C127.812,362.624,119.355,371.074,110.899,379.524z"
			/>
		<path fill-rule="evenodd" clip-rule="evenodd" fill="#FDFDFC" d="M355.106,364.586c-6.575-0.084-12.105-5.82-11.972-12.415
			c0.136-6.607,5.891-12.165,12.418-11.994c6.66,0.176,12.145,5.871,11.979,12.443C367.365,359.307,361.795,364.671,355.106,364.586
			z"/>
	</g>
</g>
</svg>
