<?xml version="1.0" encoding="UTF-8" standalone="no"?>
<svg xmlns:rdf="http://www.w3.org/1999/02/22-rdf-syntax-ns#" xmlns="http://www.w3.org/2000/svg" xml:space="preserve" height="244.37" viewBox="0 0 227 244.36644" width="227" version="1.1" xmlns:cc="http://creativecommons.org/ns#" xmlns:dc="http://purl.org/dc/elements/1.1/"><g transform="matrix(1.25 0 0 -1.25 -270.17 619.57)"><g><path d="m326.07 494.77c-29.396 0-54.626-17.838-65.464-43.276l-10.552-0.0155v-2.3268h9.6145c-3.0438-7.9178-4.729-16.52-4.729-25.512 0-39.283 31.849-71.132 71.13-71.132 39.285 0 71.132 31.849 71.132 71.132s-31.847 71.13-71.132 71.13" fill="#ffb612"/><path d="m326.07 362.43c33.803 0 61.205 27.404 61.205 61.205s-27.402 61.205-61.205 61.205c-33.801 0-61.203-27.404-61.203-61.205s27.402-61.205 61.203-61.205" fill="#fff"/><path d="m287.54 429.43s-5.0035-12.108-4.7851-21.682c0 0 1.5577 3.5907 2.1026 2.9742 0 0-4.4971-15.082-1.088-23.711 0 0 0.72469 2.3925 1.9577 3.8439 0 0 1.8842 2.9723 2.609 5.3667 0 0 0.36331-1.0165 0.58171-2.8293 0 0 1.6678 2.1026 2.0292 3.554 0.2841 1.1344 1.0146 2.3906 1.5229 3.842l0.58171-0.29182s3.4071 4.1357 4.7116 7.9042c0 0 1.0165 0.14495 0.50828-2.8274 0 0 2.8274 2.7559 2.9008 7.0346l0.57977-0.65319c2.3925-2.9742 2.3925-7.5409 2.321-10.368-0.58167-9.0638-5.2218-13.922-11.021-19.216l0.50829-0.43483c8.627 1.5944 14.313 2.5259 23.056 0 3.3318-0.96242 11.385-4.6401 15.3-7.108 0 0 8.7024-3.7704 14.794-3.7704 0 0 0.28796-0.14301 0.28796 0.1836 0 0-0.65127 2.2476-0.0715 10.695 0 0 0.65319 3.9135 1.1595 6.5978 0 0 0.65323 1.8128 0.72472 5.5117 0.006 0.29761-0.28989 2.5375 1.233 2.321 3.3047-0.47346 5.1484 0.28796 7.6878 0.72472 0 0 2.6805 0.79621 3.7704 0.86967 0 0 2.549-0.40779 3.3337-0.14495 0.87156 0.28989 1.8128 1.0146 2.9742 2.1026 0 0 1.3045 1.3779 0.43483 4.4952 0 0-0.86964 2.8273-0.36138 3.6989 0 0 0.75948 1.921 1.8842 3.0438 0 0 0.79625 1.3064-0.28986 1.9577 0 0-0.5817 0.65323 0.39811 0.90832 0 0 0.72469-0.0754 1.1962 0.17974 0 0 0.25509 0.10822 0.28989 0.65127 0.0387 0.58557 0.29182 3.409-1.5944 5.875 0 0 0.54305-0.14494 0.94119-0.28989 0 0 2.3229-0.21643 3.5173 0.36138 1.0513 0.57978 2.5761 1.3064 2.3578 4.787-0.57977 2.9008-1.7413 4.6401-2.9008 7.9042-1.3779 3.4806-1.5963 5.2199-4.4971 7.6124-1.7393 0.79814-2.5374 2.1007-1.231 3.4091 1.0146 1.5209 0.65323 4.2768-1.1614 6.161-1.7393 1.7412-3.0438 4.4236-3.697 5.8016-0.86967 1.4514-1.8128 3.0457-2.6844 3.9888-0.86964 1.088-2.1741 1.7393-4.4952 4.4952 0 0-1.3779 1.233-1.5944 2.5375-1.9577 3.0477-7.396 7.3245-13.632 7.7593-1.8128 0.21643-1.8128 0.21643-3.1172 0.36331-2.1761 0.79817-8.9903 1.0146-13.632-0.28989-1.5035-0.32273-4.4952-0.8716-4.4952-0.8716-1.5963-0.50632-3.8439-0.94115-6.3079-2.464-1.8128-0.94309-4.4971-3.1907-6.5263-4.642-2.1741-2.1741-7.0346-5.3648-9.717-7.1776-5.2199-3.8439-9.7151-8.9189-12.328-12.11 0 0-6.5978-8.2676-9.86-22.551-0.21836-2.1742-0.79621-4.2768-0.4348-6.6693 0 0 2.9008 6.306 5.5832 8.2656 0 0-0.36334-1.1615-0.57977-3.0457 0 0 1.3779 2.5375 1.9577 2.9723 0 0 1.0146 1.088 2.464 2.8293 0 0 3.0457 3.9869 3.9154 4.4217-1.1248-2.1026-1.376-3.4806-1.4861-5.6547 0.47153 0.43484 0.76142 0.76145 0.90829 1.0146 0 0 0.28796 0.57978 0.57785 0.43484 0.14688-0.36138-0.0715-0.6532-0.0715-0.6532"/><path d="m146 32.824c-0.28-0.011-0.55 0.012-1.11 0.1-0.15 0.024-0.56 0.485-0.69 0.48-0.65-0.024-1.4-0.199-1.72 0.16-0.52 0.575 0.1 0.508 0.75 0.817 0.37 0.171 1.13 0.581 1.57 0.574 1.83-0.034 3.01-0.05 4.44 0.733 0.15 0.084 0.8 0.72 0.84 0.957-1.37-0.027-3.53-0.564-5.1-0.436 2.65-0.213-2.7 0.073-3.87 0.027-0.34-0.014-0.35 0.703 0.19 1.104 0.15 0.101 0.96-0.047 1.07 0.209 0.48-0.249 1.83-0.126 2.23 0.019 0.68 0.249 0.29 0.142 0.89 0.453 0.37 0.194 0.71 0.456 1.14 0.405 0.55-0.065 0.59-0.879 1.14-0.615 0.19 0.089 0.61 0.343 0.7 0.343 3.15-0.06 3.22 0.923 4.69 0.907 0.38-0.005 0.94-0.152 1.2 0.027 0.6 0.411 1.15 0.454 2.06 0.092 0 0 2.08 5.621 1.54 15.861-0.54 4.351-0.81 5.169-1.81 8.703 0 0-1.45 5.621-0.91 9.518 0.55 13.144-3.44 24.019-7.79 31.268-1.64 2-2.54 3.08-0.91 4.53 3.44 3.18 6.25 3.9 11.15 4.99 1.72 0.54 2.81 0.72 4.44 0.72 2.54 0 6.53 1.09 8.34 2.45 1.72 0.91 6.34 2.63 9.15 2.18 2.45 0.18 3.18 0.36 4.35 0.81 0.82 0.36 1.64 0.36 2.54 0.09 0.77-0.54 0.41-0.32 1.41-1.04 0.18-0.45 1.49-1.04 1.22-2.85-0.09-1.36-0.64-2.77-0.91-4.04-0.78-1.12-0.72-1.95-0.45-3.12 0.82-1.64 1.77-2.45 2.27-3.27 1.08-1.22 0.45-2.08-1.05-2.49-0.72-0.32-2.12-0.18-3.57-0.32-0.77 0-1.41-0.32-2.5-0.09 0 0-0.72 0.5-1.13 0.86l-0.54-0.31s0.49-1.46 1.54-2.32c1.04 0.19 2.56 0.3 3.35 0.09 0.94-0.42 2.02-0.6 2.81-0.9 1.36-0.14 1.99-0.05 3.63 0.04 0 0 0.81-3.532-2.04-6.204-0.68-0.638-1.23-1.453-2.23-1.496-3.44 0.406-5.34-0.997-5.88-1.361-0.87-0.044-1.14 0.317-1.59 0.861-1.18 1.995-2.58 2.676-2.58 2.676l-0.73-0.092s0.63-1.089 2.08-2.901c0.64-1.451 1.54-3.266 2.36-4.171 0.5-0.86 0.64-2.809 1.86-3.35 0.59 0 0.68-0.138 1.13 0.133-0.91 0.865-3.44 3.944-0.81 5.845 1.08 0.909 2.72 0.909 3.12-0.042 0.2-0.522 0.64-0.863 0.86-1.042 1.36-0.273 2.5 0.406 2.95 0.768 1.09 1.271 1.72 1.86 2.27 2.131 0.58 0.454 1.67 0.365 2.22 0.365 1.76-0.319 2.72-1.315 3.03-1.953 0.96-1.993 0.77-3.942-0.59-6.297-0.81-1.36-1.36-2.901-1.99-4.805-0.27-0.768-0.82-2.354-1.45-3.714-0.05-0.544-1.18-3.083-1.9-4.079-1.82-2.628-3.31-2.855-4.31-3.945 0 0.003-0.36-0.023-0.38-0.012-1.06 0.708-1.06 2.256-1.96 3.432-0.1 0.131-0.4 0.288-0.6 0.192-0.29-0.143-0.41-0.392-0.74-0.858-0.3-0.442-0.53-0.124-0.85 0.238-0.21 0-0.37 0.168-0.53 0.332-0.29 0.293-0.06 0.449 0.16 0.778 0.23 0.34 0.01 0.34 0.14 0.521-0.04 0.138-0.08 0.191-0.12 0.254-0.11 0.184-0.41 0.138-0.62 0.102-0.61-0.102-0.47-0.059-1-0.313-0.66-0.314-0.98-1.175-1.48-1.445-0.16-0.087-0.68-0.182-1.07 0.076-0.29 0.198-0.42 0.626-0.17 0.854 0.43 0.384 0.76 0.844 1.22 1.187 0.61 0.464 1.28 0.799 1.37 1.449 0.1 0.826-1.11 1.125-1.69 0.698-0.3-0.225-0.65-0.484-0.97-0.815-0.06-0.056-0.1-0.327-0.17-0.375-0.26-0.2-0.56-0.431-0.7-0.637-0.26-0.386-0.6-0.799-1.07-0.978-0.1-0.039-0.2-0.202-0.27-0.332-0.22-0.377 0.02-0.813-0.14-1.156-0.13-0.281-0.19-0.742-0.6-0.561-0.36 0.362-0.31 0.362-0.73 0.326-0.52-0.046-0.1-1.025-0.1-0.894 0 0.053-0.03-0.021 0.16-0.34-0.37-0.116-0.92-0.411-0.5-0.949 0.36-0.455 0.71 0.211 0.84-0.057 0.05-0.104 0.36-0.676 0.48-0.748 0.4-0.239 0.52 0.081 0.58 0.168-0.18 0.498 0.35 0.827 0.85 0.558 0.05-0.028 0.02-0.41 0.08-0.501 0.46-0.807 1.17-1.228 1.91-1.786 0.06-0.05 0.27-0.105 0.29-0.148 0.22-0.437 0.47-1.072 0.01-1.268-0.39-0.164-1.18-0.016-1.02-0.697 0.07-0.326 0.5-0.448 0.73-0.557 0.87-0.405 1.75-0.801 2.65-1.154 0.21-0.084 0.58-0.412 0.86-0.433 1.12-0.095 0.86-0.067 2.25 0.179 0.24 0.041 0.71 0.298 0.94 0.385 0.74 0.256 1.79 0.169 2.27-0.623 0.48-0.778 0.35-2.088-0.14-3.004-0.57-1.104-1.46-2.056-2.22-2.814-0.98-0.979-2.24-1.476-2.49-2.817-0.31-1.635-1.58-3.81-2.3-5.107-0.76-1.341-1.42-2.233-2.39-3.475-0.21-0.285-1.62-1.713-1.86-1.947-1.6-1.558-2.28-2.074-3.99-2.69-0.87-0.314-4.27-0.108-6.04-0.335-0.55-0.07-2.26-0.114-2.72-1.02-0.42-0.829-0.95-1.999-1.82-2.553-0.32-0.2-0.82-0.411-1.15-0.58-1.59-0.804-3.24-2.144-4.97-2.074-0.62 0.027-0.01 0.704 0.15 0.789 0.77 0.408 1.13 0.863 1.55 1.363 0.45 0.52 1.42 0.538 2.25 0.881 0.79 0.329 1.45 0.836 2.19 1.223 0.7 0.367 1.63 1.577 0.86 2.07-0.7 0.452-1.44-0.093-2.37 0.137-0.18 0.043-0.45 0.172-1.54 0.172-1.42 0.193-1.91-0.488-3.01-1.268-1.1-0.785-1.79-1.995-2.86-2.744-1.31-0.918-2.62-1.681-4.11-2.203-0.33-0.114-0.76 0.067-1.05-0.09-0.52-0.29-0.91-0.903-1.54-0.951-0.56-0.042-0.83-0.087-1.11-0.098zm37.26 32.569c-0.12-0.016-0.25-0.005-0.39 0.045-0.11 0.038-1 0.768-1.02 0.804-0.5 0.947-1.27 1.062-1.61 1.699-0.3 0.561-0.48 0.697-0.64 1.059-0.07 0.157-0.14 0.329 0.08 0.445 0.53 0.283 0.76 0.19 1.87 0.352 0 0 0.97 0.155 1.86-0.615 0.14-0.121 0.88-0.498 0.86-0.797-0.1-1.375 0.11 0.905-0.16-1.17-0.06-0.44-0.04-0.84-0.21-1.311-0.07-0.179-0.3-0.464-0.64-0.511zm-72.34 44.307c1.45 11.15-0.54 20.66-11.604 30.63 20.484-3.8 29.464 1 44.054 8.43 1.18 0.6-0.18-0.77-0.18-0.77-0.45-0.31-1.52-1.97-1.73-2.35-0.5-0.89-0.88-1.56-1.17-2.27-0.46-1.09-1.34-1.85-2.8-3.27-0.73-0.71-1.87-1.96-2.33-2.88-0.72-1.42-1.13-3.96-2.84-5.16-1.33-0.92-1.01-1.97-2.16-3.76-0.44-0.68-1.33-0.76-1.99-1.43-1.66-1.67-0.61-2.32-2.06-3.85-0.64-0.68-0.92-0.81-1.47-1.83-0.71-1.32-0.17-3.05-1.39-3.65-1.09-0.55-1.93-0.74-2.68-0.99-1.13-0.37-2.95-1.31-3.98-2.11-1.08-0.84-3.3-2.68-5.67-4.74zm34.17 7.43c0 1.27 0.18 2.18-0.77 3.44 0.63 1.55 1.18 4.94 1.9 5.76 1.59 1.5 2.86 2.67 3.9 6.25 0.23 0.86 0.95 1.32 1 1.95 0.06 0.91 0.37 0.75 0.87 2.01 0.25 0.62 0.97 1.73 1.34 2.04 2.09 1.75 3.54 4.47 3.4 7.27 0.1 1.37 0.17 1.28 1.51 2.24 0.23 0.16 0.35 0.17 1.08 0.85 0.27 0.23 2.22 2.32 2.49 2.54-0.04-0.81 0.09-2.2 0.07-2.63-0.12-4.28 0.7-8.7-0.75-12.43-1.08-2.8-3.53-5.95-4.49-8.88l-0.48-1.59c-0.51-2.28-0.55-4.65-0.55-4.65l-3.03-1.45c-2.39-0.96-5.09-1.83-7.49-2.72z" transform="matrix(.8 0 0 -.8 216.14 495.66)" fill="#5b2b2f"/><path d="m189.06 82.941c-0.32-0.014-0.66 0.036-1.05 0.164-0.4 0.131-0.14 0.636-0.06 0.651 1.64 0.292 2.13 0.299 3.64 1.744 0.09 0.089 0.42 0.113 0.57 0.014 0.43-0.288 0.18-0.819-0.11-1.022-1.3-0.879-2.04-1.507-2.99-1.551zm-9.86 0.594c-0.48-0.074-0.55 0.425-1.66 1.082-0.88 0.515-0.8 1.174-1.97 1.438-0.75 0.169-1.61 0.403-2.21 0.804-1.35 0.894-2.56 1.61-3.95 2.272-1.13 0.534-2.37 0.767-3.61 0.738-1.07-0.022-2.08-0.448-3.17-0.523-0.15-0.01-0.01 0.238-0.18 0.185-0.07 0.527 0.21 1.012 0.72 1.176h-0.09c0.18 0.93 0.08 1.908 0.36 2.787 0.04 0.152 0.23 0.513 0.46 0.526 0.23 0.012 0.33 0.212 0.54 0.253 0.13 0.025 0.24 0.229 0.24 0.332-0.02 0.496 0.24 1.048 0.49 1.055 1.38 0.039 2.18 0.88 2.78 1.998 0.04 0.092 0.43 0.104 0.54-0.08 0.67-1.13 1.53-1.96 2.44-2.832 0.17-0.164 0.66-0.069 0.79-0.269 0.32-0.479 0.47-1.014 0.72-1.534 0.41-0.881 0.62-1.875 1.23-2.627 1.09-1.335 1.42-2.279 2.88-3.369 0.14-0.101 0.81-0.82 0.9-0.974 0.45-0.764 1.08-1.2 1.56-1.635 0.22-0.203 0.63-0.655 0.43-0.734-0.09-0.036-0.17-0.058-0.24-0.069zm-1.04 15.168c-0.52 0.016-1.02 0.289-1.26 0.731-0.59 1.126-0.74 2.436-0.43 3.676 0.09 0.33 0.67 0.44 0.88 0.16 0.48-0.64 0.33-1.5 0.64-2.21 0.3-0.67 0.54-1.308 0.77-2.013v0.092c0.06-0.143-0.16-0.217-0.09-0.362-0.17-0.055-0.34-0.079-0.51-0.074z" transform="matrix(.8 0 0 -.8 216.14 495.66)"/><path d="m252.09 443.36c-2.3945-3.4071-4.1338-8.7739-5.0034-12.616 1.0861 0.57978 1.1596 0.50829 2.1761 0.86967 0.36138 1.8128 3.2196 12.307 2.8273 11.746zm14.067-118.19c1.4765-3.5444 1.6659-6.9612 0.36138-13.559-1.4494 1.3779-1.5229 2.6109-2.6109 3.2641-0.14302-3.7704-0.28796-4.9319-1.0127-6.5998-1.5248-2.9723-1.9596-4.4952-2.0311-7.394-2.5394 2.1026-3.1926 5.0015-4.9319 6.6693-1.233 1.2349-3.697 3.554-4.5667 5.0768-0.14494-1.8147 0-2.4679-0.72472-4.2072-0.58364 2.0099-0.65323 2.6109-2.0312 4.2787-1.8147 2.5375-5.8731 8.1941-6.8162 14.21-0.21838 1.0165-0.79815 3.9908-1.4494 8.0492-0.50827-1.376-1.3779-2.4641-2.2495-2.6805-0.43483-0.2184-0.43483 0.36138-0.43483 0.36138 0.36139 1.3045 0.50827 2.7558 0.36139 3.8439-0.21645 1.5944-0.65128 5.1484-1.4494 6.018h-0.36139c0.0715-2.3925-0.86966-3.4806-1.4514-4.2787-0.0715 1.8862 0 3.3376-0.43483 4.2787-0.21645 0.65319-0.72472 1.233-0.86966 0.57974-0.36139-1.8862-0.50827-2.2476-0.50827-3.9888-0.14494-2.609-0.14494-3.4806-0.43483-5.6567-0.14301-1.5944-0.65128-3.5501-2.1026-5.5098-0.28795 1.7393-1.3779 3.1172-1.3779 3.1172 0-2.1026 0.43676-5.2199-0.86966-6.8877-1.5944-2.1742-1.8128-3.2622-2.3191-4.8585-0.22031 1.8862-0.79815 1.3064-1.09 2.321-1.1576-4.9319-4.7831-8.7024-6.0895-9.572 0.86966 2.0312 1.5944 4.3522 1.7393 5.8016 0 0-0.21645 5.3648-1.0146 8.4125-1.9867 9.487-2.9452 31.406-1.4494 39.734 3.6004 29.671 18.93 56.907 31.924 81.429h-1.6156v5.7301h1.7412l2.3558 5.2914 1.5596-1.1962 3.2255 9.8252 1.4146-7.2143 6.163 4.8237-5.0034-11.387h1.718c-0.27442-0.59717-0.55077-1.1905-0.80975-1.7973l-10.552-0.0155v-2.3268h9.6145c-0.21837-0.56816-0.41355-1.1557-0.6184-1.7335h-3.4361l2.8119-1.8166c-0.1836-0.56238-0.35752-1.1306-0.52761-1.7007l-1.2542 0.81555c-0.51601-2.3152-2.1741-10.247-1.8031-14.918 4.4236-4.2787 7.6858-8.4125 7.1776-17.695 0 0 0.28989-0.21454-1.5963 0.36524 0.94308-1.0165 1.2349-1.8147 2.0311-3.554 0.36141-2.8273 0.57977-5.3648 0.36141-7.9757 0 0 0.21836-6.4548 0.43673-8.484 0.86966-0.28989 0.36334-2.609 0.43483-5.6547 0 0-0.0715-1.8862-0.36331-3.3376-1.8108 1.4514-1.6659 1.378-2.1741 1.2349 0.4348-1.4514 0.72469-1.4514 1.5944-2.6129 0-8.6289 0.28989-17.546 0.8716-21.461 0.28796-2.8274 0.79621-6.0915 1.0146-7.1061 0.43483-1.3064 0.43483-2.466 1.7393-5.2218-0.43483 0-1.6485-0.0328-2.466 1.0146 1.1615-2.1742 1.1615-1.7393 1.8862-2.464l1.0146-7.5428-1.1596-1.3025 1.5944-1.0165s-0.36138-3.4071 0.0734-6.5263c0.21839-1.4514 0.6513-2.9008 1.6678-4.93-2.1026-0.0734-2.466 1.6678-2.466 1.6678-0.57977 0.6532-1.5963 2.1026-1.8842 2.1026-0.14494-2.1026 1.0146-2.8989 1.5229-4.1338"/><path d="m146.19 32.65c-0.43 0.031-0.88 0.144-1.31 0.211-0.17 0.027-0.42 0.253-0.61 0.412-0.33 0.278-0.86-0.229-1.3-0.084-0.37 0.126-0.79 0.565-0.43 0.93 0.39 0.391 0.91 0.658 1.43 0.791 1.57 0.394 3.2 0.009 4.68 0.658 0.42 0.186 0.94 0.401 1.11 0.942-0.15 0.034-0.31 0.169-0.44 0.072-0.36-0.258-0.76-0.257-1.11-0.283-2.48-0.203-4.95-0.406-7.42-0.063-0.01 0.631 0.25 1.298 0.82 1.377 0.77 0.102 1.6-0.137 2.34-0.084 0.81 0.063 1.66 0.585 2.47 1.041 0.11 0.068 0.3 0.057 0.43 0.004 0.36-0.154 0.68-0.675 1.08-0.484 0.24 0.116 0.5 0.224 0.77 0.267 0.56 0.099 0.97-0.005 1.51 0.075 1.14 0.171 2.11 0.938 3.25 0.771 0.85-0.125 1.24 0.161 1.66 0.543-0.24-0.215 1.56 1.072 1.72 0.756 0.06-0.126 1.89-0.226 1.91-0.504l-2.69-1.543c-0.16-0.266-0.37-0.583-0.63-0.822-0.6-0.553-0.92-1.211-1.61-1.651-0.93-0.587-1.69-1.354-2.7-1.726-0.11-0.039-0.24 0.003-0.36-0.024-0.07-0.019-0.12-0.082-0.09-0.17-0.1 0-0.22 0.031-0.26-0.017-0.14-0.155-0.36-0.246-0.49-0.287-0.52-0.172-1.13 0.136-1.59-0.27-0.27-0.239-0.58-0.372-0.87-0.558-0.4-0.26-0.83-0.311-1.27-0.28zm10.55 0.7c-0.5 0.043-0.71 0.579-0.42 0.857 0.54 0.534 1.51 0.711 1.59 1.576 2.13 1.058 5.85 1.767 5.68 4.086-0.02 0.225 1.36-0.476 1.72-0.426-0.72-0.466-0.81-1.369-1.2-2.043-0.3-0.519-0.7-0.931-1.17-1.175-2.13-1.104-4.62-3.025-6.2-2.875zm-17.7 3.679c-0.27-0.005-0.58 0.191-0.89 0.239-0.57 0.089-1.16-0.032-1.72-0.215-0.97 1.118-3.57 0.378-4.79 0.463-0.15 0.007 0.77 0.531 0.93 0.673 0.86 0.732 2.27 0.667 3.32 0.704 0.17 0.005 0.52-0.173 0.65-0.19 1.13-0.154 2.25 0.226 3.43 0.434 0.37 0.067 1.54-0.321 1.17-0.717-0.28-0.3-1.25-0.146-1.43-0.559-0.12-0.277-0.25-0.608-0.42-0.746-0.08-0.06-0.16-0.084-0.25-0.086zm-23.25 0.647c-0.43 0.008-0.94 0.107-1.51 0.328 0 0-1.82-0.184-6.08 3.08-4.71 2.901-10.965 7.072-15.497 12.602-3.309 3.307-7.977 8.338-9.699 11.873 0 0-2.809 4.439-4.623 11.691 0 0 0.635 2.355 2.449-0.725 3.17-5.387 15.226-23.52 32.45-36.755l0.81-0.043c-8.52 7.336-19.576 17.219-30.317 34.033-0.398 0.628-0.92 1.737-0.968 1.824-0.304 0.567 0.053 0.809 0.216 0.889 0.907 0.134 1.274-1.135 1.881-1.397 0.389-0.167 0.546 0.995 1.166 0.695 2.191-1.06 3.825-3.325 4.731-4.683 0.046 0.386 0.543 1.541 0.543 1.541 0.997 0.27 4.078-3.992 5.711-6.891 0.451 0.544-0.114 1.873 0.49 1.303 1.865-1.759 3.527-3.645 4.517-5.365 1.16-2.01 2.42-2.915 2.88-6.449 0.72 0.451 0.71 0.648 0.91 0.812 0.45-0.543 0.48-1.11 1.2-1.924 0.79-0.884 0.95-1.572 1.9-2.203 0.34-0.222 1.09-1.639 1.24-2.381 0.15-0.703 1.71-2.98 1.82-3.734 1.27-2.355 3.44-3.626 4.98-5.438 1.18-1.03 0.68-2.718-1.2-2.683zm-32.769 38.797c-0.03-0.005-0.056 0.002-0.087-0.006 0.229 0.056 0.183 0.052 0.087 0.006zm-32.328-32.895l-1.679 5.981 2.855 2.449-1.176-8.43zm64.727 0.363c-0.12 0.02-0.24 0.133-0.24 0.133s-2.36 0.546-5.89 10.516c-5.17 16.586-9.609 34.263-14.411 48.58 1.447-7.521 9.151-34.078 11.421-43.686 0 0-0.32-0.678-0.82 0.09-0.59 0.681-1.18 1.542-1.49 2.131 0.04-0.039-0.27 0.045-0.64 0.227l-1.13 1.722s-2.267 3.172-8.476 9.608c-1.041 1.63-1.491 2.384-2.629 4.986-0.408 0.949 0.228 1.087 0.906 0.541 1.677-1.628 1.769-1.628 4.079-3.396 0.103-0.08 1.968-0.75 1.968-0.782-0.29 0.372-0.679 0.619-0.834 0.764-0.635 0.604-2.204 2.375-2.634 3.121-1.051 1.822-2.207 4.086-3.719 6.83-1.896 3.433-3.346 7.424-3.346 7.424-0.998 2.809-0.724 3.08-0.724 3.08 1.36 0.546 0.619 1.234 0.619 1.234-0.619 1.124-0.892 2.029 0.152 1.624 0.679-0.138 1.042-0.489 1.322-0.836 0.534-0.66 0.989-1.114 1.354-1.571 0.611-0.758 0.498-0.986 1.148-1.74 0.846-0.976 1.386-1.791 2.248-2.199-1.495 2.039-1.586 3.488-1.586 3.488l0.362 0.455 0.273 0.18s-1.541 1.904-2.265 6.215c-0.346 2.05-0.273 2.3-0.592 3.44 0.154-0.15 1.043 0 1.845-0.81-0.347 1.26-0.418 1.9-0.418 1.9-0.157 1.04-0.158 0.86-0.158 2.04 0 1.09 0.001 0.63 0.364 1.9 1.63-0.73 1.992-0.64 3.529-2.44 0.732-0.69 1.285-2.35 1.5-2.23 0.408 0.18 0.068 1.1-0.113 1.51-0.247 0.57-0.469 1-0.563 1.41-0.048 0.21-0.255 0.52 0.076 0.8 0.145 0.12 0.044 0.11 0.51 0.09 0.271 0 0.523-0.42 0.523-0.42s0.156-0.04 0.293-0.35c0.114-0.27 0.317-0.41 0.498-0.55 0 0 0.271-0.27 0.59-0.18 0.636 0.73 1.178-0.23 1.178-0.23 1.04-1.58 1.27-1.99 2-4.12 0.45-1.4 0.99-1.9 1.44-7.794 1.27 1.904 1.45 5.534 1.45 5.534l0.37-0.1s1.18-3.35 3.17-4.437c0 0 0.18-2.266 2.17-4.532-0.27-1.36-0.45-2.446-0.72-4.623-0.82-3.626-1.27-9.7-0.45-13.867 1.63 8.699 2.58 9.971 2.58 9.971l0.36 0.135c0.68-1.042 0.86-2.856 1.04-4.487 0.82-3.445 2.27-3.079 2.27-3.806-0.45-2.81-1.18-7.25-0.72-11.057 0.9 4.167 1.35 3.896 1.99 5.437 0.82 1.904 0.91-0.455 0.91-0.455-0.19-2.444 1.54-4.893-0.09-10.601-0.64-3.899-2.45-12.239-1.73-14.143 0.29-1.473 0.08-1.706-0.12-1.674zm-59.154 0.723l-2.809 2.447 0.455 2.131 2.354-4.578zm-10.153 5.213l-1.265 3.129h4.89l-3.625-3.129zm3.235 10.424l3.515 2.271 0.78-2.271h-4.295zm-5.227 0.09c-2.266 3.082-17.858 32.451-19.396 37.797-11.965 24.002-19.67 47.932-21.141 71.562 0.0917 0.81 0.0999 0.31 0.4961 0.99 0.3599 0.62 0.1591 1.43 0.4297 2.13 0.2415-0.3 0.6855-0.44 0.7265-0.91 0.3431 1.42-0.6797 2.76-0.1797 4.17 0.5508-0.5 1.3733-0.6 1.8106-1.26-0.0435 0.56-0.1937 1.1-0.2734 1.64-0.1402 0.95 0.2389 1.9 0.3476 2.88 0.1401 1.25 1.6838 2.18 1.2441 3.4-0.715 1.99-1.0985 4.11-0.4511 5.99 0.1353 0.39 0.3344 1.05 0.791 1.26 0.3527 0.16 0.8718 0.17 1.2148 0 0.1812-0.09 0.3378-0.4 0.3808-0.67 0.133-0.88-0.2566-1.69-0.1-2.53 0.201-1.08 0.39-2.17 1.081-3.04 0.137-0.18 0.667-0.12 0.791 0.16 0.454 1.01 0.272 2.24 0.871 3.17 0.205 0.32 0.925 0.55 1.304 0.19 0.846-0.79 0.536-2.02 0.645-3.04 0.179-1.7-0.618-2.61-0.84-4.34-0.208-1.63 0.092-1.87 0.609-2.53 0.542 1.52 0.546 3.17 1.645 4.52 0.232 0.28 0.664 0.29 0.846 0.13 0.799-0.68 0.632-2.17 0.054-3.13-0.881-1.48-1.596-3.81-0.009-5.15-0.097 0.74-0.087 1.58 0.293 2.14 0.524 0.76 1.5 2.33 1.642 3.83 0.048 0.54 0.819 0.75 1.287 0.33 0.087-0.08-0.017-0.44 0.227-0.47 0.763-0.1 1.122 0.8 1.084 1.42 0.304 0 0.704 0.1 0.853-0.05 0.732-0.75 0.552-2.54 0.6-3.57 0.089-1.91 0.498-1.17 0.814-1.35-0.169-3.89-0.734-7.51-1.089-9.98-0.382-1 0.001-1.18 0.544-1.37 0.128-0.1 2.176-2.62 2.176-3.99-1.722 1.19-2.176 1.46-3.806 2.54-0.182-3.89-1.905-10.05-3.809-14.86 1.993 1.81 3.264 3.9 3.896 5.62 0.728-3.99 0.999-6.34 1.088-8.25-0.995-3.54-2.898-11.24-2.716-16.95 1.178 4.17 2.264 8.7 3.443 11.42 0.543-1.99 0.995-5.52 1.723-8.52 0.995-0.72 2.174-1.45 2.537-2.08-0.363-0.64-1.901 0.54-2.174 0.63 0.181-2.81 0.632-8.24-1.272-17.13l0.274-0.27c0.816 0.36 1.811 2 2.176 3.72 1.633-1.91 2.72-11.33 3.171-15.05-1.722 0-2.537 1.9-3.716 1.72 0.181-1.18 0.272-0.63 0.726-1.72 0.452-1.27 1.541-2.536 1.992-4.259 0.998-1.452 0.999-3.171 1.088-4.804 0-1.539-0.181-3.808 1.09-5.801 0.271 0.814 0.09 1.359 0.723 3.082 0 0 2.538-5.529 3.898-6.797 1.814-7.887 6.162-16.768 10.242-22.57h-1.902zm3.26 1.271c-7.069 29.366-10.332 46.768-11.057 68.518-0.799 22.4 1.296 44.48 6.645 65.2 0.234 0.77 0.48 1.58 0.724 2.4 0.194 0.25 0.422 0.51 0.75 0.35 0.368-0.19 0.453-0.63 0.508-0.98 0.225-1.48 0.37-2.93 1.061-4.2 0.055-0.1 0.335-0.38 0.472-0.55 0.5-0.62 0.67-1.39 0.813-2.22 0.034-0.2 0.205-0.38 0.357-0.52 0.447-0.4 0.939 0.18 1.2 0.55 0.454 0.63 0.23 1.47 0.636 2.11 1.063 1.68 2.227 3.09 3.563 4.49 0.338 0.35 0.908 0.77 1.549 0.6 0.183-0.05 0.362-0.23 0.416-0.36 0.256-0.68-0.293-1.26-0.592-1.84-0.425-0.84-1.181-1.85-0.696-2.7 0.131-0.23 0.795 0.45 1.082 0.14 0.283-0.31 0.35-0.89 0.219-1.38-0.15-0.57-0.422-1.09-0.666-1.61-0.877-1.89-1.894-3.66-2.527-5.66-0.085-0.27-0.198-0.58-0.133-0.9 0.329 0.71 1.094 1.19 1.471 1.86 0.096 0.17 0.294 0.32 0.4 0.46 0.445 0.61 1.293 0.87 1.588 1.53 0.418 0.92 0.458 2.82 1.779 2.58 0.428-0.08 1.101-0.48 0.819-1.16-0.215-0.53-0.353-1.1-0.737-1.52-0.347-0.38-0.867-0.62-1.099-1.05-0.401-0.76-0.7-1.66-0.321-2.51 0.085 0.72 0.647 1.14 1.116 1.6 0.495 0.49 1.79-0.17 2.172 0.38-0.056-0.32-0.14-0.62-0.36-0.89-3.355-3.98-6.527-8.16-6.344-11.33 2.264 3.27 4.167 5.26 5.979 6.53l0.092-0.63c-1.268-8.16-1.269-11.79-1.948-19.54-2.041-1.63-6.482-6.52-5.667-10.69 1.495 2.9 3.266 5.12 4.894 6.12l0.682 0.49c-0.136-1.4 0.045-9.69 0.045-12.19-1.09-1.54-2.449-3.35-3.399-5.16-0.862-1.82-1.903-3.58-4.396-6.57-2.085-3.13-5.346-5.9-5.346-5.9s0.63 0.09 0.949 0.09c0.998 0.32 2.176 0.73 3.899 1.95 0.678 0.28 1.585 1.55 3.218 3.04 1.087 1.04 1.179 1.81 1.766 2.13 0.954 0.91 2.22 2 3.488 2.9h0.366c0.27 1.09 0.134-6.75 0.134-6.75-1.406-2.22-2.401-4.9-3.58-7.93-0.181-1.09 0.635 0.68 2.174 1.44 0.454-1.58-0.362-9.6-0.451-15.13-0.454-1.72-6.844-10.604-7.16-12.824 2.174 3.534 5.075 3.988 6.162 5.394 0.273 0.22 0.319 0.31 0.633 0.18-0.179-9.154-4.258-13.594-8.065-16.857-0.546-8.431 2.264-20.487 2.264-20.487l-1.541-0.994zm-6.16 20.752s-1.182 0.456-1.815 0.729c-1.27 0.633-1.812 1.267-3.172 2.99-0.543 1.179-1.266 1.719-1.72 3.082-1.633 3.261-1.905 5.801-2.721 8.156l0.543-0.09c1.725-2.357 4.535-4.44 5.17-5.078l0.906-0.451c-1.271 3.264-2.992 4.078-4.715 7.068-2.372 4.93-4.626 23.22-5.711 28.28l1.086-0.36c0.727-0.36 1.905-1.63 5.442-2.9 1.811-1.45-5.983 6.7-6.981 9.38-0.997 7.11-2.447 18.72-2.674 23.93l0.409-0.05c0.543-0.36 4.848-5.57 6.525-6.16l0.59-0.55c-0.909 1.37-3.941 7.26-4.487 9.16-0.63 1.89-1.451 3.81-2.173 5.53-0.273 0.54-0.547 0.95-0.366 1.63 0 3.72 0.365 7.25 0.727 9.06l0.453 0.64c0.362-1 2.177-2.81 3.264-3.36l0.088 0.55c-0.996 2.35-2.263 4.53-2.717 5.71 0 4.53 0.543 10.06 1.541 14.5 0.092 0.65 0.905 0.54 1.267 0.27l0.225-0.2c0.734-3.12 1.394-6 3.111-8.77 0.179-0.29 0.474-0.43 0.715-0.64 0.148 1.76-0.075 3.55 1.01 5.15 0.495 0.73 1.234 0.56 1.982 0.56 0.488 1.68 1.704 2.94 2.141 4.7 0.077 0.31 0.482 0.57 0.84 0.43 0.647-0.25 1.242-0.54 1.609-1.17 0.022-0.03 0.053-0.08 0.084-0.12-5.909-19.49-7.384-45.83-6.459-68.19 1.087-16.5 2.362-28.571 5.983-43.416zm96.879 28.876c-1.05-0.02-1.6 0.29-2.38 0.49-3.59 0.92-7.12 3.63-9.09 6.23-0.57 0.76-0.38 1.55-0.26 1.72 0.36 0.5 0.93 1.86 1.09 1.7 1.45-1.58 3.22-3.03 5.12-2.58-0.81 0.28-3.67 1.72-4.57 3.82-0.06 0.13 0.36 0.9 0.9 1.3 0.73 1.23 1 1.72 1.41 1.95 0.26-0.02 0.79-0.55 0.93-0.78 2.01-2.66 4.01-4.29 9.54-5.02 1.58-0.27 2.49-0.72 2.62-2.17 0 0 0.32-0.73-0.32-2.18v0.1c-0.24-0.91-1.71-0.83-2.75-0.72-1.59 0.17-3.04 0.44-4.59 1.26 1.03-1.54 2.27-1.64 4.65-2.54 0.54-0.21 0.41-1.17 0.06-1.72-0.4-0.64-0.91-0.67-1.12-0.71-0.49-0.1-0.89-0.14-1.24-0.15zm-1.62 13c0.09 1.36-0.11 1.97 0.28 2.86 0.37 0.84 1.14 1.57 1.43 2.43 0.22 0.66 1.01 1.51 1.01 1.96 0.36 0.37 0.41 0.69 0.41 0.69 0.48 0.62 1.91 1.39 1.41 1.76-0.6 0.45-2.36 0.14-3.43-0.04-1.36-0.23-0.57 1.02-0.28 1.14 1.39 0.57 4.31 0.77 5.26 1.3 0.58 0.32 1.33 0.8 1.58 1.37 0.18 0.42 0.51 0.79 0.79 1.16 0.92 1.23 1.25 1.77 2.2 2.55 0.47 0.39 1.03 1.05 0.85 1.65-0.2 0.69-0.63 0.84-1.3 0.75-0.22-0.03-0.88-0.23-1.51-0.5-1.27-0.41-1.54-0.87-2.44-0.41-0.5 0.26 0.22 1.09 0.78 1.39 2.28 1.22 5.01 1.24 7.22 2.52 1.9 1.1 3.05 2.44 2.94 5.26 0 0.05 0.68 0.43 0.72 0.37 0.66-1.02 2.29 0.24 3.08-0.01 0.07-0.02 0.11-0.44-0.01-0.62-0.38-0.57-1.19-0.6-1.53-1.15-0.37-0.58 0.16-1.22-0.02-1.72-0.19-0.52-1.07 0.38-1.4 0.04-1.45-1.51-2.4-3.31-4.35-4.17 0.81-2.27 1.18-4.81 0.99-5.99-0.54-0.45-0.77 0.27-0.9 0.37-0.45 0.42-0.28 1.35-0.8 2.07-0.09 0.11-0.78-0.03-0.99-0.2-1.33-1.14-2.57-2.49-3.2-4.11-0.02-0.06-0.29-0.39-0.35-0.47-0.98-1.37-0.92-3.29 0.22-4.67 0.12-0.15 0.3-1 0.18-1.09-0.19-0.15-0.65 0.17-0.83 0.35-0.62 0.64-1.15 1.9-2.2 1.79-1.18-0.12-1.63-1.32-2.36-2.1-0.23-0.77-0.66-1.27-0.55-1.36-1-1.45-1.09-2.63-2-4.44-0.21-0.41-0.5-0.61-0.9-0.73z" transform="matrix(.8 0 0 -.8 216.14 495.66)" fill="#fff"/><path d="m9.0684 158.36c-0.9834 0.02-0.7132 1.27-0.6582 2.19l-0.0938-0.09c-0.4711 0.49-0.7103 0.81-1.0195 1.39-0.3914 0.73 0.1359 1.53 0.5683 2.07 0.7151 0.89 1.9596 0.38 2.5688-0.51 0.236-0.35 0.625-0.75 0.398-1.22-0.403-0.83-0.622-1.6-0.648-2.55-0.01-0.34-0.121-1.08-0.6137-1.21-0.196-0.05-0.3615-0.07-0.5019-0.07zm6.1696 5.64c-0.216-0.04-0.504 0.35-0.502 0.54 0.01 0.59 0.398 1.19 0.391 1.83-0.01 0.98-0.464 1.24-0.174 2.51 0.061 0.26 0.476 0.1 0.254 0.37 0.546 0 1.108 0.1 1.615-0.05 0.251-0.08 0.434-0.48 0.475-0.69 0.152-0.77 0.519-1.73-0.16-2.26-0.604-0.48-0.495-1.25-0.918-1.63-0.194-0.17-0.612-0.28-0.895-0.57-0.027-0.03-0.055-0.04-0.086-0.05zm-7.9489 1.75c-0.211-0.02-0.4657 0.19-0.6348 0.45-0.6426 1-0.9629 1.96-1.0547 3.41 0.1812 0.82 1.3498 0.97 1.9199 0.61 1.2997-0.82 0.3675-3.94 0.3047-3.51 0.041-0.27-0.2304-0.69-0.2304-0.63-0.068-0.22-0.1782-0.32-0.3047-0.33zm3.9179 2.39c-0.227-0.01-0.473 0.05-0.699 0.22-0.9665 0.7-1.3537 1.8-0.5275 2.98 0.4495 0.65 0.4025 1.81 1.1055 2.16 0.983 0.5 2.376-0.58 2.035-1.69-0.336-1.08-0.758-1.99-1.101-3.07-0.106-0.33-0.434-0.57-0.813-0.6zm32.742 0.92c-0.169 0.01-0.337 0.04-0.5 0.08-0.215 0.06-0.519 0.02-0.601 0.17-0.293 0.56 0.252 0.98 0.453 1.54 0.121 0.34 0.237 0.43 0.445 0.68 0.232 0.29 0.214 1.18 0.393 1.49 0.128 0.24 0.305 0.85 0.588 0.97 0.753 0.33 0.968 0.06 1.478-0.24 0.44-0.27 0.668-0.89 0.463-1.45-0.193-0.52-0.255-1.07-0.545-1.53-0.28-0.45-0.508-0.88-0.842-1.24-0.319-0.34-0.824-0.49-1.332-0.47zm-40.508 0.5s-0.2891 5.76-0.2891 11.11c0 11.87 1.4486 20.03 2.9004 28.73 0.6354 3.35 1.541 7.89 1.3575 10.79l0.455-0.28c0.6354-1.17 2.3578-4.89 2.8988-7.97 0.181-1.18 0.816 0 0.816 0 0.271 0.81 0.817 1.18 0.906 1.99 0 0.73 0.362 0.64 0.545 0.09 0.996-1.99 1.269-3.17 0.907-5.25-0.365-1.73-0.635-8.89 0.181-11.51 0-0.73 0.635 0 0.635 0 0.452 1.08 1.177 3.08 2.81 4.71 0 0 0.68 0.45 0.723 0-0.179-1.9-0.36-14.32 2.539-15.68 1.087 0.27 1.181 1 1.992 1.81 0.909-1 1.271-5.26 1-8.52 0.182-2.63 0.043-3.54 0.043-3.54-0.316 0.18-0.768-0.54-0.857 1.37-0.048 1.03 0.132 2.82-0.6 3.57-0.149 0.15-0.549 0.05-0.853 0.05 0.038-0.62-0.321-1.52-1.084-1.42-0.244 0.03-0.14 0.39-0.227 0.47-0.468 0.42-1.239 0.21-1.287-0.33-0.142-1.5-1.118-3.07-1.642-3.83-0.38-0.56-0.39-1.4-0.293-2.14-1.587 1.34-0.872 3.67 0.009 5.15 0.578 0.96 0.745 2.45-0.054 3.13-0.182 0.16-0.614 0.15-0.846-0.13-1.099-1.35-1.103-3-1.645-4.52-0.517 0.66-0.817 0.9-0.609 2.53 0.222 1.73 1.019 2.64 0.84 4.34-0.109 1.02 0.201 2.25-0.645 3.04-0.379 0.36-1.099 0.13-1.304-0.19-0.599-0.93-0.417-2.16-0.871-3.17-0.124-0.28-0.654-0.34-0.791-0.16-0.691 0.87-0.88 1.96-1.081 3.04-0.1566 0.84 0.233 1.65 0.1 2.53-0.043 0.27-0.1996 0.58-0.3808 0.67-0.343 0.17-0.8621 0.16-1.2148 0-0.4566-0.21-0.6557-0.87-0.791-1.26-0.6474-1.88-0.2639-4 0.4511-5.99 0.4397-1.22-1.104-2.15-1.2441-3.4-0.1087-0.98-0.4878-1.93-0.3476-2.88 0.0797-0.54 0.2299-1.08 0.2734-1.64-0.4373 0.66-1.2598 0.76-1.8106 1.26-0.5-1.41 0.5228-2.75 0.1797-4.17-0.041 0.47-0.485 0.61-0.7265 0.91-0.2706-0.7-0.0698-1.51-0.4297-2.13-0.3962-0.68-0.3848-0.18-0.4766-0.99l-0.1621-0.19zm15.168 2.54c-0.101 0.01-0.195 0.05-0.275 0.11-0.343 0.26-0.334 0.79-0.027 1.19 0.478 0.63 0.335 1.37 0.683 2.02 0.22 0.41 0.656 0.42 0.973 0.66 0.406 0.3 0.979-0.01 1.129-0.35 0.522-1.19-0.071-2.23-1.049-3-0.092-0.07-0.426-0.29-0.518-0.36-0.244-0.21-0.612-0.33-0.916-0.27zm23.467 1.59c-0.111 0-0.43 0.02-0.418 0.22 0.075 1.1-1.2 1.62-1.582 2.49-0.394 0.89 0.404 1.74 1.061 2.35 0.524 0.49 1.359 0.15 2.002-0.04 1.051-0.32 1.185-1.8 0.941-2.78-0.188-0.76-0.666-1.43-1.269-2.02-0.213-0.21-0.508-0.2-0.735-0.22zm-9.498 1.28c-0.236-0.02-0.484 0.16-0.508 0.4-0.094 0.94-0.111 2.7 1.305 2.41 0.5-0.1 0.831-0.61 0.713-1.14-0.167-0.75-0.725-1.17-1.285-1.6-0.068-0.05-0.146-0.07-0.225-0.07zm-21.99 0.66c-0.187 0.05-0.244 0.27-0.391 0.4-0.4032 0.35-0.4083 1.09-0.7634 1.57-0.6619 0.89-0.466 2.15-0.2051 3.01 0.1788 0.59 1.0525 1.44 1.7985 1.37 1.167-0.1 2.041-2.28 1.145-2.81-1.167-0.68-0.756-2.43-1.186-3.37-0.031-0.07-0.311-0.03-0.492-0.03l0.332-0.13c-0.099-0.03-0.176-0.03-0.238-0.01zm38.199 1.64c0.067 0 0.129 0.02 0.193 0.02 0.058 0 0.116-0.02 0.17-0.02h-0.363zm0.193 0.02c-0.211 0.03-0.426 0.07-0.501 0.19-0.508 0.79 0.04 1.72 0.714 2.06 0.711 0.35 1.599-0.84 1.075-1.5-0.3-0.37-0.755-0.69-1.288-0.75zm-13.427 0.82c-0.227-0.01-0.443 0.05-0.567 0.15-0.521 0.4-0.713 1.24-0.529 1.89 0.201 0.69 0.438 1.44 0.955 1.98 0.331 0.34 1.018 0.74 1.199 0.49 0.428-0.59 0.826-1.4 0.633-2.26-0.171-0.77-0.52-1.45-1.056-2-0.17-0.17-0.408-0.25-0.635-0.25zm16.152 4.99c-0.065 0.32 0.048 0.63 0.133 0.9 0.633 2 1.65 3.77 2.527 5.66 0.244 0.52 0.516 1.04 0.666 1.61 0.131 0.49 0.064 1.07-0.219 1.38-0.287 0.31-0.951-0.37-1.082-0.14-0.485 0.85 0.271 1.86 0.696 2.7 0.299 0.58 0.848 1.16 0.592 1.84-0.054 0.13-0.233 0.31-0.416 0.36-0.641 0.17-1.211-0.25-1.549-0.6-1.336-1.4-2.5-2.81-3.563-4.49-0.406-0.64-0.182-1.48-0.636-2.11-0.261-0.37-0.753-0.95-1.2-0.55-0.152 0.14-0.323 0.32-0.357 0.52-0.143 0.83-0.313 1.6-0.813 2.22-0.137 0.17-0.417 0.45-0.472 0.55-0.691 1.27-0.836 2.72-1.061 4.2-0.055 0.35-0.14 0.79-0.508 0.98-0.328 0.16-0.556-0.1-0.75-0.35 0.165 0.55 0.326 1.1 0.481 1.64 0.019 0.06 0.037 0.13 0.056 0.19 0.145 0.51 0.281 1 0.407 1.46 0.019 0.08 0.041 0.15 0.06 0.23 0.121 0.45 0.225 0.86 0.307 1.22 0.012 0.05 0.022 0.1 0.031 0.15 0.082 0.36 0.145 0.69 0.172 0.93-0.128-0.24-0.26-0.54-0.402-0.87-0.046-0.12-0.1-0.25-0.149-0.37-0.096-0.23-0.193-0.48-0.295-0.74-0.058-0.16-0.119-0.33-0.181-0.5-0.063-0.17-0.127-0.35-0.19-0.54-0.821-2.09-1.597-4.27-2.293-6.56-0.031 0.04-0.062 0.09-0.084 0.12-0.367 0.63-0.962 0.92-1.609 1.17-0.358 0.14-0.763-0.12-0.84-0.43-0.437-1.76-1.653-3.02-2.141-4.7-0.748 0-1.485 0.17-1.98-0.56-1.085-1.6-0.862-3.39-1.01-5.15-0.241 0.21-0.538 0.35-0.717 0.64-1.717 2.77-2.377 5.65-3.111 8.77-0.15 0.64-0.235 0.87-0.434 1.46-0.408 1.22 0.226 1.41 0.862 0.59 1.113-1.43 0.884-0.25 0.998 0.09 0.27 2.09 1.358 4.17 1.812 7.7 0.363 3.45 1.087 6.89 1.45 8.62 0.961 5.65 4.715 11.41 6.978 12.85-0.27-2.36 0.547-3.24 0.363-5.06l0.454-0.09c0.089 3.18 2.447 7.25 5.167 9.52 2.175 2.54 3.353 3.08 5.184 5.71 0.544 0.91 0.978 1.32 1.432 2.05 0.995-2.05 2.81-5.68 2.81-9.67 0-3.05-0.09-6.52-0.906-9.24 1.631 0.73 3.445 3.35 4.803 5.62 0.816-1.72 0.364-6.53-0.907-8.88-1.268-2.9-3.353-6.89-1.904-12.78 0.906 2.08 1.542 1.99 2.994 2.35 0.271-2.17-0.094-5.25 0-5.62-0.546-0.99-1.814-2.17-1.814-2.17l1.359-2.63c0.636-2.63-0.635-4.71-0.5-5.12-0.679-1.5-1.149-2.78-1.429-3.77-0.235-0.83-1.722 0.01-2.256-0.52-0.469-0.46-1.031-0.88-1.116-1.6-0.379 0.85-0.08 1.75 0.321 2.51 0.232 0.43 0.752 0.67 1.099 1.05 0.384 0.42 0.522 0.99 0.737 1.52 0.282 0.68-0.391 1.08-0.819 1.16-1.321 0.24-1.361-1.66-1.779-2.58-0.295-0.66-1.143-0.92-1.588-1.53-0.106-0.14-0.302-0.29-0.398-0.46-0.377-0.67-1.144-1.15-1.473-1.86zm-8.373 0.34c-0.378 0.05-0.733 0.25-0.871 0.63-0.203 0.56 0.208 1.4 0.467 1.54h-0.002c-0.061 0 0.121 0.27 0.06 0.27 0.302 0.7 0.018 1.23 0.407 1.88 0.314 0.52 1.101 0.61 1.541 0.24 1.07-0.9 0.839-2.57 0.013-3.63-0.321-0.42-0.687-0.82-1.238-0.91-0.123-0.03-0.251-0.03-0.377-0.02zm5.127 0.24c-0.261-0.01-0.519 0.06-0.73 0.24-0.443 0.38-0.44 0.94-0.551 1.51-0.061 0.33 0.143 0.61 0.281 0.89 0.601 1.22 2.047 1.26 3.18 1.94 0.147 0.09 0.443-0.22 0.554-0.41 0.343-0.61-0.224-1.26-0.734-1.66-0.739-0.58-0.432-1.74-1.246-2.26-0.227-0.15-0.493-0.24-0.754-0.25zm-10.707 1.08c-0.262 0.01-0.525 0.12-0.723 0.25-0.135 0.09-0.265 0.32-0.267 0.51-0.008 1.17-0.399 2.39 0.031 3.51 0.256 0.67 0.859 1.49 1.637 1.14 0.55-0.24 0.897-0.92 0.709-1.56-0.343-1.2 0.164-2.55-0.672-3.56-0.193-0.23-0.454-0.31-0.715-0.29z" transform="matrix(.8 0 0 -.8 216.14 495.66)" fill="#ffb612"/></g></g></svg>
