<svg xmlns="http://www.w3.org/2000/svg" id="svg-8x8_view" style="background-color: ;" width="100" height="100" viewBox="0 0 100 100">
  <defs>
    <filter id="f1-8x8_view" height="125%" width="125%">
      <feGaussianBlur in="SourceAlpha" stdDeviation="1.3888888888888888"></feGaussianBlur>
      <feOffset dx="2.7777777777777777" dy="2.7777777777777777" result="offsetblur"></feOffset>
      <feComponentTransfer>
        <feFuncA type="linear" slope="0.25"></feFuncA>
      </feComponentTransfer>
      <feMerge>
        <feMergeNode></feMergeNode>
        <feMergeNode in="SourceGraphic"></feMergeNode>
      </feMerge>
    </filter>
  </defs>
  <g filter="url(#f1-8x8_view)" id="g-8x8_view" style="shape-rendering:crispEdges;">
    <path undefined="" fill-rule="evenodd" fill="rgb(214, 163, 48)" d="M16.666666666666664 5.555555555555555 L27.777777777777775 5.555555555555555 L27.777777777777775 16.666666666666664 L16.666666666666664 16.666666666666664 Z"></path>
    <path undefined="" fill-rule="evenodd" fill="white" d="M27.77777777777778 5.555555555555555 L38.888888888888886 5.555555555555555 L38.888888888888886 16.666666666666664 L27.77777777777778 16.666666666666664 Z"></path>
    <path undefined="" fill-rule="evenodd" fill="red" d="M38.888888888888886 5.555555555555555 L50 5.555555555555555 L50 16.666666666666664 L38.888888888888886 16.666666666666664 Z"></path>
    <path undefined="" fill-rule="evenodd" fill="white" d="M50 5.555555555555555 L61.111111111111114 5.555555555555555 L61.111111111111114 16.666666666666664 L50 16.666666666666664 Z"></path>
    <path undefined="" fill-rule="evenodd" fill="rgb(214, 163, 48)" d="M61.111111111111114 5.555555555555555 L72.22222222222223 5.555555555555555 L72.22222222222223 16.666666666666664 L61.111111111111114 16.666666666666664 Z"></path>
    <path undefined="" fill-rule="evenodd" fill="rgb(214, 163, 48)" d="M5.555555555555555 16.666666666666664 L16.666666666666664 16.666666666666664 L16.666666666666664 27.777777777777775 L5.555555555555555 27.777777777777775 Z"></path>
    <path undefined="" fill-rule="evenodd" fill="rgb(214, 163, 48)" d="M72.22222222222221 16.666666666666664 L83.33333333333333 16.666666666666664 L83.33333333333333 27.777777777777775 L72.22222222222221 27.777777777777775 Z"></path>
    <path undefined="" fill-rule="evenodd" fill="rgb(214, 163, 48)" d="M5.555555555555555 27.77777777777778 L16.666666666666664 27.77777777777778 L16.666666666666664 38.888888888888886 L5.555555555555555 38.888888888888886 Z"></path>
    <path undefined="" fill-rule="evenodd" fill="rgb(68, 68, 68)" d="M27.77777777777778 27.77777777777778 L38.888888888888886 27.77777777777778 L38.888888888888886 38.888888888888886 L27.77777777777778 38.888888888888886 Z"></path>
    <path undefined="" fill-rule="evenodd" fill="rgb(68, 68, 68)" d="M50 27.77777777777778 L61.111111111111114 27.77777777777778 L61.111111111111114 38.888888888888886 L50 38.888888888888886 Z"></path>
    <path undefined="" fill-rule="evenodd" fill="rgb(214, 163, 48)" d="M72.22222222222221 27.77777777777778 L83.33333333333333 27.77777777777778 L83.33333333333333 38.888888888888886 L72.22222222222221 38.888888888888886 Z"></path>
    <path undefined="" fill-rule="evenodd" fill="rgb(180, 180, 180)" d="M5.555555555555555 38.888888888888886 L16.666666666666664 38.888888888888886 L16.666666666666664 50 L5.555555555555555 50 Z"></path>
    <path undefined="" fill-rule="evenodd" fill="rgb(180, 180, 180)" d="M16.666666666666664 38.888888888888886 L27.777777777777775 38.888888888888886 L27.777777777777775 50 L16.666666666666664 50 Z"></path>
    <path undefined="" fill-rule="evenodd" fill="rgb(180, 180, 180)" d="M27.77777777777778 38.888888888888886 L38.888888888888886 38.888888888888886 L38.888888888888886 50 L27.77777777777778 50 Z"></path>
    <path undefined="" fill-rule="evenodd" fill="rgb(180, 180, 180)" d="M38.888888888888886 38.888888888888886 L50 38.888888888888886 L50 50 L38.888888888888886 50 Z"></path>
    <path undefined="" fill-rule="evenodd" fill="rgb(180, 180, 180)" d="M50 38.888888888888886 L61.111111111111114 38.888888888888886 L61.111111111111114 50 L50 50 Z"></path>
    <path undefined="" fill-rule="evenodd" fill="rgb(180, 180, 180)" d="M61.111111111111114 38.888888888888886 L72.22222222222223 38.888888888888886 L72.22222222222223 50 L61.111111111111114 50 Z"></path>
    <path undefined="" fill-rule="evenodd" fill="rgb(180, 180, 180)" d="M72.22222222222221 38.888888888888886 L83.33333333333333 38.888888888888886 L83.33333333333333 50 L72.22222222222221 50 Z"></path>
    <path undefined="" fill-rule="evenodd" fill="rgb(214, 163, 48)" d="M5.555555555555555 50 L16.666666666666664 50 L16.666666666666664 61.111111111111114 L5.555555555555555 61.111111111111114 Z"></path>
    <path undefined="" fill-rule="evenodd" fill="rgb(180, 180, 180)" d="M16.666666666666664 50 L27.777777777777775 50 L27.777777777777775 61.111111111111114 L16.666666666666664 61.111111111111114 Z"></path>
    <path undefined="" fill-rule="evenodd" fill="rgb(235, 120, 0)" d="M27.77777777777778 50 L38.888888888888886 50 L38.888888888888886 61.111111111111114 L27.77777777777778 61.111111111111114 Z"></path>
    <path undefined="" fill-rule="evenodd" fill="rgb(235, 120, 0)" d="M38.888888888888886 50 L50 50 L50 61.111111111111114 L38.888888888888886 61.111111111111114 Z"></path>
    <path undefined="" fill-rule="evenodd" fill="rgb(235, 120, 0)" d="M50 50 L61.111111111111114 50 L61.111111111111114 61.111111111111114 L50 61.111111111111114 Z"></path>
    <path undefined="" fill-rule="evenodd" fill="rgb(180, 180, 180)" d="M61.111111111111114 50 L72.22222222222223 50 L72.22222222222223 61.111111111111114 L61.111111111111114 61.111111111111114 Z"></path>
    <path undefined="" fill-rule="evenodd" fill="rgb(214, 163, 48)" d="M72.22222222222221 50 L83.33333333333333 50 L83.33333333333333 61.111111111111114 L72.22222222222221 61.111111111111114 Z"></path>
    <path undefined="" fill-rule="evenodd" fill="rgb(180, 180, 180)" d="M27.77777777777778 61.111111111111114 L38.888888888888886 61.111111111111114 L38.888888888888886 72.22222222222223 L27.77777777777778 72.22222222222223 Z"></path>
    <path undefined="" fill-rule="evenodd" fill="rgb(68, 68, 68)" d="M38.888888888888886 61.111111111111114 L50 61.111111111111114 L50 72.22222222222223 L38.888888888888886 72.22222222222223 Z"></path>
    <path undefined="" fill-rule="evenodd" fill="rgb(180, 180, 180)" d="M50 61.111111111111114 L61.111111111111114 61.111111111111114 L61.111111111111114 72.22222222222223 L50 72.22222222222223 Z"></path>
    <path undefined="" fill-rule="evenodd" fill="rgb(0, 128, 0)" d="M5.555555555555555 83.33333333333333 L16.666666666666664 83.33333333333333 L16.666666666666664 94.44444444444444 L5.555555555555555 94.44444444444444 Z"></path>
    <path undefined="" fill-rule="evenodd" fill="rgb(0, 128, 0)" d="M16.666666666666664 83.33333333333333 L27.777777777777775 83.33333333333333 L27.777777777777775 94.44444444444444 L16.666666666666664 94.44444444444444 Z"></path>
    <path undefined="" fill-rule="evenodd" fill="rgb(0, 128, 0)" d="M27.77777777777778 83.33333333333333 L38.888888888888886 83.33333333333333 L38.888888888888886 94.44444444444444 L27.77777777777778 94.44444444444444 Z"></path>
    <path undefined="" fill-rule="evenodd" fill="rgb(0, 128, 0)" d="M38.888888888888886 83.33333333333333 L50 83.33333333333333 L50 94.44444444444444 L38.888888888888886 94.44444444444444 Z"></path>
    <path undefined="" fill-rule="evenodd" fill="rgb(0, 128, 0)" d="M50 83.33333333333333 L61.111111111111114 83.33333333333333 L61.111111111111114 94.44444444444444 L50 94.44444444444444 Z"></path>
    <path undefined="" fill-rule="evenodd" fill="rgb(0, 128, 0)" d="M61.111111111111114 83.33333333333333 L72.22222222222223 83.33333333333333 L72.22222222222223 94.44444444444444 L61.111111111111114 94.44444444444444 Z"></path>
    <path undefined="" fill-rule="evenodd" fill="rgb(0, 128, 0)" d="M72.22222222222221 83.33333333333333 L83.33333333333333 83.33333333333333 L83.33333333333333 94.44444444444444 L72.22222222222221 94.44444444444444 Z"></path></g>
</svg>